<svg width="81" height="69" fill="none" xmlns="http://www.w3.org/2000/svg"><path fill-rule="evenodd" clip-rule="evenodd" d="M40.417 46.234c-1.883.777-3.785.602-5.596-.418-3.867-2.175-6.086-5.506-6.848-9.863-.464-2.652.169-4.887 1.785-7.057 1.719-2.307 3.801-3.757 6.53-4.523 3.271-.92 6.263-.926 8.734 1.95 3.187 3.187 6.565 8.033 7.077 9.868.867 2.695-2.227 5.255-4.134 6.429-2.377 1.463-4.972 2.554-7.548 3.614zM22.888 47.58c1.923-.12 3.898-1.694 5.781-2.22.471-.13 1.16-.379 1.438-.162 1.238.965 2.372 2.069 3.512 3.156.085.08-.055.428-.12.642-1.36 4.457-2.58 8.971-4.99 13-1.868 3.128-4.663 4.838-8.247 5.249-1.851.212-3.4-.585-4.441-2.06-.776-1.1-1.406-2.397-1.743-3.695-.573-2.219-.951-4.497-1.254-6.77-.445-3.35-1.913-6.094-4.444-8.313-1.208-1.057-2.364-2.176-3.548-3.264-2.209-2.026-3.322-4.688-2.555-7.43.82-2.94 3.215-4.285 6.415-4.632 5.405-.583 10.586.729 15.845 1.477.218.031.483.107.62.26.205.226.448.547.435.813-.014.294-.233.742-.469.824-.625.219-1.304.316-1.97.39-1.573.177-3.173.215-4.721.513-.59.112-1.152.581-1.4 1.098.957.356 2.42.306 3.466.276 1.35-.038 2.71.018 4.059.12.22.016.562.466.577.73.015.233-.306.651-.542.701-1.194.248-2.451.271-3.61.672-.353.12-1.377.425-1.5.848-.813 2.785 5.887 2.219 6.47.042.259.193.607.34.752.599.135.236.169.798.046.869-.777.443-1.62.77-2.431 1.18-1.04.528-2.65.985-2.673 2.421.746-.254 1.48-.897 2.277-1.202 1.048-.4 2.131-.76 3.233-.947.378-.065.86.443 1.293.688-.253.29-.437.724-.77.854-1.447.562-4.45 1.507-4.791 3.273zM49.14 24.898l-.361-.36c.066-.207.09-.441.206-.614.6-.893 1.781-1.483 1.44-2.854-1.705-.433-1.874 1.212-2.695 1.98-.208.195-.506.29-.764.432-.08-.39-.367-.927-.21-1.148 1.688-2.375 2.49-5.373 4.97-7.197.178-.132.416-.283.47-.469.728-2.527-2.263-.416-3.031.226-1.523 1.273-2.67 2.929-3.43 4.76-.302.728-.614 1.473-1.058 2.114-.188.274-.796.488-1.096.385-.33-.113-.6-.593-.745-.97-.11-.29.036-.667.036-1.006-.014-5.455 2.306-10.065 5.317-14.375.893-1.278 2.046-2.48 3.707-2.816 4.53-.915 9.591 0 10.823 5.847.294 1.39 1.033 2.452 1.922 3.52 1.727 2.075 4.012 3.292 6.372 4.378 1.977.911 3.815 1.975 5.312 3.575 3.418 3.652 2.581 8.94-1.872 11.08-1.92.92-3.966 1.696-6.041 2.148-4.187.91-8.433 1.545-12.653 2.31-.872.157-1.577.089-1.837-.937-.237-.938-.351-1.678.908-2.097 1.226-.406 2.509-.765 3.619-1.443.658-.402 2.654-2.34.54-2.248a4.974 4.974 0 00-1.93.506c-1.21.595-2.341 1.347-3.558 1.926-.248.12-.9-.142-1.047-.407-.161-.29-.1-.96.127-1.153.4-.341.99-.477 1.519-.641.966-.301 1.978-.481 2.91-.86.746-.3 1.504-.927 1.047-1.794-.201-.38-1.189-.573-1.752-.474-.87.154-1.692.613-2.521.975-.726.316-1.405.853-2.153.957-.53.073-1.205-.329-1.666-.704-.117-.095.201-1.023.537-1.337 1.065-.997 2.27-1.845 3.34-2.84 1.018-.947.33-1.96-.964-1.557-.608.19-1.164.643-1.656 1.082-.735.655-1.391 1.394-2.082 2.1zM1.868 42.165c.347.386 1.063 1.27 1.87 2.06.977.956 2.053 1.811 3.046 2.752 2.278 2.16 4.012 4.59 4.62 7.808.486 2.572.939 3.877 1.113 6.641-.08 1.154.391 3.224 1.242 4.145 2.529 2.739 5.336 3.449 8.922 2.24 4.69-1.579 7.585-4.937 9.626-9.124 1.284-2.642 2.186-5.486 3.076-8.3.553-1.756 1.345-2.66 3.355-2.601 2.825.08 5.3-1.192 7.638-2.667 2.786-1.76 5.736-3.347 7.248-6.525.55-1.156 1.59-1.612 2.731-1.832 3.126-.6 6.247-1.27 9.402-1.676 3.32-.424 6.427-1.428 9.43-2.814 5.643-2.605 6.761-9.213 2.367-13.598-1.562-1.558-3.264-2.827-5.35-3.592a17.946 17.946 0 01-2.778-1.32c-2.55-1.48-4.494-3.366-5.034-6.515-.48-2.802-1.895-5.07-4.66-6.36C55.214-1.218 49.36.605 46.421 4.66c-3.182 4.397-4.868 9.202-5.365 14.545-.212 2.267-.327 2.223-2.631 2.688-1.443.29-2.891.61-4.284 1.074-3.415 1.139-5.7 3.673-7.387 6.674-.614 1.09-1.139 1.116-2.115.986-3.384-.45-6.787-.768-10.163-1.261-3.744-.548-7.468-.49-10.338.987-1.251.462-1.763 1.32-2.203 1.934-2.153 2.996-2.138 6.133-.068 9.877z" fill="#CDCCCE"/></svg>