<svg width="129" height="90" fill="none" xmlns="http://www.w3.org/2000/svg"><path fill-rule="evenodd" clip-rule="evenodd" d="M62.916 68.99c-3.277-5.691-2.695-9.886 1.743-12.585 1.06-.644 2.101-.883 3.129-.716 1.021.168 1.734.593 2.124 1.281 1.115 1.94 1.27 4.504.454 7.697-.814 3.192-2.243 5.87-4.284 8.037-.832-.254-1.894-1.493-3.166-3.714zM74.028 86.1c-.44-.768-1.525-2.37-3.245-4.811-1.488-2.035-2.495-3.606-3.021-4.704.53-.922 3.073-2.546 5.023-7.304 2.165-5.288 2.314-9.66.291-13.173-2.695-4.68-6.202-5.71-10.518-3.085-.009.006-.041.04-.053.048-1.833.94-3.536 2.4-4.482 3.486-1.039 1.194-2.084 2.224-2.523 3.702-.047.096-.635 1.63-.471 1.906.11 1.25 2.389 4.042 2.65 4.414 1.014 1.678 2.024 3.369 3.048 4.967.73 1.083 1.045 2.157.943 3.226-.102 1.07-.044 1.79.163 2.151.21.362 1.243.826 3.1 1.383a524.213 524.213 0 014.63 7.077c2.037 2.9 3.376 4.267 4.022 4.093 0 0 1.523-.272 1.409-.862-.11-.59-.384-1.505-.966-2.513zm29.681-32.597a2.575 2.575 0 01-.742.712c-1.246.775-3.427-.268-6.549-3.136-1.663-1.56-5.895-6.539-6.013-6.466 1.438 6.938.02 12.707-1.453 13.629-2.098 1.31-4.575.864-7.43-1.335-2.111-1.615-3.69-3.37-4.75-5.26-.8-1.435-1.274-2.326-1.42-2.679-.617-1.666-.424-2.813.586-3.443.351-.221.95-.151 1.804.201.849.353 1.326.612 1.416.776.138.243.273.98.405 2.199.13 1.22.268 1.95.406 2.196.527.946 1.439 1.873 2.73 2.78 1.528 1.037 2.697 1.304 3.51.796 1.244-.778 1.66-3.309 1.258-7.597-.406-2.406-.665-4.824-1.12-7.193-.169-.867.85-1.198 1.235-1.439.895-.56 1.839-.37 2.831.557.392.42.967 1.724 2.239 3.531 1.323 1.995 2.6 3.178 3.306 3.926.71.752 2.094 1.752 4.16 3.008 1.876 1.102 2.877 1.777 3.015 2.02 0 0 1.476.93.576 2.217zm8.011-27.012c-.369-.477-.776-.777-1.352-.918-1.94-.477-3.533-.224-3.924.017-.954.586-1.799 2.282-2.521 5.088-.83 3.35-1.198 5.786-1.428 6.195l-.66-.89c-.677-1.192-1.085-1.854-1.21-1.993-.405-.341-1.76-1.348-2.856-.66-1.382 1.243-.53 2.877-.28 3.313 1.037 1.826 2.519 3.84 4.439 6.039 2.715 3.047 4.684 4.193 5.91 3.445.726-.45.932-1.03.627-1.752-.825-1.908-1.448-3.586-1.868-5.047-.521-1.825-.43-4.066.275-6.722.536-2.008 1.202-3.6 1.998-4.775.07.026 1.048.383 1.088.41 1.082.732 2.697-.543 1.762-1.75zm16.912-10.576c-.497-.95-1.85-2.092-3.839-2.186-.069-.006-1.355 0-2.122.624-.896.737-1.832 2.363-2.572 5.268-.847 3.465-1.385 5.408-1.622 5.831 0 0-1.616-2.265-1.743-2.408-.413-.35-1.153-1.416-2.917-.68-1.488.88-.537 2.973-.286 3.423 1.061 1.891 2.573 3.974 4.533 6.246 2.769 3.151 4.778 4.339 6.027 3.562.743-.463.954-1.066.642-1.812-.842-1.973-1.478-3.708-1.905-5.219-.532-1.888-.44-4.202.28-6.951.604-2.309 1.39-4.053 2.327-5.299.728.259 1.379 1.285 1.954 1.77 1.336 1.117 2.113-.5 1.243-2.169zM8.092 58.953c-3.523-5.536-3.218-9.819.912-12.852.985-.722 1.982-1.034 2.984-.937.999.103 1.713.485 2.137 1.152 1.2 1.884 1.501 4.468.911 7.753-.592 3.285-1.81 6.094-3.652 8.42-.822-.2-1.923-1.38-3.292-3.536zM19.902 75.5c-.473-.749-1.625-2.293-3.44-4.647-1.564-1.956-2.637-3.475-3.213-4.55.455-.97 2.818-2.784 4.41-7.728 1.772-5.502 1.645-9.93-.528-13.345-2.893-4.553-6.354-5.354-10.368-2.406a.397.397 0 00-.045.052c-1.72 1.07-3.278 2.666-4.127 3.83-.93 1.278-1.878 2.39-2.21 3.916-.046.098-.517 1.693-.342 1.96.183 1.259 2.563 3.925 2.837 4.283 1.084 1.632 2.168 3.27 3.257 4.82.77 1.043 1.143 2.107 1.107 3.2-.028 1.088.067 1.81.29 2.162.23.352 1.254.75 3.089 1.186a611.175 611.175 0 014.917 6.846c2.148 2.793 3.528 4.085 4.144 3.864 0 0 1.456-.376 1.31-.965-.144-.591-.466-1.498-1.087-2.478zm27.856-34.724c-.17.284-.39.541-.686.756-1.183.856-3.403-.03-6.667-2.661-1.735-1.437-6.227-6.088-6.338-6.006 1.847 6.786.798 12.607-.602 13.623-1.992 1.446-4.471 1.173-7.427-.816-2.183-1.458-3.853-3.09-5.01-4.89-.884-1.37-1.408-2.223-1.573-2.561-.71-1.612-.59-2.764.37-3.46.334-.242.93-.215 1.796.076.86.293 1.348.52 1.445.674.154.236.333.953.535 2.153.203 1.2.385 1.917.533 2.153.582.901 1.54 1.757 2.873 2.568 1.573.928 2.745 1.112 3.52.55 1.18-.856 1.434-3.396.775-7.62-.55-2.362-.952-4.742-1.547-7.061-.22-.85.772-1.246 1.137-1.512.846-.617 1.79-.493 2.83.356.41.393 1.06 1.645 2.428 3.351 1.43 1.89 2.765 2.973 3.509 3.668.746.696 2.174 1.597 4.295 2.7 1.92.962 2.952 1.564 3.1 1.797 0 0 1.522.82.704 2.162zm6.9-28.144c-.407-.469-.853-.755-1.455-.86-2.035-.36-3.663.015-4.056.296-.945.678-1.707 2.513-2.27 5.497-.64 3.558-.863 6.129-1.071 6.573l-.742-.885c-.78-1.196-1.24-1.859-1.379-1.995-.44-.33-1.906-1.285-2.992-.484-1.349 1.394-.363 3.04-.079 3.478 1.191 1.838 2.854 3.835 4.98 5.994 3.004 2.99 5.116 4.05 6.334 3.181.718-.52.894-1.14.528-1.874-.974-1.936-1.728-3.644-2.25-5.143-.66-1.868-.713-4.214-.156-7.041.42-2.137 1.006-3.845 1.754-5.134.074.025 1.106.327 1.147.355 1.168.687 2.755-.762 1.707-1.958zM70.559 1.963C70.024 1.049 68.654.007 66.74.05c-.07 0-1.304.09-2.005.768-.82.79-1.622 2.475-2.16 5.414-.606 3.507-1.01 5.478-1.21 5.915 0 0-1.689-2.14-1.82-2.274-.42-.325-1.195-1.333-2.844-.477-1.381.975-.342 2.994-.072 3.422 1.134 1.813 2.71 3.778 4.73 5.906 2.852 2.946 4.854 3.99 6.008 3.131.685-.51.855-1.123.507-1.846-.925-1.904-1.638-3.59-2.142-5.062-.621-1.84-.672-4.154-.142-6.938.442-2.336 1.091-4.127 1.919-5.433.716.21 1.404 1.188 1.986 1.628 1.348 1.02 2.002-.64 1.064-2.241z" fill="#CDCCCE"/></svg>