<svg width="95" height="123" fill="none" xmlns="http://www.w3.org/2000/svg"><path d="M86.412 66.122c-.234-1.975-1.425-3.672-3.187-4.539a5.611 5.611 0 00-5.477.278l-4.02 2.507a3.638 3.638 0 00-1.466 1.764 3.707 3.707 0 00-.142 2.305 3.66 3.66 0 001.238 1.937 3.56 3.56 0 002.13.805l.052.002a7.067 7.067 0 015.089 2.526 3.609 3.609 0 001.942 1.198 3.54 3.54 0 002.262-.215 3.615 3.615 0 001.69-1.544 3.7 3.7 0 00.45-2.264l-.561-4.76zM75.717 60.99c.82.071 1.613-.241 2.236-.88.593-.606.96-1.442 1.034-2.353.073-.911-.155-1.798-.642-2.498-.512-.736-1.244-1.18-2.063-1.25-1.646-.141-3.112 1.31-3.269 3.235-.123 1.533.622 2.912 1.762 3.48.29.145.607.238.942.266zm6.093-1.268c1.69.754 3.824-.078 4.756-1.854.931-1.777.314-3.835-1.376-4.59-1.69-.754-3.824.078-4.756 1.855-.931 1.776-.314 3.835 1.376 4.589zm5.093 3.438v.001c.228.221.485.398.762.532 1.29.622 3.003.292 4.182-.916.678-.695 1.085-1.58 1.145-2.49.063-.953-.256-1.821-.898-2.444-.643-.623-1.523-.917-2.478-.827-.912.086-1.788.516-2.466 1.21-1.43 1.467-1.542 3.68-.247 4.935zm7.774 2.55c-.812-1.658-2.897-2.205-4.648-1.22-1.75.988-2.516 3.14-1.706 4.799.295.605.76 1.062 1.316 1.35.97.505 2.217.497 3.332-.13 1.75-.988 2.516-3.14 1.706-4.798zM76.412 13.122c-.234-1.976-1.425-3.672-3.187-4.539a5.611 5.611 0 00-5.477.278l-4.02 2.507a3.638 3.638 0 00-1.466 1.764 3.707 3.707 0 00-.142 2.306 3.66 3.66 0 001.238 1.936 3.56 3.56 0 002.13.805l.052.002a7.067 7.067 0 015.089 2.526 3.609 3.609 0 001.942 1.198 3.54 3.54 0 002.262-.215 3.615 3.615 0 001.69-1.544 3.7 3.7 0 00.45-2.264l-.561-4.76zM65.717 7.99c.82.071 1.613-.241 2.236-.88.593-.606.96-1.442 1.034-2.353.073-.911-.155-1.798-.642-2.498-.512-.736-1.244-1.18-2.063-1.25-1.646-.141-3.112 1.31-3.269 3.235-.123 1.533.622 2.912 1.762 3.48.29.145.607.238.942.266zm6.093-1.268c1.69.754 3.824-.078 4.756-1.854.931-1.777.314-3.835-1.376-4.59-1.69-.754-3.824.078-4.756 1.855-.931 1.776-.314 3.835 1.376 4.589zm5.093 3.438v.001c.228.221.485.398.762.532 1.29.622 3.003.292 4.182-.916.678-.695 1.085-1.58 1.145-2.49.063-.953-.256-1.821-.898-2.444-.643-.623-1.523-.917-2.478-.827-.912.086-1.788.516-2.466 1.21-1.43 1.467-1.542 3.68-.247 4.935zm7.774 2.55c-.812-1.659-2.897-2.205-4.648-1.22-1.75.988-2.516 3.14-1.706 4.799.295.605.76 1.062 1.316 1.35.97.505 2.217.497 3.332-.13 1.75-.988 2.516-3.14 1.706-4.798zM22.294 57.854c-.28-2.258-1.71-4.197-3.823-5.188a7.026 7.026 0 00-6.574.318L7.073 55.85a4.213 4.213 0 00-1.758 2.016 4.052 4.052 0 00-.171 2.634c.238.88.752 1.645 1.485 2.213a4.397 4.397 0 002.556.92l.063.002c2.354.1 4.577 1.15 6.106 2.888a4.32 4.32 0 001.408 1.055 4.48 4.48 0 003.637.068 4.266 4.266 0 002.028-1.765c.466-.79.653-1.684.541-2.587l-.674-5.44zM10.17 51.989c.956.081 1.882-.276 2.609-1.005.691-.694 1.12-1.65 1.205-2.69.086-1.042-.18-2.056-.748-2.855-.597-.841-1.452-1.348-2.407-1.428-1.92-.162-3.63 1.495-3.814 3.696-.143 1.753.725 3.328 2.055 3.978.34.166.71.271 1.1.304zm6.899-.347c1.932.97 4.37-.1 5.435-2.383 1.065-2.284.36-4.931-1.573-5.901-1.932-.97-4.37.1-5.435 2.384-1.065 2.284-.36 4.93 1.573 5.9zm5.963 3.398v.001c.26.253.554.455.87.608 1.476.71 3.433.333 4.78-1.046.775-.795 1.24-1.805 1.309-2.846.072-1.09-.292-2.082-1.027-2.794-.735-.712-1.74-1.047-2.831-.945-1.043.098-2.043.59-2.819 1.384-1.635 1.676-1.762 4.205-.282 5.639zm6.645 3.67c-.812-1.659-2.896-2.205-4.648-1.22-1.75.988-2.516 3.14-1.706 4.799.295.605.76 1.062 1.316 1.35.97.505 2.217.497 3.332-.13 1.75-.988 2.516-3.14 1.706-4.798zm-9.501 52.241c-.326-2.681-1.994-4.984-4.46-6.16a8.072 8.072 0 00-7.67.378l-5.627 3.402a4.983 4.983 0 00-2.052 2.394 4.894 4.894 0 00-.2 3.129 4.954 4.954 0 001.734 2.628 5.073 5.073 0 002.982 1.092l.073.003a10.006 10.006 0 017.124 3.429 5.035 5.035 0 002.719 1.625 5.093 5.093 0 003.167-.292 5.003 5.003 0 002.366-2.095 4.9 4.9 0 00.631-3.072l-.787-6.461zm-14.553-6.964c1.092.092 2.15-.31 2.981-1.13.79-.781 1.28-1.856 1.378-3.027.098-1.171-.206-2.312-.855-3.212-.682-.945-1.66-1.515-2.75-1.606-2.195-.182-4.15 1.683-4.36 4.159-.163 1.971.83 3.743 2.35 4.474.387.187.81.306 1.256.342zm8.704-.385c2.174 1.078 4.917-.11 6.115-2.648 1.198-2.538.404-5.479-1.77-6.557-2.172-1.077-4.915.112-6.114 2.65-1.197 2.537-.404 5.478 1.77 6.555zm6.833 5.319c.295.285.625.512.98.684 1.66.799 3.862.375 5.377-1.177.872-.894 1.395-2.031 1.473-3.202.081-1.225-.329-2.342-1.155-3.142-.827-.801-1.958-1.179-3.186-1.064-1.172.111-2.298.664-3.17 1.557-1.84 1.885-1.983 4.731-.318 6.344zm8.471 3.034v-.001c-.928-1.895-3.31-2.52-5.312-1.393-2 1.129-2.875 3.588-1.95 5.483a3.408 3.408 0 001.504 1.544c1.108.576 2.534.567 3.808-.149 2-1.129 2.875-3.589 1.95-5.484z" opacity=".5" fill="#EFEFEF"/></svg>