<svg width="502" height="452" fill="none" xmlns="http://www.w3.org/2000/svg"><path fill-rule="evenodd" clip-rule="evenodd" d="M437.42 20.141c-1.253 4.854-3.374 8.279-5.796 12.973-4.775 9.263-12.48 15.515-20.976 21.185a80.712 80.712 0 00-4.464 3.198c-2.399 1.847-7.398 6.091-9.572 8.275-4.209 4.229-8.075 8.451-11.26 13.357-2.417 3.721-4.543 7.625-6.971 11.338-2.544 3.892-5.277 7.664-7.957 11.468-1.347 1.911-3.148 2.545-5.424 1.695.023-.214-.02-.496.07-.547 3.194-1.839 5.507-4.473 7.409-7.583 2.82-4.609 5.771-9.142 8.717-13.674 1.116-1.716 2.344-3.364 3.578-5 5.278-7.002 10.688-13.9 16.979-20.059 2.006-1.964 4.097-3.82 6.619-5.215 2.314-1.282 4.394-2.924 6.46-4.558 1.999-1.58 4.086-3.068 5.973-4.782 5.183-4.711 9.408-10.132 11.956-16.727 1.094-2.83 2.135-5.641 2.219-8.718.109-4.041-.648-7.884-2.818-11.767 2.221.993 3.511 2.267 4.352 4.14 1.61 3.586 1.911 7.103.906 11.001zm-77.147 80.816c-3.217-2.597-4.017-5.575-2.601-9.422 1.261-3.43 7.045-10.035 7.59-10.706 3.122-3.852 6.744-7.235 10.046-10.91 2.359-2.622 4.633-5.334 6.617-8.341 2.637-3.996 4.309-8.163 4.915-12.853a6.472 6.472 0 01.419-1.567c.627-1.559 1.311-1.776 2.701-.862.632.414 1.217.9 1.825 1.35.688.51 1.713.895 1.952 1.566.162.457-.811 1.29-1.199 2-.099.18.042.561.179.781.062.1.441.125.583.033 1.86-1.197 3.73-2.38 5.597-3.569 1.003-.551 1.987-1.206 2.933-1.89a159.655 159.655 0 005.507-3.715c2.08-1.476 3.786-3.525 5.533-5.433 6.62-7.228 10.747-15.642 11.677-25.518.247-2.623.108-5.201-1.222-7.593-.139-.249-.169-.559-.186-.874.567-.223 1.129-.387 1.753-.428.264-.016.517.002.77.023 2.796.533 4.327 2.91 5.325 5.713 1.18 3.31 1.255 8.483.605 11.483-1.141 5.289-3.674 9.879-6.745 14.29-3.359 4.829-8.032 8.124-12.482 11.698-2.523 2.026-5.076 4.059-7.828 5.737-4.154 2.534-7.209 6.152-10.327 9.746-7.322 8.44-13.722 17.532-19.282 27.244-1.665 2.905-3.623 5.668-5.7 8.29-1.249 1.578-2.901 2.883-4.536 4.084-1.444 1.064-2.922.849-4.419-.357zm27.867-68.752c.188.286.594.674.52.832-.152.322-.568.514-.876.758-.128-.22-.258-.44-.452-.768l.808-.822zm.587 5.707c.024.348-.346.722-.546 1.086-.316-.208-.836-.368-.898-.636-.074-.328.23-.744.462-1.36.456.398.962.638.982.91zM388.044 30c.268.209.756.416.76.626.004.37-.286.74-.572 1.374-.57-.495-1.09-.776-1.032-.933.14-.384.544-.714.844-1.067zm1.584-2c.228.114.61.195.65.346.124.48.12.99.182 1.654-.494-.268-.894-.375-.906-.514-.046-.49.04-.988.074-1.486zm2.865 9.474c.37-.064.766.028 1.17.064l-.192 1.01c-.376-.088-.776-.126-1.108-.298-.078-.04.036-.76.13-.776zM396 35.148c-.44.924-1.312 1.466-2.34 1.842-.137.05-.483-.095-.573-.228-.113-.166-.065-.414-.087-.628 1.362.462 1.521-1.707 3-.986zM396.017 19l.698.54-.708 1.46c-.256-.208-.764-.454-.72-.616.126-.48.47-.926.73-1.384zm1.183-5l.686.875L396.83 16c-.252-.262-.762-.676-.712-.758.286-.457.706-.836 1.082-1.242zm1.421 9.913c-.266.29-.544.596-.82.9-.15-.232-.474-.528-.416-.682.128-.352.444-.634.684-.944.162.212.324.424.552.726zm.376 3.58c-.188.457-.55.88-.98 1.507-.558-.384-1.067-.638-1.013-.711.349-.452.823-.863 1.256-1.289.261.168.784.381.737.494zm.548 4.354c-.115.038-.592-.656-.541-.924.058-.322.475-.69.785-.764.245-.06.564.298 1.211.69-.683.5-1.042.866-1.455.998zm1.807-21.841c.048-.047.658.198.648.229-.178.56-.412 1.11-.672 1.765L400 11.526c.443-.512.869-1.036 1.352-1.52zm-1.222 4.311c.262-.463.616-.883.94-1.317.28.221.84.578.8.642-.272.478-.664.895-1.04 1.358-.35-.334-.74-.609-.7-.683zm.42 5.683c-.17-.132-.446-.246-.494-.4-.246-.786.35-1.628 1.122-1.6.193.008.374.215.822.494L400.55 20zm1.267 3.993c-.193.075-.539-.472-.817-.738.29-.432.53-.957.893-1.24.133-.104.559.372 1.107.771-.529.572-.812 1.065-1.183 1.207zM403.902 7c.254.12.506.239 1.068.502-.444.529-.848 1.031-1.298 1.496-.026.029-.66-.316-.642-.355.252-.56.572-1.1.872-1.643zm.891 5.096c.008.28-.45.778-.732.798-.284.022-.824-.398-.852-.668-.032-.294.394-.638.734-1.12.376.412.842.696.85.99zm1.118 6.429c.289.749-.147 1.427-.96 1.474-.272.016-.745-.27-.837-.488-.335-.787.07-1.353 1.196-1.511.145.12.511.292.601.525zm2.257-15.1c.603-.3 1.296-.923 1.817.315.039.092-.007.316-.046.454-.334 1.177-.944.734-1.496.68-.365-.033-.733.018-1.443.044.575-.761.835-1.329 1.168-1.493zm1.663 4.453c-.355-.276-.601-.772-.83-1.224-.023-.046.401-.586.524-.54.429.166.816.484 1.475.908-.607.46-1.049.95-1.169.856zm2.126 4.162c.109-.142.455.124 1.043.318-.596.726-.956 1.244-1.373 1.617-.125.112-.413-.18-.627-.288.311-.562.593-1.177.957-1.647zm.519-6.036c.085-.05.345.393.524.606-.396.36-.792.721-1.524 1.39L411 7.1c.488-.378.962-.793 1.476-1.096zM412 20.725l.312-.725c.327.18.652.363.984.536.021.022.037.053.061.072.481.412 5.197 3.09 5.643 3.438-.135.212-.454.741-.588.954-1.493-.986-4.641-3.098-6.412-4.275zm1.753 3.973c-.903-.668-1.894-1.205-2.753-1.924.222-.415.408-.795.542-1.084.109-.232.219-.46.329-.69a146.628 146.628 0 016.663 3.916c.298.186.535.908.448 1.29-.132.594-.565 1.108-.95 1.794-1.494-1.158-2.87-2.256-4.279-3.302zM409 26.362c.25-.456.44-.913.554-1.362.531.165 1.117.315 1.597.638 1.944 1.312 3.832 2.717 5.726 4.112.112.085.164.455.085.583-.157.254-.42.442-.658.629-.065.051-.224.05-.3 0a516.587 516.587 0 01-7.004-4.6zm-2 2.249c.343-.493.736-1.038 1.116-1.611 2.177 1.316 4.352 2.638 6.476 4.057.286.192.514 1.079.357 1.384-.375.733-.854 2.064-1.806 1.36-2.139-1.582-4.143-3.388-6.143-5.19zm-.152-19.726c-.166-.406-.466-.792-.418-1.13.034-.246.522-.43.808-.64.124.384.33.77.338 1.156.004.168-.394.346-.728.614zM408.3 17l.7 1.39c-.307.144-.604.296-.932.423-.228.087-.507.126-.764.187-.105-.21-.383-.46-.283-.622.249-.394.674-.747 1.279-1.378zm-.355-1c-.314-.234-.9-.479-.886-.694.026-.444.372-.872.584-1.306l1.298.722-.996 1.278zm2.582 19.267a26.35 26.35 0 01-1.261-.64c-1.049-.76-2.096-1.523-3.149-2.277-.26-.184-.554-.31-.832-.468a1.17 1.17 0 01-.285-.235c.363-.546.727-1.095 1.088-1.647.048.028.087.03.138.068 2.204 1.674 4.419 3.329 6.774 5.1-.318.31-.624.574-.909.832-.52-.304-1.124-.525-1.564-.733zm-13.76 11.298c.165.084.235.497.233.755-.003.139-.232.322-.395.404-1.085.555-2.126.174-3.114-.282-1.355-.628-2.398-1.682-3.491-3.031a5.145 5.145 0 001.503-.411 127.09 127.09 0 015.264 2.565zm3.575-3.016c.221.122.368.417.658.766-.374.279-.7.72-.969.683-1.115-.16-2.278-.295-3.302-.768-.945-.435-1.753-1.267-2.586-1.978a.66.66 0 01-.143-.215c.398-.331.777-.683 1.137-1.037.283.038.561.1.812.224 1.481.732 2.941 1.524 4.393 2.325zm4.479-2.685c.081.037.119.144.179.219-.057.17-.057.424-.185.497-.336.187-.774.475-1.09.41-2.345-.484-4.609-1.183-6.507-2.573-.084-.063-.158-.186-.218-.317.466-.366.928-.732 1.393-1.1 2.169.902 4.295 1.892 6.428 2.864zm-.414-18.598c.222-.42.544-.786.828-1.168.13.218.404.48.356.646-.118.4-.384.754-.612 1.158-.246-.266-.612-.558-.572-.636zM404.393 33c.178.03.362.085.559.188.873.459 1.734.94 2.611 1.388a.33.33 0 01.022.012c1.063.632 2.25 1.462 3.415 2.005-1.289 1.667-1.299 1.722-3.141.845a53.872 53.872 0 01-4.166-2.212c-.235-.138-.524-.31-.693-.55.493-.537.957-1.098 1.393-1.676zM400 27.674c.182-.48.277-.988.593-1.423.124-.168.74-.172 1.132-.251.093.264.372.586.24.78-.3.441-.804.817-1.225 1.22-.246-.108-.492-.218-.74-.326zM402.269 36c1.975 1.295 4.1 2.21 6.321 2.921.147.047.24.285.41.498-.052.138-.097.299-.155.455-.133.158-.268.32-.405.458-.18.184-.377.342-.566.516-.457.215-.965.216-1.49-.088a100.691 100.691 0 01-5.195-3.208c-.076-.05-.138-.178-.189-.318.426-.407.853-.815 1.269-1.234zm11.502-18.557c1.969.966 3.913 1.994 5.834 3.063.246.138.467.756.373 1.022-.089.25-.708.556-.924.45-1.299-.632-5.29-2.636-7.054-3.449.242-.506.472-1.017.699-1.529.281.075.62.22 1.072.443zm1.595-2.33c.101-.094.196-.141.261-.095 1.045.752 5.925 3.944 6.373 4.128-.397 1.284-1.25 1.061-3.197-.275-1.278-.88-2.562-1.75-3.803-2.695.129-.352.247-.708.366-1.063zM416.513 12c1.962 1.136 3.935 2.247 5.86 3.456.333.21.648.869.626 1.3a24.04 24.04 0 01-.093 1.244c-.431-.196-5.361-3.297-6.906-4.215.183-.586.355-1.181.513-1.785zm5.674-7.218c.375.202.631.682.813 1.218-2.01-.78-4.224-1.664-6.382-2.007A4.273 4.273 0 00416 3c.954.184 4.342.788 6.187 1.782zM423 9c-.985-.365-2.603-.941-3.434-1.27a27.447 27.447 0 01-3.295-1.584A5.836 5.836 0 00416 5c1.119.394 2.258.944 3.237 1.363 1.209.519 2.416.906 3.547 1.532.108.577.163 1.04.216 1.105zm1 3.906c-.056.36-.13.723-.221 1.094-2.495-.588-4.866-1.718-6.68-3.214-.042-.035-.07-.074-.099-.111.049-.212.09-.425.13-.636a.332.332 0 01.317.003c1.074.6 6.159 2.646 6.553 2.864zM424 11c-1.357-.45-2.718-.894-4.006-1.455-.772-.336-1.556-.75-2.353-1.125-.218-.111-.427-.233-.641-.349A8.7 8.7 0 00417.012 7l.07.003c.681.42 1.412.789 2.138 1.143 1.212.592 2.58.99 3.715 1.69.379.234.693.546 1.043.772.017.13.017.261.022.392zm12.198-4.834c-1.703-2.345-5.012-4.628-5.923-5.098a9.819 9.819 0 00-3.71-1.033c-.614-.042-2.918-.23-4.948 1.001-1.248.752-2.554.187-3.855-.066-1.597-.313-3.193-.714-4.808-.826-1.147-.08-2.356.124-3.478.425-2.498.67-4.358 2.363-6.134 4.13-4.846 4.825-9.092 10.134-12.614 15.984-2.97 4.932-5.071 10.29-7.111 15.643-1.29 3.388-.215 5.703 2.91 7.611.172.106.282.305.516.565-1.391 1.57-1.873 3.522-2.121 5.577-.339 2.823-1.223 5.407-2.832 7.843-2.993 4.524-6.028 8.952-9.953 12.777-3.797 3.703-7.253 7.747-10.959 11.546-2.882 2.951-5.187 6.543-5.904 10.323-.247 1.306-.399 2.802-.137 4.13 1.026 5.183 4.582 7.779 9.513 9.056 2.742.711 4.729-.143 6.214-2.271a532.41 532.41 0 008.52-12.647c3.502-5.347 6.856-10.788 10.418-16.093 1.255-1.87 2.848-3.544 4.447-5.15 2.139-2.15 4.42-4.16 6.664-6.202 1.36-1.238 2.677-2.55 4.166-3.614 2.732-1.952 5.615-3.691 8.368-5.614 5.358-3.741 10.26-8.007 14.192-13.241 4.522-6.02 7.428-11.773 9.985-18.812.723-1.988 1.281-5.203 1.366-7.342a12.947 12.947 0 00-2.792-8.602zM27.159 142.211c.044.284-.01.774.178.908.21.152.75.113.951-.071.528-.483.97-1.073 1.405-1.652 1.585-2.108 2.965-4.385 5.015-6.102.758-.638 1.427-1.414 2.024-2.217.208-.28.074-.829.097-1.254-.392.071-.918-.001-1.158.234-2.742 2.682-5.25 5.586-7.568 8.663-.328.434-.588.922-.944 1.491zm10.974 10.34c.275.453.493 1.049.903 1.433.551.518.951.001 1.295-.443 2.944-3.803 6.737-7.615 9.042-10.853.346-.305.889-1.295.285-1.762-.25-.192-.974.105-1.395.342-.368.208-4.374 4.449-6.044 6.242-1.171 1.258-3.751 4.535-4.086 5.041zm-6.498-25.194c-1.197.985-2.384 2.003-3.416 3.142-1.99 2.203-3.889 4.484-5.792 6.758-.361.431-.662.955-.806 1.484-.072.264 1.086 1.064 1.27.934a7.684 7.684 0 001.282-1.159c1.48-1.643 2.933-3.307 4.407-4.957 1.6-1.795 3.228-3.568 4.79-5.392.206-.239-1.358-1.121-1.735-.81zm23.526 18.487c-.37.174-1.07.299-1.448.718-3.051 3.384-6.047 6.819-9.046 10.249-.246.282-.53.642-.55.98-.025.412.092.992.372 1.214.272.215.89.212 1.239.05.395-.185.672-.643.977-1.002 1.648-1.954 3.274-3.923 4.934-5.865 1.296-1.516 2.638-2.991 3.935-4.504.53-.616.442-1.432-.413-1.84zm-22.506 1.393c.249.405.476.989.902 1.369.192.172.89.064 1.163-.147.568-.438 1.016-1.022 1.49-1.563 1.428-1.62 2.837-3.259 4.27-4.875 1.196-1.349 2.44-2.659 3.617-4.026.517-.6.254-1.245-.346-1.6-.272-.16-.816.034-1.203.159-.242.08-.443.317-.628.514-2.742 2.877-5.484 5.752-8.205 8.648-.367.391-.62.882-1.06 1.521zm-17.087-14.754c.125.312.196.941.47 1.062.408.178 1.167.211 1.413-.062a72.906 72.906 0 003.91-4.756c1.52-2.001 2.811-4.195 4.752-5.82.471-.393.782-1.022 1.12-1.576.47-.764-.093-1.264-.499-1.735-.547-.635-.961-.044-1.359.302a5.988 5.988 0 00-.756.828c-2.84 3.616-5.673 7.235-8.502 10.858-.17.219-.294.479-.55.899zm45.827 18.841c-.28.225-.752.494-1.086.892-3.148 3.752-6.267 7.531-9.409 11.29-.455.543-.382.986.02 1.482.79.975 1.21.944 2.074-.11 2.048-2.498 4.111-4.98 6.165-7.474 1-1.213 2.032-2.401 2.97-3.667.582-.784.2-2.267-.734-2.413zm18.318 44.528c.508.134.705.256.86.215.413-.105.883-.199 1.176-.467.133-.123.013-.747-.185-.971a26.055 26.055 0 00-2.332-2.355c-4.561-4.005-9.186-7.934-13.707-11.982-7.264-6.504-14.46-13.086-21.696-19.625a1804.04 1804.04 0 00-11.293-10.128 4365.105 4365.105 0 00-15.696-13.868c-2.207-1.943-4.471-3.822-6.672-5.774-1.138-1.007-1.217-1.485-.326-2.549a170.234 170.234 0 015.111-5.785c1.92-2.089 3.905-4.12 5.836-6.199.12-.131-.587-.812-.735-.68a54.248 54.248 0 00-2.808 2.644c-3.405 3.464-7.16 6.613-9.502 11.019-.806 1.513-.905 1.922.13 3.069.552.614 1.203 1.14 1.827 1.686 2.352 2.049 4.72 4.079 7.064 6.136 4.079 3.581 8.142 7.18 12.22 10.761 2.557 2.246 5.176 4.419 7.681 6.723 5.745 5.281 11.432 10.623 17.154 15.931.874.811 1.823 1.542 2.7 2.352 3.306 3.059 6.533 6.207 9.912 9.183 3.451 3.037 7.032 5.928 10.59 8.84.92.753 1.97 1.341 2.69 1.824zm-26.075-45.864c-2.649 2.588-4.968 5.779-7.087 8.816-.81 1.163-.725 1.699.058 2.449.93.893 1.386.971 2.34.052a76.185 76.185 0 004.014-4.204c1.782-1.999 3.49-4.067 5.256-6.082.362-.411.81-.775 1.282-1.051.95-.554 1.956-.358 2.771.455.834.831 1.036 1.79.404 2.762a23.349 23.349 0 01-2.191 2.858c-2.346 2.62-4.756 5.179-7.106 7.794-1.447 1.607-1.394 2.259.221 3.682 3.524 3.101 7.058 6.192 10.591 9.282 5.074 4.438 10.106 8.926 15.254 13.276 1.534 1.296 4.627 3.995 4.851 5.026-.039 1.658-2.787 3.197-4.068 2.215-3.221-2.463-6.461-4.913-9.526-7.564-6.078-5.259-12.051-10.638-18.048-15.992-1.858-1.658-3.625-3.419-5.474-5.09-5.688-5.141-11.366-10.295-17.104-15.379-4.139-3.666-8.37-7.229-12.563-10.835-3.43-2.949-6.865-5.893-10.296-8.841-.21-.18-.41-.374-.6-.575-2.577-2.738-2.54-3.649-.241-6.601 3.309-4.25 7.143-7.994 10.924-11.79 1.75-1.758 3.44-1.925 5.18-.603.809.613.797 1.092.081 1.766-3.092 2.905-6.202 5.793-9.218 8.777-.972.962-1.686 2.19-2.506 3.305-.384.524-.34 1.021.158 1.47.274.247.528.517.783.784 1.165 1.224 1.284 1.313 2.348.052 2.262-2.679 4.39-5.471 6.605-8.19a77.54 77.54 0 013.27-3.744c.65-.701 1.456-.699 2.273-.22 2.358 1.385 2.561 3.045.679 5.18a1125.063 1125.063 0 00-8.744 10.032c-1.026 1.191-.975 1.515.041 2.559.863.886 1.131.878 1.933-.093 2.648-3.205 5.29-6.415 7.943-9.615.354-.426.73-.845 1.153-1.199 1.116-.93 2.387-.958 3.563-.131 1.114.782 1.258 1.766.336 2.814-1.705 1.94-3.47 3.825-5.164 5.776-1.515 1.747-2.954 3.559-4.452 5.32-.576.677-.691 1.259.04 1.902.727.639 1.365.457 1.926-.171 1.166-1.31 2.3-2.652 3.443-3.982 1.56-1.814 3.135-3.613 4.663-5.452 1.183-1.424 3.8-1.179 4.559.517.146.328.064.961-.17 1.219-.677.75-1.484 1.381-2.24 2.06-2.842 2.545-5.076 5.599-7.199 8.742-.584.865-.315 1.464.814 2.262.715.507 1.149.155 1.62-.4 2.628-3.097 5.252-6.198 7.935-9.246.66-.749 1.483-1.393 2.332-1.922 1.083-.674 1.63-.48 2.61.616 1.04 1.163 1.29 2.313.5 3.213-1.28 1.459-7.68 8.611-9.45 10.856-.536.681-.559 1.326.164 1.934.836.704 1.409.751 2.108-.113 2.077-2.555 4.325-4.543 6.384-6.909a69.686 69.686 0 013.397-3.642c.94-.935 2.567-1.172 3.56-.643 1.162.618 1.442 1.479.605 2.443-1.028 1.183-7.994 9.282-10.33 12.252-.11.141-.243.36-.207.505.122.492.204 1.051.501 1.429.455.58 1.009.264 1.4-.172 1.482-1.649 2.963-3.3 4.393-4.992 1.55-1.836 3.006-3.753 4.576-5.568 1.22-1.413 2.96-1.78 4.137-.309 1 1.25-.884 3.782-1.995 4.868zm331.316 188.111c-.441.522-.727.817-.978 1.181-.062.092-.002.394.003.598.281-.182.587-.3.836-.58.098-.11.075-.583.139-1.199zm80.805 46.363c-2.359.194-2.752 1.57-3.451 4.1l3.451-4.1zm-1.055-6.675c-4.92.314-4.92.314-4.707 3.668 1.626-1.268 3.167-2.466 4.707-3.668zm-3.417 7.626c-.129-.19-.431-.99-.694-.967-1.14.094-2.313.306-3.365.762-.264.114-.434 1.608-.127 1.928 1.476 1.534 3.616.782 4.186-1.723zm-111.843-7.959c1.451-.258 2.674.408 4.125.063.186-.044.689-1.647.682-2.009-.003-.233-.418-.524-.691-.554-1.198-.134-2.42-.135-3.617-.266-1.875-.21-3.262.387-2.871.951.536.768.591 2.082 2.372 1.815zm5.652 23.358c.278 1.825.605 3.599.806 5.401.143 1.276.002 2.999 1.348 3.079.576.034 1.531-1.765 2.037-2.866 2.665-5.783 2.294-6.292-4.191-5.614zm.052-27.648c1.27-.172 1.716-1.256 1.811-2.371.072-.872.127-2.003-.323-2.6-.851-1.133-3.984-1.236-5.17-.448-1.011.669-2.422 4.001-1.904 4.974.376.709 4.564.586 5.586.445zm57.606 43.698c.233.23.467.46.703.69 3.789-1.168 7.407-2.637 10.222-5.513.839-.859.719-1.444-.429-1.657-1.648-.303-3.314-.568-4.981-.683-.601-.041-1.517.216-1.784.642-1.337 2.117-2.506 4.338-3.731 6.521zm46.069-66.326c-1.47 3.877-2.46 6.741-3.636 9.526-1.591 3.768-1.297 4.282 2.81 4.235.279-.004.561.004.842.001 1.035-.012 1.589-.623 1.577-1.553-.04-3.049-.116-6.097-.304-9.14-.043-.722-.576-1.423-1.289-3.069zm-13.888 41.238c1.064-.676 1.945-1.103 2.673-1.727a100.872 100.872 0 004.989-4.564c.775-.762 2.08-1.954 1.914-2.538-.416-1.461-2.011-.643-3.126-.781-.478-.058-.946-.208-1.425-.244-2.069-.143-2.516.072-3.182 2.27-.689 2.275-1.136 4.622-1.843 7.584zm-82.211-140.461l-.125.718c2.767 1.605 5.488 3.289 8.306 4.793 6.045 3.225 12.129 6.374 18.223 9.505.616.314 1.415.282 2.129.41-.317-.677-.533-1.427-.975-2.011-.473-.625-1.082-1.223-1.761-1.612-7.564-4.353-15.528-7.899-23.506-11.407-.687-.302-1.524-.27-2.291-.396zm3.862 135.552c-2.795-.272-5.281-.597-7.786-.735-2.199-.118-2.382.038-2.52 2.255-.148 2.42-.161 4.855-.096 7.274.067 2.568.173 2.612 2.267 3.136 3.473.87 4.048.531 5.436-3.168.505-1.35 1.111-2.671 1.535-4.045.454-1.472.746-2.996 1.164-4.717zm82.874-39.287l-.012.082c2.086.388 4.162.875 6.262 1.133 1.702.206 2.473-.476 2.653-2.114.142-1.275-.045-2.393-.942-3.591-1.931-2.578-4.655-3.832-7.444-5.061-1.128-.496-2.068-.166-2.636.95-1.053 2.064-2.157 4.106-3.14 6.204-.367.785-.13 1.537.942 1.713 1.437.235 2.878.456 4.317.684zm-82.901 7.006c3.819.397 7.011.736 10.204 1.058 1.03.104 1.767-.337 2.145-1.305 1.366-3.496 2.76-6.982 4.045-10.508.173-.476-.033-1.467-.382-1.669-.592-.344-1.479-.432-2.165-.283-.576.126-1.075.706-1.557 1.14-2.599 2.346-5.207 4.687-7.769 7.074-1.391 1.293-2.699 2.674-4.521 4.493zm93.752 14.269c.142-2.794-.072-2.99-2.627-3.272-4.008-.439-4.479-.129-5.637 3.714-.498 1.656-.961 3.324-1.498 4.966-1.85 5.68-1.86 5.677 3.867 5.639 2.954-.019 3.619-.464 4.569-3.201.26-.751 1.231-5.995 1.326-7.846zm-59.567 49.581c2.011.13 4.63.295 7.246.471 1.237.082 2.109-.409 2.699-1.579 1.087-2.157 2.28-4.265 3.352-6.429.963-1.939.909-2.254-.974-2.592-3.245-.582-6.544-.87-9.803-1.385-1.818-.288-2.891.488-3.612 2.125-.911 2.071-1.9 4.112-2.809 6.188-.795 1.812-.646 2.079 1.281 2.594.665.178 1.343.314 2.62.607zm-13.238-77.816c4.479.905 8.96 1.318 13.462 1.687 5.622.458 5.617.53 7.488-5.068.217-.651.44-1.304.601-1.968.482-1.987.204-2.368-1.965-2.279-5.622.235-11.144.91-16.461 3.226-2.055.896-3.022 2.022-3.125 4.402zm44.513 4.75c1.037.195 2.068.472 3.11.564 2.204.199 4.415.3 6.62.44 1.021-2.162 2.041-4.329 3.058-6.494a1.9 1.9 0 00.125-.358c.362-1.481.034-2.154-1.612-2.453-2.196-.399-4.431-.598-6.653-.828-6.098-.629-4.916-1.217-7.524 4.04-1.955 3.944-2.463 4.254 2.876 5.089zm6.959 52.808c-5.288-1.39-10.045-1.301-14.74-1.741-1.298-.121-2.015.719-2.494 1.739-1.097 2.342-2.129 4.715-3.172 7.082-.495 1.125-.099 1.884 1.078 2.094 2.263.406 4.533.796 6.819 1.045.577.062 1.294-.326 1.814-.697 3.745-2.665 7.114-5.756 10.695-9.522zm-72.442-12.313c1.209.175 2.084-.192 2.543-1.346a1012.02 1012.02 0 003.348-8.5c.336-.864.215-1.648-.853-1.762-3.664-.38-7.332-.782-11.008-.99-1.698-.096-2.651.962-2.756 2.693-.127 2.112-.211 4.23-.178 6.345.03 1.987.258 2.164 2.235 2.558.518.104 4.969.757 6.669 1.002zm43.973-43.323c4.278.383 8.213.723 12.144 1.099 1.044.099 1.928-.114 2.441-1.162 1.069-2.181 2.192-4.345 3.112-6.591.624-1.519.242-2.09-1.313-2.3-4.043-.544-8.101-1.004-12.148-1.524-1.596-.202-2.613.553-3.278 2.027-.765 1.696-1.602 3.362-2.323 5.077-1.033 2.449-.717 3.033 1.365 3.374zm-20.55 73.311c2.583.565 2.849.516 4.117-1.577a43.317 43.317 0 002.571-4.968c.969-2.196.772-2.642-1.633-3.13-3.488-.705-7.014-1.213-10.523-1.805-1.341-.227-2.316.239-2.861 1.389-.851 1.804-1.703 3.608-2.478 5.443-.696 1.647-.545 1.988 1.137 2.472 1.652.475 8.122 1.838 9.67 2.176zm12.007-9.701c4.645.539 8.559.963 12.462 1.461 1.486.188 2.26-.734 2.799-1.863 1.177-2.473 2.265-4.99 3.324-7.515.387-.918.002-1.708-.932-1.835-3.66-.494-7.329-.908-10.999-1.326-1.55-.176-2.542.713-3.108 2.089-1.136 2.758-2.195 5.549-3.546 8.989zm-21.668-2.122a116.191 116.191 0 00-14.516-2.446c-1.84-.193-2.466 1.152-3.018 2.471-.635 1.519-1.177 3.075-1.814 4.589-.402.958.022 1.52.912 1.711 4.137.883 8.278 1.749 12.435 2.515.679.123 1.846-.057 2.112-.493 1.56-2.562 3.402-5.031 3.889-8.347zm10.532-.495c-.165-.049.331.18.848.238 2.749.309 5.501.576 8.254.859 2.144-1.915 2.454-4.786 3.667-7.188.245-.484.407-1.017.554-1.542.493-1.748.258-2.3-1.449-2.55-2.498-.362-5.024-.555-7.541-.794-1.709-.162-3.824-.975-5.025-.235-1.379.847-1.999 3.062-2.86 4.731-2.699 5.235-2.683 5.245 3.552 6.481zm-20.379-3.433l-.008.051c2.917.337 5.838.668 8.754 1.014 1.455.172 2.523-.424 3.157-1.92.931-2.187 1.96-4.341 2.764-6.576.839-2.329.418-2.942-1.857-3.28-3.795-.563-7.608-1.044-11.384-1.703-1.462-.254-2.478-.116-3.118 1.586-.691 1.833-1.599 3.578-2.281 5.41-1.666 4.474-1.636 4.486 2.834 5.237.38.062.759.121 1.139.181zm82.168-49.17c-2.779-.383-5.582-.653-8.328-1.197-1.631-.322-2.583.165-3.196 1.63-1.208 2.878-2.475 5.736-3.588 8.65-.691 1.802-.304 2.343 1.742 2.635 3.05.433 6.102.968 9.172 1.091 3.272.133 3.926 1.219 5.483-3.076.554-1.529 1.433-2.963 1.816-4.524 1.148-4.682 1.368-4.557-3.101-5.209zm-21.723-2.359c-4.028-.505-4.872-.47-5.953 2.076-.879 2.072-1.912 4.078-2.803 6.145-.363.848-.526 1.782-.784 2.675-.37 1.27.028 2.124 1.396 2.283 3.44.402 6.882.819 10.334 1.079 1.275.096 2.165-.636 2.689-1.953 1.227-3.085 2.619-6.104 3.936-9.154.685-1.59.382-2.168-1.272-2.355-2.759-.31-5.523-.583-7.543-.796zm-56.443 8.255c-1.035-.237-2.056-.586-3.109-.684-4.743-.436-7.492 1.538-9.097 6.476-.61 1.884-1.218 3.774-1.709 5.689-.762 2.97-.38 3.645 2.285 3.819 2.79.181 5.607.089 8.393.287 1.301.092 1.991-.35 2.463-1.604 1.095-2.917 2.195-5.834 3.404-8.703 1.971-4.672 2.009-4.655-2.63-5.28zm42.687 20.168c2.246.231 5.327.602 8.42.838 1.222.094 2.557-.061 3.115-1.487a672.363 672.363 0 004.449-11.763c.4-1.081.163-2.018-1.11-2.126-3.492-.293-6.994-.492-10.491-.751-1.574-.118-2.51.568-3.102 2.11-.85 2.206-1.885 4.341-2.832 6.511-.56 1.28-1.176 2.543-1.635 3.859-.568 1.629-.199 2.161 1.551 2.563.261.061.534.083 1.635.246zm-3.477 15.963c2.374.347 4.24.564 6.082.913 1.414.267 2.37-.202 2.916-1.613 1.429-3.686 2.907-7.354 4.254-11.071.716-1.97.316-2.7-1.575-2.885a223.824 223.824 0 00-10.838-.767c-.574-.027-1.543.372-1.74.834a347.838 347.838 0 00-5.062 12.557c-.391 1.029.361 1.521 1.278 1.611 1.733.17 3.469.313 4.685.421zm-20.9-3.336c3.792.462 7.775.926 11.752 1.445 1.314.171 2.023-.482 2.443-1.547 1.303-3.305 2.574-6.624 3.85-9.939.419-1.09.061-1.898-1.129-2.013-4.118-.402-8.243-.732-12.37-1.052-1.184-.09-2.056.435-2.496 1.563-1.2 3.065-2.471 6.104-3.575 9.2-.499 1.4-.052 1.962 1.525 2.343zm3.969-18.78c-1.279 4.252-1.053 4.605 2.036 4.87 3.275.28 6.554.523 9.816.909 1.583.187 2.568-.481 3.156-1.919 1.47-3.596 2.93-7.198 4.312-10.83.514-1.348.048-2.196-1.312-2.323-3.93-.364-7.883-.512-11.802-.946-1.823-.203-2.762.623-3.347 2.218-1.098 3.002-2.147 6.023-2.859 8.021zm5.995-12.668c3.589.452 6.253.902 8.941 1.093 1.994.14 4.292.54 5.94-.301 1.243-.638 1.713-3.041 2.451-4.692a163.249 163.249 0 002.614-6.24c.256-.643.458-1.372.427-2.042-.02-.421-.473-1.116-.811-1.161-4.275-.564-8.557-1.095-12.853-1.491-1.485-.138-2.553.809-3.157 2.253-1.414 3.38-2.884 6.737-4.223 10.144-.601 1.525-.053 2.282.671 2.437zm-24.768 30.66c1.61.233 4.187.561 6.748.994 1.619.276 2.593-.315 3.173-1.732 1.148-2.82 2.383-5.608 3.471-8.451.742-1.945.477-2.485-1.5-2.74-4.879-.632-9.778-1.107-14.666-1.669-1.093-.128-1.897.208-2.303 1.18-1.167 2.807-2.331 5.612-3.415 8.45-.501 1.309.331 2.006 1.544 2.312 1.993.503 3.996.956 6.948 1.656zm50.029 6.717c3.634.357 7.48.664 11.3 1.141 1.627.204 2.545-.385 3.058-1.971 1.127-3.489 2.312-6.957 3.398-10.457.606-1.959.291-2.496-1.746-2.693-3.967-.384-7.957-.593-11.93-.945-1.373-.125-2.336.26-2.892 1.68-1.432 3.666-2.919 7.311-4.317 10.991-.34.898.012 1.671.961 1.911.64.164 1.309.212 2.168.343zm16.762-15.893c1.225.051 2.045-.345 2.448-1.59 1.3-4.018 2.656-8.017 3.883-12.057.11-.361-.508-1.329-.886-1.386-3.932-.588-7.889-1.02-11.83-1.552-1.765-.236-2.721.568-3.32 2.203-1.22 3.323-2.588 6.593-3.779 9.925-.92 2.571-.619 2.999 1.993 3.587.387.088 8.05.727 11.491.87zm-64.179-23.36c5.969.656 11.556 1.33 17.16 1.824.772.068 2.06-.541 2.372-1.195 1.799-3.748 3.374-7.605 5.02-11.425.055-.125.039-.277.069-.412.206-1.017-.282-1.733-1.193-1.831-5.324-.57-10.652-1.109-15.992-1.532-1.726-.138-2.612.928-3.181 2.645-1.006 3.032-2.372 5.941-3.533 8.923-.298.765-.395 1.609-.722 3.003zm-1.316 16.074l-.011.125c4.369.416 8.742.811 13.108 1.259 1.437.149 2.398-.328 2.869-1.667 1.246-3.552 2.533-7.089 3.707-10.661.593-1.804.331-2.164-1.527-2.411a584.503 584.503 0 00-11.865-1.455c-1.087-.121-2.225-.188-3.282.008-.675.124-1.556.636-1.808 1.21-1.511 3.431-2.909 6.913-4.257 10.412-.783 2.033-.416 2.541 1.84 2.997.405.082.818.123 1.226.183zm8.629-95.576c.842-2.122 1.746-4.26 2.534-6.436.428-1.184.025-2.076-1.159-2.691-2.525-1.316-4.982-2.766-7.491-4.114-5.484-2.944-10.968-5.889-16.48-8.781-3.375-1.77-6.761-3.535-10.227-5.114-1.169-.533-2.603-.71-3.908-.67-3.819.118-6.523 2.303-9.227 5.552 15.817 6.672 30.737 14.402 45.958 22.254zm-179.802 13.954c.059 1.929.237 3.004.095 4.04-.139 3.305.718 4.812 2.318 6.731.949 1.139 1.931 2.292 3.077 3.211 5.898 4.738 28.91 16.979 33.834 19.45 3.003 1.51 18.718 10.7 24.163 13.897 8.683 5.099 18.514 10.507 27.258 15.492 7.115 4.057 14.469 7.697 21.778 11.397 5.996 3.035 12.077 5.901 18.138 8.799.839.401 1.777.617 2.692.824.8.178 1.706.222 1.987-.82.26-.963-.376-1.51-1.191-1.832-.376-.146-.786-.209-1.15-.377-7.061-3.293-14.185-6.46-21.152-9.943-4.677-2.34-9.124-5.146-13.691-7.708-2.81-1.576-27.352-15.988-36.763-21.716-5.163-3.143-10.503-5.99-15.739-9.012a1486.084 1486.084 0 01-13.889-8.147c-4.616-2.737-9.259-5.434-13.809-8.28-6.62-4.141-13.007-8.592-17.956-16.006zm1.733-7.379c-.155.657-.243 1.337-.473 1.967-1.107 3.028-.41 5.508 1.742 7.872 3.488 3.826 7.165 7.422 11.436 10.324 3.906 2.652 7.877 5.22 11.932 7.633 8.707 5.18 17.477 10.254 26.242 15.34 5.839 3.387 11.744 6.663 17.56 10.09 5.702 3.36 11.329 6.85 16.989 10.283 1.501.911 2.979 1.863 4.501 2.739a3661.64 3661.64 0 0017.237 9.831c2.112 1.195 4.227 2.392 6.402 3.463 2.301 1.133 4.666 2.135 7.02 3.157 4.216 1.83 8.424 3.673 12.676 5.416 1.044.429 2.333 1.177 3.351.136.766-.783.133-3.018-1.256-3.58-.37-.152-9.301-2.799-12.531-4.409-8.609-3.85-14.088-7.462-21.008-11.417-4.329-2.476-8.394-5.414-12.699-7.938-9.906-5.814-40.785-25.235-46.659-28.553-8.113-4.583-16.114-9.335-23.798-14.609-2.669-1.831-5.114-3.988-7.752-5.868-4.422-3.151-8.652-6.433-10.912-11.877zm171.872 137.184c2.525.421 5.049.862 7.579 1.258a4265.383 4265.383 0 0020.069 3.117c6.485.988 9.941-.571 16.485-6.133 2.662-2.261 4.951-4.456 7.664-6.659 8.059-6.546 16.227-12.958 24.333-19.448.682-.544 1.224-1.264 1.882-1.955-.76-.61-1.249-1.078-1.809-1.436-2.846-1.833-3.103-1.817-5.625.334-2.456 2.093-12.777 11.099-15.635 13.316-4.026 3.125-15.891 13.22-18.12 14.57-4.141 2.51-8.863 3.182-13.712 2.331-2.784-.486-39.729-6.944-42.632-7.59-1.945-.433-3.829-1.153-5.717-1.81-1.054-.424-2.111-5.801-2.166-8.292-.131-5.912-.09-11.842.235-17.743.312-5.641.774-5.649-5.534-5.854-.405-.012-2.827.408-3.019 1.579-1.111 6.802-1.114 13.647-.633 20.488.138 1.955 1.209 7.984 2.188 8.525 8.396 5.19 34.233 11.276 34.167 11.402zm-1.989-93.824c2.116-.126 4.236-.39 6.347-.34 2.532.06 5.055.552 7.585.565 7.65.037 15.303-.129 22.955-.08 2.396.017 4.788.462 7.181.711-.726.232-1.452.659-2.182.664-8.468.07-16.944.241-25.407.037-5.345-.131-9.962 1.565-14.23 4.512-1.538 1.062-2.819 2.491-4.24 3.731-3.358 2.925-6.853 5.702-10.064 8.781-4.572 4.386-8.921 9-13.397 13.487-1.63 1.634-2.265 3.766-3.436 5.641 1.865.433 3.409.746 4.924 1.159 1.386.379 2.338.069 2.893-1.355 1.975-5.086 5.897-8.699 9.588-12.438 3.513-3.556 7.26-6.877 10.873-10.334 2.339-2.241 4.493-4.697 6.97-6.767 2.482-2.074 3.697-2.138 6.169-2.854 2.811-.393 11.179-.273 14.927-.484 4.868-.276 9.668.153 14.48.85 4.514.654 9.071 1.007 13.613 1.469 5.446.554 10.961.922 16.072 3.035 5.101 2.106 9.609 4.885 9.093 11.587-.071.918.304 1.862.403 2.8.242 2.282.576 4.562.631 6.847.112 4.725.043 9.454.1 14.178.012 1.021.235 2.041.366 3.09 3.198-1.009 3.507-1.348 3.57-4.064.073-3.105.195-6.214.122-9.317-.072-3.103-.328-6.203-.586-9.298-.031-.378-.657-1.059-.841-1.005-.607.172-1.169.816-1.332-.416-.248-1.869-.577-3.726-.79-5.6-1.019-8.943-5.861-13.962-14.616-15.098-.265-.036-.538-.024-.806-.045-6.174-.452-12.349-.861-18.515-1.389-1.544-.132-3.3.147-4.464-1.356.385-.108.77-.319 1.151-.31 8.481.197 16.934.727 25.338 1.97 5.404.798 9.77 2.872 11.808 8.386.469 1.267 1.015 2.544 2.324 3.333-.896-7.973-2.114-15.802-3.334-23.633-.506-3.254-2.958-5.267-5.187-7.077-4.163-3.376-8.7-6.303-13.15-9.314-3.784-2.562-33.015-21.036-36.702-23.156-.612 1.451-1.738 4.529-2.85 6.781-.897 1.819-1.105 2.503.184 3.742.565.54.892 1.335 1.313 2.025 1.078 1.769 1.034 2.712-.823 3.49-3.46 1.45-7.017 2.723-10.633 3.703-1.273.344-2.932-.142-4.24-.679-2.356-.965-4.574-2.268-6.863-3.402-8.314-4.126-16.569-8.375-24.964-12.323-13.652-6.416-26.319-13.412-39.167-22.343-1.24-1.007-2.548-2.037-3.464-3.317-1.513-2.112-1.112-4.246.387-6.339 1.843-2.571 5.623-5.186 7.262-4.799 1.653.439 3.306.874 4.959 1.321.52.14 1.038.453 1.547.429.907-.048 1.995-.025 2.67-.508 1.61-1.152 3.021-2.581 4.841-4.19-2.114-1.141-3.858-2.08-5.6-3.026-3.724-2.025-7.684-3.195-11.937-3.408-5.639-.285-11.271-.741-16.915-.912-6.442-.194-12.893-.204-19.342-.199-4.428.004-8.862.089-13.288.288-6.039.271-12.078.607-18.104 1.072-2.371.182-3.327 1.903-2.346 4.029.549 1.191 1.358 2.364 2.331 3.228 1.396 1.238 3.031 2.216 4.594 3.256 2.239 1.492 4.51 2.934 6.749 4.428.162.109.169.458.343.982-3.373-.759-5.756-2.994-8.524-4.487-2.834-1.53-5.536-3.156-7.644-6.035-1.52 1.464-2.891 2.57-4.003 3.894-2.951 3.509-5.784 7.117-8.674 10.678-3.742 4.614-7.51 9.211-11.24 13.836-2.541 3.152-5.035 6.34-7.551 9.509-1.898 2.389-2.261 4.913-.459 7.471 1.077 1.528 2.227 3.044 3.563 4.34 3.679 3.567 7.986 6.323 12.07 9.379 6.4 4.78 13.37 8.537 20.135 12.669 7.229 4.417 14.632 8.556 21.789 13.089 7.388 4.681 33.532 20.704 39.12 24.194 4.902 3.067 9.979 5.867 15.082 8.589 5.245 2.799 10.81 4.813 16.569 6.338 3.293.871 5.491.095 7.544-2.836 2.942-4.198 6.172-8.273 9.781-11.896 5.914-5.937 12.213-11.486 18.396-17.149 1.331-1.22 2.857-2.231 4.102-3.189-.463-1.805-2.82-.993-2.832-2.872l-.072.046zm-167.278 4.486c-.738-.104-1.479.036-1.315.92.648 3.485 1.354 6.921 2.926 10.209 1.675 3.505 3.421 5.769 6.676 8.267 5.757 3.676 26.575 16.53 36.247 22.405 6.329 3.844 12.695 7.633 18.924 11.628 5.471 3.513 11.317 6.267 17.164 9.043 4.379 2.08 8.741 4.196 13.142 6.232 5.988 2.772 11.926 5.676 18.035 8.155 4.353 1.763 8.922 3.025 13.449 4.327 8.166 2.345 24.59 4.34 24.374 4.282-4.936-1.354-11.506-3.152-15.435-5.723-2.265-1.452-3.281-2.895-3.367-5.155-.099-2.533-.593-5.066-.542-7.587.126-6.125.443-12.249.741-18.368.111-2.271.105-2.309-2.115-3.134-2.524-.936-5.087-1.815-7.503-2.988-5.57-2.703-11.065-5.56-16.584-8.367-15.371-7.821-34.036-17.819-50.766-27.223-10.829-6.145-51.513-28.628-56.245-30.557 2.436 1.693 4.873 3.383 7.311 5.075l-.301.479-8.458-4.214c2.319 3.208 2.398 3.175 4.648 4.664 1.414.935 2.669 2.108 3.996 3.175l.194.458c-1.315-.624-2.759-1.725-4.04-2.409-1.165-.621-2.263-1.371-3.414-2.021-.184-.105-.691-.033-.716.055-.094.322-.198.847-.026 1.003.678.616 1.447 1.138 2.206 1.659 1.046.719 2.592.791 3.025 2.306l.082-.061-5.581-2.197c.005 1.929.075 3.376-.002 4.813-.163 3.075.307 5.785 3.657 7.099.159.06.19.444.279.677l.07-.049c-.514-.151-1.019-.38-1.542-.434-.482-.052-.985.083-1.479.135.087.485.027 1.077.29 1.437.545.747 1.259 1.37 1.905 2.043l.09-.059zm171.598-52.101c.121-.49.483-1.302.328-1.423-1.493-1.139-2.98-2.352-4.647-3.182-5.878-2.925-11.85-5.664-17.739-8.574-1.346-.665-2.261-.325-3.289.617.648.419 1.238.802 2.29 1.481-1.86.234-3.267.121-4.43.614-2.751 1.161-4.376-.258-6.015-2.062.929-.461 2.074-1.444 2.523-1.186 2.373 1.35 3.678-.553 6.046-1.457-6.119-2.702-11.622-5.148-17.146-7.546-.424-.185-1.184-.253-1.441-.008-.318.307-.531 1.178-.326 1.48.307.448.992.759 1.565.867.7.127 1.452-.019 2.181-.044-2.478.863-4.995 1.099-7.511 1.311-.395.032-.945.122-1.171-.088-2.004-1.875-4.169-2.051-6.589-.855-.167.083-1.033-.82-1-.87 1.446-2.14-.946-1.365-1.452-1.991l.043.092c-.131-.546.749-1.406-.39-1.618-.896-.165-1.828-.135-2.829-.196.447-.769 1.105-1.405 1.099-2.032-.002-.603-.69-1.196-1.082-1.805 1.178-.619 2.189-1.03 3.064-1.639 1.009-.703.854-1.666-.268-2.127-3.468-1.426-6.268.225-8.82 2.281-2.777 2.238-2.742 4.403-.008 6.765 1.42 1.232 3.112 2.141 4.567 3.334 8 5.122 34.862 19.625 42.769 23.388 3.648 1.74 7.324 3.421 10.921 5.259 3.954 2.022 7.769 4.33 11.77 6.248 1.89.905 4.198 1.94 6.094 1.598 3.116-.559 6.073-2.132 9.047-3.404.903-.385.825-1.31.336-2.106-.623-1.021-1.387-1.553-2.685-1.143-4.969 1.561-9.596-.428-14.29-1.462-2.277-.502-2.505-1.592-1.271-3.691.304-.52.584-1.345.379-1.793-.18-.387-1.097-.676-1.629-.593-1.248.194-2.173.146-2.297-1.399l-.051.085 1.639-.381c.584.214 1.159.559 1.752.592.385.017.795-.426 1.196-.663-.411-.223-.822-.449-1.233-.674zm-44.63-27.19l.063.091c3.237-2.625 7.113-3.727 11.142-4.122 8.23-.801 15.713 1.96 22.952 5.45 3.64 1.757 7.163 3.765 10.702 5.726 2.478 1.371 4.958 2.764 7.325 4.314 1.654 1.082 2.591 2.489 2.014 4.777-.344 1.364-.353 2.734-1.078 4.092-1.507 2.819-2.671 5.82-4.007 8.733-1.09 2.381-.847 3.281 1.499 4.56a18.754 18.754 0 003.344 1.441c3.884 1.216 6.632-.04 8.118-3.777 1.088-2.734 2.192-5.485 2.956-8.322 1.574-5.841.277-9.485-3.894-12.429-4.276-3.017-8.604-6.059-13.241-8.454-7.425-3.837-15.056-7.3-22.721-10.642-7.851-3.421-15.964-3.831-24.132-1.138-.752.249-1.481.637-2.138 1.081-1.653 1.117-3.323 2.224-4.867 3.479a77.198 77.198 0 00-5.359 4.819c-.383.376-.581 1.29-.408 1.809.543 1.634 7.383 4.063 9.042 3.322 1.022-.459 3.761-3.146 4.655-4.573l-1.967-.237zm37.557 168.894c-9.047-.943-37.455-5.726-42.673-7.2-2.255-.57-4.11-1.467-5.848-2.18-14.166-5.831-27.963-12.479-41.683-19.268-6.054-2.994-11.864-6.5-17.672-9.965-9.998-5.967-19.919-12.067-29.854-18.141-6.356-3.886-24.966-14.223-25.636-16.76-1.399-5.343-4.121-11.987-4.737-17.559-.505-4.56-1.206-9.102-1.673-13.667a901.043 901.043 0 01-1.748-19.347c-.348-4.341-.058-8.69 1.315-12.817.661-1.985 1.756-4.133 3.302-5.459 4.043-3.472 7.098-7.769 10.484-11.762 6.2-7.315 12.025-14.948 18.012-22.443.844-1.056 1.769-2.049 2.57-3.135.948-1.285 1.882-2.59 2.677-3.97 1.504-2.611 3.375-4.325 6.699-4.363 4.452-.051 8.897-.699 13.348-.764 13.657-.202 27.321-.438 40.976-.27 6.203.077 12.422.884 18.58 1.744 2.616.366 5.129 1.632 7.63 2.637 1.877.755 3.693 1.685 5.473 2.652 1.29.701 2.53.725 3.908.371 2.226-.571 4.47-1.092 6.73-1.518 6.378-1.207 12.308.621 18.203 2.745 8.55 3.082 16.624 7.215 24.648 11.404 4.295 2.243 12.897 8.406 13.22 8.65 3.359 2.515 4.365 6.031 4.303 10.003-.029 1.846-.636 3.965.078 5.458.654 1.368 27.716 17.653 33.032 21.131 5.887 3.852 11.799 7.668 17.788 11.356 1.997 1.23 4.172 3.857 4.843 6.035 1.076 3.5 3.906 27.484 4.094 33.311.239 7.417.752 14.826 1.095 22.242.061 1.344-.185 2.698-.182 4.048.004 1.069-.204 2.413.341 3.151 1.473 1.988.768 3.858.175 5.761-.48 1.54-1.115 3.035-1.768 4.513-.204.46-.616.956-1.061 1.163-5.11 2.386-8.744 6.724-13.224 9.951-5.913 4.259-11.535 8.936-17.163 13.576-3.333 2.748-12.315 10.969-13.778 11.925-3.393 2.213-7.072 3.277-11.195 2.529-4.662-.843-9.357-1.504-14.018-2.347-2.396-.432-15.436-2.985-19.611-3.421z" fill="#CDCCCE"/></svg>