<svg width="212" height="258" fill="none" xmlns="http://www.w3.org/2000/svg"><path fill-rule="evenodd" clip-rule="evenodd" d="M208.377 74c-1.336.723.511 2.186-.063 3.027-.567.825-1.763 1.153-2.405 1.95-.308.381.053 1.341.062 2.038.011 1.04-.422 1.61-1.479 1.387-1.582-.334-3.155-.71-4.741-1.012-1.947-.371-3.634.075-5.228 1.47-2.595 2.272-5.105 4.545-6.766 7.754-1.864 3.6-4.007 7.037-5.89 10.628-3.39 6.464-4.497 13.613-5.083 20.835-.619 7.631-1.062 15.279-1.411 22.928-.466 10.254-1.629 20.43-4.948 30.079-3.324 9.664-11.115 21.668-17.64 29.316-2.277 2.667-4.752 4.966-8.848 6.3.514-1.865.717-3.096 1.183-4.201 2.083-4.924 2.505-10.101 2.248-15.394-.062-1.278-.045-2.564-.182-3.829-.24-2.209.468-3.905 1.462-5.974 2.138-4.449 2.812-7.318 4.06-11.044a52.707 52.707 0 001.645-6.109c.651-3.178 1.426-6.371 1.655-9.597.437-6.21.796-12.452.693-18.672-.122-7.484-.905-14.954-1.113-22.438-.096-3.513.446-7.051.762-10.571.613-6.833 3.01-13.09 5.366-19.412 2.305-6.192 5.854-11.424 9.942-16.313 3.521-4.21 7.553-7.603 13.148-8.303 6.756-.847 13.049.182 18.697 4.444 2.483 1.875 4.054 4.518 5.509 7.242.664 1.246 1.222 2.464-.635 3.47zm-78.605 153.534c2.406.26 2.524.362 3.831-1.353 1.032-1.353 2.004-1.514 3.489-.984 4.409 1.576 8.274 4.089 11.652 7.405.942.922 1.725 2.204 2.162 3.482.509 1.488.363 3.093-.914 4.307-.698.667-1.554.546-1.89-.361-.394-1.057-.522-2.291-1.122-3.178a12.746 12.746 0 00-2.307-2.55c-.336-.286-1.348-.905-1.753-.484-.691.716 1.284 2.298 1.648 2.762 1.143 1.466 1.86 3.129 1.834 5.063-.017 1.288-.903 2.456-1.913 2.242-1.218-.26-1.511-1.539-1.854-2.609-.447-1.389-1.01-2.557-2.016-3.615-.289-.303-.618-.595-1.018-.688-1.496-.353-.987 1.228-.398 1.867 1.174 1.269 1.585 3.099 1.949 4.831.114.547.231 1.117.114 1.665-.278 1.309-1.3 1.043-2.209.73a2709.817 2709.817 0 01-11.54-4.006c-3.423-1.195-7.37-3.248-10.978-3.546a9.706 9.706 0 00-.76-1.087c-3.473-4.224-5.413-9.111-4.976-14.795.259-3.383.497-6.81 1.214-10.103a271.645 271.645 0 014.479-17.656c2.07-7.151 2.372-14.516 2.793-21.869.249-4.373.199-8.763.274-13.146.005-.419-.004-.863-.126-1.254-.064-.203-.387-.415-.601-.427-.2-.012-.58.222-.595.377-.159 1.824-.377 3.655-.364 5.482.068 8.524-.17 17.035-1.957 25.375-1.307 6.083-3.127 12.043-4.443 18.126-1.074 4.97-1.86 10.02-2.542 15.067-.484 3.587.194 7.04 1.969 10.234 1.192 2.143 3.135 4.936 3.647 7.273-.735-.644-1.417-1.355-2.199-1.944-.462-.347-1.433-.256-1.476.472-.02.322.124.629.289.903.402.665.946 1.218 1.384 1.857.439.639.773 1.419.658 2.198-.118.804-.752 1.491-1.509 1.637-.122.022-.255.032-.364-.029-.112-.06-.18-.183-.238-.298-.233-.48-1.853-6.948-2.99-4.228-.406.966.614 2.825.893 3.724-1.802.901-3.33.619-4.801-.276-1.511-.918-3.041-1.809-4.497-2.817-8.345-5.77-7.133-6.153-8.83-14.103a5.508 5.508 0 01-.107-.843c-.585-9.474-1.293-18.944-1.717-28.426-.531-11.89-1.327-23.731-4.154-35.31-.11-.453-.508-.828-.993-1.582-.628 2.339.072 4.091.334 5.861.853 5.744 2.718 27.452 3.285 32.503.903 8.044 1.378 27.859 1.564 29.69.193 1.924.602 3.71 1.233 5.355-.978.387-2.121.254-3.155.313-.838.052-1.656.092-2.484.113-.784-.015-1.634.046-2.725.161a76.543 76.543 0 01-7.628.399c-2.292.008-2.5-.351-2.213-2.811.492-4.205 1.168-8.391 1.464-12.609.507-7.22.734-22.625 1.36-28.071.76-6.601 1.784-13.172 2.413-19.785.36-3.788.163-7.633.167-11.454 0-.298-.407-.597-.625-.895-.272.258-.706.466-.788.782-.214.811-.372 1.664-.378 2.506-.062 8.392-.989 16.694-2.102 24.993-.62 4.631-1.143 9.299-1.33 13.972-.442 10.922-.875 21.829-2.784 32.614-1.205 6.803-4.167 11.936-10.855 13.893-2.498.732-2.79.488-2.648-2.191.037-.73.049-1.532-.293-2.099-1.378.756-2.091 2.343-2.254 3.92-.158 1.516-1.008 1.925-2.25 1.608-1.255-.318-1.731-1.252-1.478-2.576.152-.783.402-1.24.342-2.079-.089-1.143-1.4-.131-1.658.347-.7 1.298-1.21 2.71-1.841 4.185-1.84-1.435-1.081-3.123-.35-4.564 1.99-3.916 3.089-8.16 4.416-12.333 1.084-3.406 1.5-6.869 1.636-10.436.33-8.46-1.625-16.634-2.873-24.87-1.037-6.833-2.957-13.516-4.492-20.264-.533-2.341-3.898-16.297-4.131-16.797-.087-.192-.49-.426-.61-.361-.316.177-.725.468-.787.782-.105.534-.06 1.145.08 1.674.82 3.133 1.683 6.254 2.535 9.379 3.425 12.563 5.745 25.392 7.673 38.277 1.021 6.837 1.697 13.845-.218 20.725-.758 2.725-1.449 5.48-2.385 8.137-.334.948-1.175 1.847-2.003 2.417-1.222.841-2.628 1.392-3.974 2.021-1.597.748-3.324 1.26-4.803 2.207-3.887 2.494-7.673 5.168-11.498 7.773-1.549 1.056-2.063 1.627-3.473.324-.985-.909-1.295-1.905-1.25-3.242.059-1.8-.058-4.607-1.381-1.222-.456 1.168-.901 2.347-1.274 3.547-.52 1.669-1.35 2.232-2.96 1.752-1.403-.419-.778-1.377-.58-2.369.473-2.369.758-4.782 1.16-7.444-3.563 1.297-2.861 5.325-4.699 7.533-2.84-2.646-3.023-3.137-1.78-6.095.423-1.012 1.127-1.91 1.79-2.791 2.849-3.78 6.389-6.782 9.91-9.812.896-.771 1.67-.509 2.613-.283 1.54.369 3.12.585 4.692.758.228.025.655-.524.714-.861.035-.201-.438-.649-.745-.739-1.928-.555-3.948-.833-5.797-1.585-6.92-2.815-12.035-8.129-16.005-14.45-2.74-4.367-3.008-8.254-3.053-10.65-.156-8.433 2.032-18.188 4.31-24.734 1.473-4.234 4.108-7.93 6.2-11.878 1.386-2.613 2.246-5.228 2.238-8.415a223.49 223.49 0 01.939-21.212 69.088 69.088 0 012.668-13.666c1.333-4.383 3.465-8.496 5.29-12.704.193-.448.683-.75 1.154-1.246 1.171 1.3 2.123 2.498 3.217 3.526 1.093 1.024 2.23 2.081 3.52 2.76 4.382 2.303 4.409 2.24 6.059-2.459.058-.168.377-.232.717-.426 1.764 3.319 4.568 5.327 7.828 7.051.314-1.402 1.414-3.69 1.508-3.631.458.292.953.552 1.34.931 3.076 3.02 6.87 4.256 10.854 5.24 1.962.484 3.612.508 4.967-.744.107.169.25.305.443.325 1.102.105 2.115-.543 3.16-.809.483-.119 1.076-.167 1.652-.26.531.079 1.021.151 1.496.216 6.34.875 12.583 1.107 18.243-2.885.546-.387 1.225-.583 1.863-.793 1.035-.338 1.904-.417 1.635 1.258-.218 1.355.573 1.799 1.678 1.672a5.643 5.643 0 001.917-.579c5.736-2.97 12.408-3.99 17.114-9.147.221-.242 1.158-.121 1.344.038 3.643 3.123 7.035 13.71 8.155 16.753 2.53 6.865 5.672 13.565 6.451 20.98.488 4.643 2.461 8.339 5.119 11.789 1.971 2.56 3.453 5.395 4.619 8.435 1.458 3.795 3.454 7.255 4.482 12.954 1.076 5.96 1.115 14.559-1.297 20.916-.899 2.371-4.724 14.632-13.782 22.449zM19.297 113.317c-2.333-2.89-3.324-6.432-4.314-9.977-.619-2.225-.891-2.3-2.535-.818-.471.425-.935.855-1.643 1.504-1.347-2.879-1.95-5.633-2.226-8.424-.268-2.71-.21-5.46-.31-8.667L3.653 90.16c-1.537-2.78-1.757-4.273-2.016-7.573-.426-5.47 1.205-10.35 3.396-15.126.345-.756.79-1.5.942-2.302.145-.758-.18-1.409-1.147-1.067-.6.21-1.203.416-1.963.68 0-1.133-.115-1.992.026-2.797.22-1.248.595-2.467.944-3.685 2.005-6.998 6.003-14.113 5.25-21.767-.054-.536-.156-4.313-.285-5.823-.347-4.056-1.85-15.311.128-22.781.352-1.328 1.777-1.828 2.997-1.949 2.237-.22 4.33.351 6.111 1.705 2.281 1.73 4.607 3.484 6.555 5.597 3.433 3.716 7.292 6.666 11.697 8.94 2.677 1.383 4.914 1.357 7.47-.542 4.828-3.589 10.061-4.823 16.255-5.547 3.726-.437 6.791-.665 10.543-.598 6.224.11 13.032 1.727 18.783 4.439 1.841.869 3.512.313 4.606-1.202 3.67-3.236 8.829-7.419 12.842-11.587 2.859-2.97 6.331-4.264 10.021-4.998 2.189-.435 4.528-.578 6.735.522 1.213.603 1.99 1.29 1.909 2.849-.19 3.684-.139 7.386-.462 11.055-.848 9.571-.368 18.92 2.455 28.186 2.01 6.599 3.287 13.45 4.79 20.213.393 1.768.61 3.601-.478 5.357-.363.586-.239 1.62-.115 2.413.394 2.514.939 5 1.335 7.514.379 2.394.471 4.79-.667 7.115-.377-.157-.732-.302-1.086-.45-1.881-.785-2.437-.485-2.6 1.481-.069.847-.009 1.707-.028 2.56-.073 3.03-.682 5.936-2.099 8.579-2.252 4.194-4.617 8.319-7.8 11.833-2.506-2.058-2.506-2.058-4.676-.127-.101.091-.208.18-.302.282-4.533 4.813-11.399 7.11-17.004 9.577-.289-.49-.416-1.536-.41-1.798.06-2.728-.688-2.843-2.996-1.809-1.113.496-2.277.936-3.274 1.633-3.868 2.686-8.189 3.331-12.679 3.505-1.38.056-3.575.018-2.106-1.767.224-.274.877-1.81-.546-1.147l-3.85 1.774c-1.882 1.035-3.45 1.287-4.183 1.468l-.006-.105c.912-.608 1.727-2.663 1.594-2.705-1.081-.321-3.854 2.175-4.08 2.349-1.317 1.014-2.754 1.358-4.136.842-3.776-1.407-7.772-2.484-10.364-6.157a4.568 4.568 0 00-.845-.909c-1.02-.819-2.037-.537-2.57.742-.349.84-.6 1.727-.957 2.77-2.224-1.51-3.953-2.954-4.99-5.268-.705-1.567-2.077-1.619-3.175-.329-.26.312-.394.736-.617 1.085-1.106 1.735-1.55 1.992-3.176 1.25a11.171 11.171 0 01-3.013-2.039c-1.19-1.133-2.19-2.49-3.288-3.734-1.445-1.637-2.85-1.536-3.84.361-.686 1.309-1.21 2.712-1.936 4.367-.89-.984-1.464-1.562-1.974-2.197zm191.99-42.842c-3.007-6.896-8.358-11.08-15.05-13.055-3.279-.966-6.941-1.07-10.361-.748-2.997.282-6.256 1.1-8.763 2.756a37.44 37.44 0 00-10.742 10.774c-5.393 8.265-9.303 17.328-11.403 27.058-1.006 4.653-1.088 9.585-1.227 12.702-.218 4.953.321 10.308.339 15.264.023 6.521.477 12.204.47 18.725-.014 10.613-2.581 22.073-6.147 31.311-.637 1.651-1.395 3.272-2.426 5.631-.97-4.329-3.472-11.438-6.937-17.146-1.661-2.735-3.365-5.476-4.887-8.312a15.644 15.644 0 01-1.637-4.734c-.941-5.611-2.226-11.081-4.467-16.301-1.774-4.129-3.844-11.738-6.797-17.22-1.685-3.132-1.092-5.154.781-7.436.351-.428.779-.799 1.079-1.262 2.803-4.317 6.012-8.384 6.804-13.843.209-1.446.582-3.03 2.324-3.686.599-.226 1.062-1.242 1.329-2 .794-2.262 1.366-4.536 1.062-7.057-.321-2.663-.484-5.405-.244-8.064.299-3.283.086-6.493-.377-9.704-.447-3.079-.586-6.347-1.716-9.144-1.364-6.558-4.649-16.478-5.49-22.127-.364-2.069-.679-4.214-.559-6.297.24-4.24.833-8.456 1.199-12.69.269-3.105.509-6.218.573-9.333.058-2.693-.222-2.933-2.835-3.824-.758-.257-1.542-.504-2.331-.579-7.829-.75-14.466 1.617-19.976 7.827-2.82 3.177-6.279 5.73-9.51 8.488-1.581 1.351-3.295 1.522-5.26.575-7.349-3.535-11.544-3.72-19.427-3.815-5.815-.07-16.284 1.149-21.641 3.653-1.823.851-3.482 2.097-5.201 3.19-1.174.748-2.457 1.639-3.756.828-3.078-1.925-6.403-3.131-9.068-6.12-3.938-4.42-7.298-8.015-12.386-9.908a16.8 16.8 0 00-5.883-1.02c-3.3.026-3.714.633-4.303 4.238-1.32 8.06-.993 16.149-.115 24.196.612 5.595.544 11.032-1.24 16.379a52.562 52.562 0 00-1.104 3.654C2.935 56.394 1.89 60.492.918 64.61c-.33 1.394-.455 2.785 1.004 3.787.336.23.405 1.212.293 1.782-.22 1.1-.65 2.154-1 3.226-1.795 5.446-1.437 10.944.008 16.339.924 3.448 1.73 3.551 4.685 1.448.085-.06.254.014.584.044.088.45.265.96.276 1.474.096 4.33 1.423 8.369 2.62 12.432.543 1.837.91 1.923 2.58.931.51-.304 1.017-.61 1.779-1.066 1.345 4.433 3.09 8.248 5.78 11.494.66.792.355 1.407-.005 2.266-1.19 2.839-2.571 5.674-3.22 8.67-2.071 9.585-2.963 19.355-2.826 29.174.073 5.166-.923 9.807-3.675 14.083-4.221 6.565-6.564 13.976-8.06 21.65C.012 201.2-.163 206.16.795 209.962c.705 2.799 1.651 4.799 3.074 7.331 3.103 5.519 7.358 9.726 12.338 13.241.745.524 1.407 1.179 1.955 1.647-2.975 2.978-5.835 5.746-8.585 8.633-2.037 2.141-3.56 4.605-3.707 7.815-.068 1.51.158 2.921 1.164 3.942 2.477 2.512 5.368 4.367 8.912 4.143 1.512-.097 2.8-.242 4.21.585.662.389 1.87.203 2.635-.17 1.327-.647 2.556-1.564 3.73-2.504 4.19-3.359 8.78-6.008 13.474-8.456.978-.508 2.026-1.453 3.383-.778-.087.806-.21 1.49-.224 2.177-.073 3.386 1.126 4.509 4.432 4.206.508-.048 1.071-.256 1.518-.099 2.408.849 4.839.422 7.185-.028 4.128-.794 8.161-2.083 10.862-5.823a24.426 24.426 0 002.986-5.496c.753-1.968 1.954-2.341 3.755-2.367 3.887-.062 7.774-.332 11.66-.56.384-.02 3.995-.157 5.262.123a7.68 7.68 0 011.415.623c.05.03.096.032.145.048a13.681 13.681 0 003.915 3.43c2.103 1.238 4.073 2.726 6.08 4.137 2.611 1.835 5.203 2.105 7.799.474.398.175.792.357 1.197.504.019.016.032.044.053.054 2.915 1.496 5.839-.201 6.214-3.532a7.076 7.076 0 00-.459-3.478c.728.379 9.266 3.712 12.508 4.982 2.136.837 5.531 2.137 7.528 3.228 2.534 1.387 4.668 2.216 6.609-.829.721-1.127 2.692-.669 3.405-1.913.914-1.605 2.256-2.309 3.851-2.843 1.63-.546 2.322-2.012 2.159-3.688-.323-3.294-1.01-6.47-3.812-8.579-3.78-2.846-7.422-5.945-12.131-7.012 1.817-3.32 3.44-6.387 5.182-9.375.28-.48 1.066-.678 1.656-.897 4.105-1.508 7.581-3.781 10.498-7.4 2.537-3.147 11.537-14.137 15.749-24.996 3.358-8.662 5.483-17.749 5.984-27.227a871.995 871.995 0 012.284-31.832c.605-6.768 1.759-13.468 5.203-19.423 2.013-3.482 4.12-6.902 6.129-10.388 1.623-2.817 3.615-5.183 6.224-7.083 1.265-.923 2.322-1.197 3.705-.79 2.068.61 4.157 1.147 6.228 1.742 1.349.39 1.939.004 1.997-1.476.028-.704-.248-1.448-.113-2.113.154-.76.447-1.641.967-2.135 2.898-2.754 3.803-5.827 2.305-9.262z" fill="#CDCCCE"/><path fill-rule="evenodd" clip-rule="evenodd" d="M19.903 29.645c-.007-.077-.018-.155-.023-.234.236-.793.33-1.573.36-2.354.159 1.044.182 2.115.183 3.17.002.363.198.6.447.706-1.299.802-.852.05-.967-1.288zm-1.471-2.7c-.247-1.766-.557-3.531-.693-5.259-.094-1.171-.302-1.573.65-1.694.689-.086 1.57.472 2.214.778 1.452.688 2.535 1.705 3.748 2.824.621.57 2.471 1.683 2.466 2.558 0 .209-.056.414-.148.617a5.593 5.593 0 00-.692-1.293c-.208-.284-.578-.498-.897-.318-.11.06-.263.211-.417.396a1.873 1.873 0 00-.373-.74c-.307-.38-.837-.179-1.092.143-.1.126-.143.291-.208.438a7.16 7.16 0 00-.454-1.285c-.173-.376-.606-.426-.91-.326-.263.088-.453.358-.615.692-.24-.822-.342-1.669-1.032-2.127-.222-.146-.475-.054-.66.13-.08-.584-.162-1.17-.243-1.747-.076-.533-.741-.598-.82-.027-.286 2.062.033 4.148.224 6.233-.016.005-.032 0-.048.007zm8.67-3.613c-1.562-1.215-2.908-2.834-4.612-3.767-1.418-.776-3.94-2.232-5.563-1.347-1.606.872-.686 3.888-.46 5.399.367 2.447.782 4.693 1.424 7.036.028.948.169 1.84.566 2.389 1.308 1.807 3.41-.218 4.667-.948 1.927-1.119 4.279-2.393 5.495-4.637 1.03-1.9-.218-3.117-1.516-4.125zm89.616-5.877c-.069.722-.19 1.441-.229 2.165-.1 1.788-.091 3.575-.218 5.366-.084 1.173.024 2.768-1.133 3.284-.257.117-.713.049-1.208-.088.227-.101.407-.306.427-.658.086-1.418 1.783-2.08 1.315-3.599a.843.843 0 00-.354-.44 1.43 1.43 0 00.164-.925c-.062-.369-.295-.698-.659-.753-.145-.023-.276-.004-.408.01.006-.018.02-.031.026-.05.268-.696-.372-1.472-1.047-1.192-.051.023-.094.061-.143.085.152-.226.238-.49.143-.773-.032-.088-.061-.177-.092-.265a.773.773 0 00-.641-.52c.668-.524 1.351-1.022 2.075-1.446.778-.458.059-1.688-.708-1.42a2.186 2.186 0 00-.785.492c-1.605 1.029-2.98 2.444-4.458 3.674a10.53 10.53 0 00-.875.836c-.014.008-.027.012-.041.02 1.108-1.824 2.322-3.52 4.015-4.815.895-.682 4.466-3.424 5.247-2.717-.124-.112-.423 3.837-.413 3.73zm-8.109 8.466c.35-.22.689-.465 1.038-.697-.006.028-.02.049-.026.074-.17.718.57 1.123 1.106.973.331-.091.638-.306.932-.547-.006.08-.027.157-.02.243.032.422.455.865.87.768.119-.028.211-.104.317-.154-.059.21-.108.424-.129.658a.91.91 0 00.133.567c-.355-.139-.668-.272-.862-.35-.215-.086-1.955-.803-3.359-1.535zm9.914-13.393c-1.067-1.905-3.685-.372-4.973.362-2.386 1.359-4.745 3.333-6.405 5.648-1.185 1.651-2.952 4.697-3.142 6.815-.03.333.18.58.427.66.191.33.505.589.908.87 1.378.95 3.369 1.377 4.902 2.103 1.666.786 5.24 2.523 6.836 1.042 1.615-1.5 1.304-6.592 1.394-8.657.096-2.163 1.11-6.953.053-8.843zM123 73.809c-4.505.662-8.547 1.4-12.618 1.82-6.179.638-11.942 2.656-17.604 5.128-1.34.585-2.723 1.072-4.104 1.553-.174.062-.623-.168-.65-.32a1.9 1.9 0 01.139-1.06c.095-.211.41-.33.643-.455 9.033-4.79 18.525-7.742 28.767-7.651 1.331.011 2.661.145 3.986.282.344.035.663.313 1.441.703zm-73 9.532c-2.79.254-4.671-.943-6.649-1.604-2.156-.72-4.18-2.042-6.372-2.425-8.857-2.324-15.127-1.858-15.633-2.002-.165-.047-.372-.412-.343-.594.033-.212.273-.486.478-.552.374-.127.79-.156 1.192-.162 9.135-.203 17.797 1.817 25.97 6.072.341.178.592.54 1.357 1.267zM124 82c-5.696.286-10.529.393-15.338.832-2.122.194-4.219.976-6.286 1.657-1.682.552-3.288 1.4-4.96 2.007-.412.153-.94-.118-1.416-.194.274-.492.45-1.154.838-1.442.902-.666 1.858-1.332 2.873-1.681 2.452-.839 4.92-1.784 7.441-2.157 6.626-1.43 14.793-.89 16.848.978zm-3 9.666c-1.655.306-3.18.12-4.719-.267-6.142-1.555-12.312-2.309-18.556-.65-.388.103-.815.155-1.209.095-.199-.027-.469-.331-.509-.553-.04-.226.098-.606.274-.733.445-.323.932-.644 1.444-.785 7.796-2.095 15.397-1.353 22.804 1.928.176.079.238.47.471.965zM91.552 66.383c-1.956.27-3.969.034-5.745-.771-1.043-.472-4.671-2.68-3.617-4.621.626-1.15 2.762-.067 3.478.433 4.276 2.989 7.327 2.753 11.077-.947 1.008-.996 1.376.571 1.22 1.49-.16.958-1.398 2.495-2.108 2.917-1.308.78-2.79 1.29-4.305 1.5zm-44.448 3.139c-2.884.483-5.952-.285-7.004-3.317-.692-1.993 2.413-1.012 3.018-.557 1.61 1.214 3.345 1.168 5.038.213 1.16-.652 2.953-3.312 4.348-2.318 1.079.77.16 2.941-.503 3.627-1.103 1.142-2.958 2.03-4.897 2.352zM47 91.945c-4.434.345-8.609.061-12.76.56-3.956.478-7.885 1.75-12.24 2.48 1.079-1.38 2.297-1.91 3.603-2.08 6.566-1.93 16.13-3.182 21.397-.96zm-3-5.881c-7.554-1.531-14.43-1.016-22 .478 2.726-2.362 5.472-2.817 11.508-3.097 3.593-.164 7.039-.28 10.492 2.62zm35.202 4.46c1.962.03 3.612-.801 5.183-1.977.443-.334 1.328-.132 1.554.397.36.835-.963 2.033-1.43 2.46-1.727 1.576-3.968 2.071-6.192 1.787-2.274-.292-4.319-1.272-6.17-2.826-1.99-1.67-2.165-1.64-3.92.358-3.944 4.493-8.708 5.095-13.908 3.372-.918-.304-2.138-.87-2.755-1.691-.611-.809-1.09-2.693.597-2.24.365.1.658.467 1 .688 4.8 3.114 10.19 2.335 14.104-2.031 1.9-2.12 1.647-4.28-.575-6.077a32.218 32.218 0 01-3.836-3.645c-.815-.918-.772-2 .155-3.019 2.664-2.921 8.567-2.977 10.905.07.383.497.402 1.717.095 2.32-.623 1.223-1.531 2.304-2.42 3.35-.832.98-.845 1.969-.486 3.146 1.062 3.487 4.105 5.604 8.099 5.558z" fill="#CDCCCE"/></svg>