<svg width="1899" height="799" fill="none" xmlns="http://www.w3.org/2000/svg"><path d="M1880.47 122.805c-.61-4.94-3.7-9.181-8.28-11.347a15.11 15.11 0 00-14.25.695l-10.45 6.268a9.215 9.215 0 00-3.81 4.41 8.975 8.975 0 00-.37 5.763 9.124 9.124 0 003.22 4.841 9.467 9.467 0 005.54 2.012l.13.005c5.11.218 9.92 2.515 13.23 6.316.86.98 1.89 1.76 3.05 2.309a9.99 9.99 0 002 .686c1.99.446 4.02.26 5.89-.538a9.278 9.278 0 004.39-3.86 8.974 8.974 0 001.17-5.659l-1.46-11.901zm-26.68-12.829c2.05.173 4.04-.586 5.59-2.136 1.49-1.474 2.4-3.504 2.59-5.717.18-2.212-.39-4.366-1.61-6.066-1.28-1.786-3.11-2.863-5.15-3.034-4.12-.344-7.78 3.178-8.18 7.855-.3 3.724 1.56 7.071 4.41 8.452a6.59 6.59 0 002.35.646zm14.86-.771c4.35 2.154 9.84-.222 12.23-5.296 2.4-5.077.81-10.959-3.54-13.114-4.34-2.155-9.83.222-12.22 5.299-2.4 5.074-.81 10.956 3.53 13.111zm12.54 7.757v.001c.56.536 1.18.966 1.85 1.29 3.14 1.511 7.3.71 10.16-2.222 1.65-1.688 2.63-3.836 2.78-6.048.15-2.315-.62-4.424-2.18-5.936-1.56-1.513-3.7-2.226-6.02-2.009-2.21.209-4.34 1.253-5.99 2.941-3.47 3.561-3.74 8.936-.6 11.983zm17.03 7.948v-.002c-1.98-3.79-7.04-5.04-11.29-2.786-4.25 2.257-6.11 7.177-4.15 10.967.72 1.382 1.85 2.428 3.2 3.088 2.35 1.151 5.39 1.134 8.09-.299 4.25-2.258 6.11-7.177 4.15-10.968zm-253.75-91.105c-.61-4.94-3.7-9.181-8.28-11.347a15.112 15.112 0 00-14.25.695l-10.45 6.268a9.218 9.218 0 00-3.81 4.41 8.908 8.908 0 00-.37 5.763 9.127 9.127 0 003.22 4.841 9.468 9.468 0 005.54 2.012l.13.005c5.11.218 9.92 2.515 13.23 6.316.86.98 1.89 1.76 3.05 2.31.64.297 1.31.528 2 .685 1.99.446 4.02.26 5.89-.538a9.283 9.283 0 004.39-3.86 8.974 8.974 0 001.17-5.659l-1.46-11.901zm-27.68-12.829c2.05.173 4.04-.586 5.59-2.135 1.49-1.475 2.4-3.505 2.59-5.718.18-2.212-.39-4.367-1.61-6.067-1.28-1.785-3.11-2.863-5.15-3.033-4.12-.345-7.78 3.178-8.18 7.855-.3 3.724 1.56 7.071 4.41 8.452a6.59 6.59 0 002.35.646zm15.86-1.771c4.35 2.155 9.84-.221 12.23-5.296 2.4-5.076.81-10.96-3.54-13.114-4.34-2.155-9.83.222-12.22 5.298-2.4 5.075-.81 10.957 3.53 13.112zm12.54 8.757c.56.538 1.18.967 1.85 1.291 3.14 1.511 7.3.71 10.16-2.222 1.65-1.688 2.63-3.836 2.78-6.048.15-2.316-.62-4.424-2.18-5.937-1.56-1.512-3.7-2.225-6.02-2.008-2.21.208-4.34 1.253-5.99 2.94-3.47 3.562-3.74 8.937-.6 11.984zm17.03 6.948v-.002c-1.98-3.79-7.04-5.04-11.29-2.786-4.25 2.257-6.11 7.177-4.15 10.967.72 1.382 1.85 2.428 3.2 3.088 2.35 1.151 5.39 1.134 8.09-.299 4.25-2.258 6.11-7.177 4.15-10.968zm201.25 341.895c-.61-4.94-3.7-9.181-8.28-11.347a15.11 15.11 0 00-14.25.695l-10.45 6.268a9.215 9.215 0 00-3.81 4.41 8.91 8.91 0 00-.37 5.763 9.124 9.124 0 003.22 4.841 9.467 9.467 0 005.54 2.012l.13.005c5.11.218 9.92 2.515 13.23 6.316.86.98 1.89 1.76 3.05 2.309a9.99 9.99 0 002 .686c1.99.446 4.02.26 5.89-.538a9.278 9.278 0 004.39-3.86 8.974 8.974 0 001.17-5.659l-1.46-11.901zm-26.68-12.829c2.05.173 4.04-.586 5.59-2.136 1.49-1.474 2.4-3.504 2.59-5.717.18-2.212-.39-4.366-1.61-6.066-1.28-1.786-3.11-2.863-5.15-3.034-4.12-.344-7.78 3.178-8.18 7.855-.3 3.724 1.56 7.071 4.41 8.452a6.59 6.59 0 002.35.646zm14.86-1.771c4.35 2.154 9.84-.222 12.23-5.296 2.4-5.077.81-10.959-3.54-13.114-4.34-2.155-9.83.222-12.22 5.299-2.4 5.074-.81 10.956 3.53 13.111zm12.54 8.757v.001c.56.536 1.18.966 1.85 1.29 3.14 1.511 7.3.71 10.16-2.222 1.65-1.688 2.63-3.836 2.78-6.048.15-2.315-.62-4.424-2.18-5.936-1.56-1.513-3.7-2.226-6.02-2.009-2.21.209-4.34 1.253-5.99 2.941-3.47 3.561-3.74 8.936-.6 11.983zm17.03 7.948v-.002c-1.98-3.79-7.04-5.04-11.29-2.786-4.25 2.257-6.11 7.177-4.15 10.967.72 1.382 1.85 2.428 3.2 3.088 2.35 1.151 5.39 1.134 8.09-.299 4.25-2.258 6.11-7.177 4.15-10.968zM38.43 775.537c-.621-5.221-3.797-9.706-8.495-11.996a15.082 15.082 0 00-14.608.735l-10.72 6.626A9.638 9.638 0 00.7 775.564a9.726 9.726 0 00-.38 6.092 9.667 9.667 0 003.302 5.119 9.544 9.544 0 005.68 2.126l.14.005a18.91 18.91 0 0113.569 6.677 9.6 9.6 0 005.178 3.167 9.515 9.515 0 006.033-.569 9.605 9.605 0 004.506-4.081 9.714 9.714 0 001.203-5.982l-1.5-12.581zm-27.185-13.563c2.185.184 4.303-.62 5.963-2.261 1.58-1.561 2.56-3.71 2.756-6.053.196-2.343-.412-4.624-1.71-6.423-1.365-1.892-3.32-3.032-5.502-3.212-4.388-.365-8.298 3.364-8.717 8.316-.328 3.943 1.658 7.488 4.697 8.949a7.1 7.1 0 002.513.684zm15.668-.809c4.589 2.262 10.38-.232 12.908-5.561 2.53-5.33.854-11.506-3.734-13.769s-10.379.233-12.908 5.563c-2.53 5.329-.854 11.505 3.734 13.767zm13.407 8.677l.001.001a7.498 7.498 0 001.96 1.366c3.319 1.6 7.722.751 10.752-2.353 1.745-1.787 2.791-4.061 2.947-6.404.163-2.451-.658-4.683-2.31-6.285-1.654-1.602-3.916-2.357-6.372-2.126-2.345.22-4.597 1.326-6.34 3.114-3.68 3.77-3.965 9.461-.637 12.687zm16.896 8.068v-.002c-1.972-3.79-7.035-5.04-11.288-2.786-4.251 2.257-6.11 7.177-4.144 10.967.717 1.382 1.845 2.428 3.196 3.088 2.355 1.151 5.386 1.134 8.092-.299 4.25-2.258 6.11-7.177 4.144-10.968zm174.215-15.373c-.622-5.221-3.798-9.706-8.497-11.996a15.081 15.081 0 00-14.607.735l-10.72 6.626a9.64 9.64 0 00-3.908 4.662 9.728 9.728 0 00-.38 6.092 9.665 9.665 0 003.302 5.119 9.542 9.542 0 005.68 2.126l.14.005a18.912 18.912 0 0113.569 6.677 9.577 9.577 0 005.179 3.167 9.514 9.514 0 006.032-.569 9.608 9.608 0 004.506-4.081 9.716 9.716 0 001.203-5.982l-1.499-12.581zm-27.186-13.563c2.185.184 4.303-.62 5.963-2.261 1.581-1.561 2.56-3.71 2.756-6.053.195-2.343-.412-4.624-1.711-6.423-1.364-1.892-3.318-3.032-5.501-3.212-4.389-.365-8.298 3.364-8.717 8.316-.328 3.943 1.658 7.488 4.697 8.949a7.105 7.105 0 002.513.684zm15.668-1.809c4.589 2.262 10.379-.232 12.908-5.561 2.529-5.33.855-11.506-3.735-13.769-4.587-2.263-10.378.233-12.908 5.563-2.528 5.329-.853 11.505 3.735 13.767zm13.408 9.677v.001a7.51 7.51 0 001.96 1.366c3.319 1.6 7.723.751 10.753-2.353 1.744-1.787 2.791-4.061 2.946-6.404.163-2.451-.658-4.683-2.311-6.285-1.653-1.602-3.915-2.357-6.37-2.126-2.346.22-4.598 1.326-6.342 3.114-3.679 3.77-3.965 9.461-.636 12.687zm16.895 7.068l-.001-.002c-1.971-3.79-7.034-5.04-11.287-2.786-4.251 2.257-6.11 7.177-4.144 10.967.717 1.382 1.845 2.428 3.196 3.088 2.355 1.151 5.385 1.134 8.091-.299 4.252-2.258 6.111-7.177 4.145-10.968zM89.666 582.342c-.529-4.375-3.228-8.132-7.222-10.051a12.978 12.978 0 00-12.416.616l-9.112 5.552a8.101 8.101 0 00-3.322 3.906 8.03 8.03 0 00-.322 5.104 8.085 8.085 0 002.805 4.288 8.182 8.182 0 004.829 1.782l.119.004a16.157 16.157 0 0111.533 5.595 8.171 8.171 0 004.402 2.652 8.194 8.194 0 005.128-.476 8.127 8.127 0 003.83-3.419 8.044 8.044 0 001.022-5.013l-1.274-10.54zm-23.779-11.363c1.775.152 3.496-.517 4.845-1.885 1.284-1.301 2.08-3.092 2.239-5.044.159-1.952-.335-3.853-1.39-5.353-1.109-1.576-2.696-2.526-4.47-2.676-3.566-.304-6.742 2.804-7.082 6.93-.267 3.286 1.346 6.24 3.816 7.458.63.311 1.317.509 2.042.57zm13.25-1.655c3.865 1.832 8.74-.188 10.87-4.501 2.13-4.315.72-9.315-3.145-11.147-3.863-1.832-8.74.189-10.87 4.504-2.129 4.313-.719 9.313 3.145 11.144zm11.797 7.877v.001a6.24 6.24 0 001.633 1.139c2.766 1.333 6.436.626 8.961-1.961 1.454-1.489 2.326-3.384 2.455-5.336.136-2.043-.548-3.903-1.925-5.238-1.378-1.335-3.263-1.964-5.309-1.772-1.955.184-3.831 1.105-5.285 2.595-3.066 3.141-3.304 7.884-.53 10.572zm15.374 6.22l-.001-.001c-1.739-3.317-6.206-4.41-9.959-2.439-3.75 1.976-5.39 6.281-3.656 9.596.632 1.21 1.628 2.125 2.82 2.703 2.077 1.007 4.751.992 7.139-.262 3.752-1.975 5.392-6.28 3.657-9.597z" fill="#EFEFEF"/></svg>