<svg width="67" height="55" fill="none" xmlns="http://www.w3.org/2000/svg"><path fill-rule="evenodd" clip-rule="evenodd" d="M11.523 46.021c-1.871.426-2.686.625-3.953 1.294.032 1.116.13 2.287.264 3.534.07.666 1.044 1.925 3.463.808 1.349-.622.673-4.542 3.004-6.248.024-.02.039-.042.064-.061-1.14.285-2.08.5-2.842.673" fill="#FFDA47"/><path fill-rule="evenodd" clip-rule="evenodd" d="M61.457 26.502c-2.235.28-9.11.333-13.12-2.38.098.175.193.35.305.523 2.336 3.583 5.932 5.354 8.812 6.23a19.848 19.848 0 003.845-.959c2.583-.935 1.585-3.59.158-3.414M26.39 6.237c3.245-1.162 7.512 1.051 11.308 5.341.63-.258 1.263-.516 1.904-.772-4.07-4.57-8.732-6.917-12.32-5.633-1.356.485-2.425 1.448-3.21 2.764.626-.783 1.394-1.37 2.318-1.7" fill="#7C58D3"/><path fill-rule="evenodd" clip-rule="evenodd" d="M45.037 34.734c-.519 3.013-1.534 5.181-3.038 6.035-.74.416-1.55.48-2.397.244 1.265.602 2.48.653 3.57.035 1.526-.865 2.6-2.93 3.224-5.766-.45-.184-.902-.368-1.359-.548" fill="#8D6EC8"/><path fill-rule="evenodd" clip-rule="evenodd" d="M38.248 7.554c-4.094-4.407-8.727-6.513-12.447-5.045-6.154 2.437-7.444 13.728-2.877 25.218 4.565 11.494 13.26 18.835 19.419 16.4 2.355-.933 3.99-3.164 4.864-6.204.297-1.038.851 6.559-5.445 8.894-6.796 2.52-16.323-5.541-21.402-18.33-5.085-12.789-3.74-25.318 3-27.982 4.429-1.756 10.09 1.193 14.89 7.05" fill="#7C58D3"/><path fill-rule="evenodd" clip-rule="evenodd" d="M19.349 28.412c-3.391-8.427-3.638-16.728-1.15-21.658-3.134 1.692-5.407 8.513-3.035 17.735l-.011.008c-3.608 1.967-5.338 2.589-9.048 1.712-2.968-.705-3.97-3.731-4.181-3.319-2.607 5.07 3.218 8.914 6.626 8.663-.235 5.413-3.618 8.072-5.13 10.134C1.438 44.39 1.06 48.049.778 52.496c-.048.722.518 2.17 2.566 1.225 1.141-.53 1.213-4.8 3.28-6.388 1.877-1.442 2.629-1.342 6.207-2.592 4.062-1.418 7.585-3.966 8.08-7.228.282.432.553.871.857 1.285 5.012 6.98 9.098 5.64 9.098 5.64-5.118-3.024-8.901-9.524-11.517-16.026" fill="#FFDA47"/><path fill-rule="evenodd" clip-rule="evenodd" d="M61.277 7.719c.518-1.628 1.478-5.456-.794-6.678-1-.536-2.346 1.863-5.35 3.536 1.396.369 4.383 1.343 6.144 3.142" fill="#7C58D3"/><path fill-rule="evenodd" clip-rule="evenodd" d="M57.163 9.652a.97.97 0 01.878 1.048.971.971 0 01-1.934-.172.974.974 0 011.056-.876zm5.775 25.57c-2.698-.088-10.057-1.235-13.995-7.066-3.78-5.597.333-11.728 6.97-9.884 10.619 2.948 10.978-2.729 10.851-4.483-3.144-1.178-5.348-1.38-5.748-3.419-.865-4.43-4.939-4.79-6.143-5.22-.183-.67-1.166-4.15-2.97-4.184-.949-.019-.112 3.565-2.89 5.962-8.794 3.354-17.417 7.756-24.942 12.2a42.847 42.847 0 002.16 7.695 42.308 42.308 0 003.569 7.192c1.876-.073 4.096-.006 6.995.142 9.776.458 16.95 5.745 25.54 4.133 2.543-.477 1.962-3.022.603-3.067z" fill="#7C58D3"/></svg>