<svg width="180" height="55" fill="none" xmlns="http://www.w3.org/2000/svg"><g clip-path="url(#petopia_logo)"><path fill-rule="evenodd" clip-rule="evenodd" d="M11.523 46.021c-1.871.426-2.686.625-3.953 1.294.032 1.116.13 2.287.264 3.534.07.666 1.044 1.925 3.463.808 1.349-.622.673-4.542 3.004-6.248.024-.02.039-.042.064-.061-1.14.285-2.08.5-2.842.673" fill="#FFDA47"/><path fill-rule="evenodd" clip-rule="evenodd" d="M61.457 26.502c-2.235.28-9.11.333-13.12-2.38.098.175.193.35.305.523 2.336 3.583 5.932 5.354 8.812 6.23a19.848 19.848 0 003.845-.959c2.583-.935 1.585-3.59.158-3.414M26.39 6.237c3.245-1.162 7.512 1.051 11.308 5.341.63-.258 1.263-.516 1.904-.772-4.07-4.57-8.732-6.917-12.32-5.633-1.356.485-2.425 1.448-3.21 2.764.626-.783 1.394-1.37 2.318-1.7" fill="#7C58D3"/><path fill-rule="evenodd" clip-rule="evenodd" d="M45.037 34.734c-.519 3.013-1.534 5.181-3.038 6.035-.74.416-1.55.48-2.397.244 1.265.602 2.48.653 3.57.035 1.526-.865 2.6-2.93 3.224-5.766-.45-.184-.902-.368-1.359-.548" fill="#8D6EC8"/><path fill-rule="evenodd" clip-rule="evenodd" d="M38.248 7.554c-4.094-4.407-8.727-6.513-12.447-5.045-6.154 2.437-7.444 13.728-2.877 25.218 4.565 11.494 13.26 18.835 19.419 16.4 2.355-.933 3.99-3.164 4.864-6.204.297-1.038.851 6.559-5.445 8.894-6.796 2.52-16.323-5.541-21.402-18.33-5.085-12.789-3.74-25.318 3-27.982 4.429-1.756 10.09 1.193 14.89 7.05" fill="#7C58D3"/><path fill-rule="evenodd" clip-rule="evenodd" d="M19.349 28.412c-3.391-8.427-3.638-16.728-1.15-21.658-3.134 1.692-5.407 8.513-3.035 17.735l-.011.008c-3.608 1.967-5.338 2.589-9.048 1.712-2.968-.705-3.97-3.731-4.181-3.319-2.607 5.07 3.218 8.914 6.626 8.663-.235 5.413-3.618 8.072-5.13 10.134C1.438 44.39 1.06 48.049.778 52.496c-.048.722.518 2.17 2.566 1.225 1.141-.53 1.213-4.8 3.28-6.388 1.877-1.442 2.629-1.342 6.207-2.592 4.062-1.418 7.585-3.966 8.08-7.228.282.432.553.871.857 1.285 5.012 6.98 9.098 5.64 9.098 5.64-5.118-3.024-8.901-9.524-11.517-16.026" fill="#FFDA47"/><path fill-rule="evenodd" clip-rule="evenodd" d="M61.277 7.719c.518-1.628 1.478-5.456-.794-6.678-1-.536-2.346 1.863-5.35 3.536 1.396.369 4.383 1.343 6.144 3.142" fill="#7C58D3"/><path fill-rule="evenodd" clip-rule="evenodd" d="M57.163 9.652a.97.97 0 01.878 1.048.971.971 0 01-1.934-.172.974.974 0 011.056-.876zm5.775 25.57c-2.698-.088-10.057-1.235-13.995-7.066-3.78-5.597.333-11.728 6.97-9.884 10.619 2.948 10.978-2.729 10.851-4.483-3.144-1.178-5.348-1.38-5.748-3.419-.865-4.43-4.939-4.79-6.143-5.22-.183-.67-1.166-4.15-2.97-4.184-.949-.019-.112 3.565-2.89 5.962-8.794 3.354-17.417 7.756-24.942 12.2a42.847 42.847 0 002.16 7.695 42.308 42.308 0 003.569 7.192c1.876-.073 4.096-.006 6.995.142 9.776.458 16.95 5.745 25.54 4.133 2.543-.477 1.962-3.022.603-3.067z" fill="#7C58D3"/><path d="M86.358 33.216c-.608 0-1.072-.168-1.392-.504-.32-.336-.48-.808-.48-1.416v-13.32c0-.624.16-1.096.48-1.416.336-.32.808-.48 1.416-.48h5.832c1.888 0 3.344.48 4.368 1.44 1.024.944 1.536 2.264 1.536 3.96 0 1.696-.512 3.024-1.536 3.984s-2.48 1.44-4.368 1.44h-4.008v4.392c0 .608-.16 1.08-.48 1.416-.304.336-.76.504-1.368.504zm1.848-9.192h3.384c.96 0 1.688-.216 2.184-.648.512-.432.768-1.064.768-1.896 0-.832-.256-1.456-.768-1.872-.496-.416-1.224-.624-2.184-.624h-3.384v5.04zm17.393 9.24c-1.392 0-2.592-.248-3.6-.744-.992-.512-1.76-1.224-2.304-2.136-.528-.928-.792-2.016-.792-3.264 0-1.216.256-2.28.768-3.192a5.44 5.44 0 012.136-2.16c.928-.528 1.976-.792 3.144-.792.848 0 1.616.144 2.304.432.688.272 1.28.672 1.776 1.2.496.512.872 1.144 1.128 1.896.256.736.384 1.56.384 2.472 0 .304-.096.536-.288.696-.192.144-.472.216-.84.216h-7.536v-1.872h6.048l-.384.336c0-.656-.096-1.2-.288-1.632-.192-.448-.472-.784-.84-1.008-.352-.224-.792-.336-1.32-.336-.592 0-1.096.136-1.512.408-.416.272-.736.664-.96 1.176-.224.512-.336 1.128-.336 1.848V27c0 1.216.28 2.112.84 2.688.576.576 1.424.864 2.544.864.384 0 .824-.048 1.32-.144.496-.096.96-.248 1.392-.456.368-.176.696-.232.984-.168.288.048.512.176.672.384.16.208.248.448.264.72.032.272-.024.544-.168.816-.144.256-.384.472-.72.648a6.49 6.49 0 01-1.848.672c-.672.16-1.328.24-1.968.24zm12.765 0c-1.104 0-2.032-.184-2.784-.552a3.663 3.663 0 01-1.656-1.608c-.352-.704-.528-1.592-.528-2.664v-4.512h-1.008c-.448 0-.8-.12-1.056-.36-.24-.24-.36-.568-.36-.984 0-.448.12-.784.36-1.008.256-.24.608-.36 1.056-.36h1.008v-1.824c0-.608.16-1.064.48-1.368.32-.32.768-.48 1.344-.48.592 0 1.04.16 1.344.48.304.304.456.76.456 1.368v1.824h2.28c.448 0 .792.12 1.032.36.24.224.36.56.36 1.008 0 .416-.12.744-.36.984s-.584.36-1.032.36h-2.28v4.368c0 .672.152 1.176.456 1.512.32.336.824.504 1.512.504.24 0 .464-.024.672-.072.208-.048.4-.08.576-.096a.643.643 0 01.552.216c.144.144.216.472.216.984 0 .384-.064.72-.192 1.008a1.177 1.177 0 01-.672.624c-.208.08-.496.144-.864.192a5.204 5.204 0 01-.912.096zm9.466 0c-1.264 0-2.368-.248-3.312-.744a5.242 5.242 0 01-2.16-2.136c-.512-.928-.768-2.024-.768-3.288 0-.944.144-1.792.432-2.544a5.253 5.253 0 011.248-1.92 5.412 5.412 0 011.992-1.224c.768-.288 1.624-.432 2.568-.432 1.264 0 2.36.248 3.288.744a5.246 5.246 0 012.184 2.112c.528.912.792 2 .792 3.264 0 .96-.152 1.816-.456 2.568a5.487 5.487 0 01-1.248 1.944 5.41 5.41 0 01-1.992 1.248c-.768.272-1.624.408-2.568.408zm0-2.712c.528 0 .984-.128 1.368-.384.384-.256.688-.632.912-1.128.224-.512.336-1.16.336-1.944 0-1.168-.24-2.024-.72-2.568-.48-.56-1.112-.84-1.896-.84-.512 0-.968.12-1.368.36-.384.24-.688.616-.912 1.128-.208.496-.312 1.136-.312 1.92 0 1.168.24 2.04.72 2.616.48.56 1.104.84 1.872.84zm10.293 6.984c-.592 0-1.048-.16-1.368-.48-.304-.304-.456-.76-.456-1.368v-12.84c0-.592.152-1.04.456-1.344.32-.32.76-.48 1.32-.48.592 0 1.04.16 1.344.48.304.304.456.752.456 1.344v1.632l-.264-.936c.24-.768.72-1.384 1.44-1.848.736-.48 1.576-.72 2.52-.72 1.024 0 1.92.248 2.688.744.784.496 1.392 1.2 1.824 2.112.432.912.648 2 .648 3.264 0 1.264-.216 2.36-.648 3.288-.432.928-1.032 1.64-1.8 2.136-.768.496-1.672.744-2.712.744-.928 0-1.752-.224-2.472-.672-.72-.464-1.208-1.064-1.464-1.8h.288v4.896c0 .608-.16 1.064-.48 1.368-.304.32-.744.48-1.32.48zm4.368-6.984c.512 0 .96-.128 1.344-.384.4-.256.704-.632.912-1.128.224-.512.336-1.16.336-1.944 0-1.168-.24-2.024-.72-2.568-.48-.56-1.104-.84-1.872-.84-.512 0-.968.12-1.368.36-.384.24-.688.616-.912 1.128-.224.496-.336 1.136-.336 1.92 0 1.168.24 2.04.72 2.616.48.56 1.112.84 1.896.84zm10.281 2.64c-.592 0-1.048-.168-1.368-.504-.304-.352-.456-.84-.456-1.464v-8.208c0-.64.152-1.128.456-1.464.32-.352.776-.528 1.368-.528.576 0 1.016.176 1.32.528.32.336.48.824.48 1.464v8.208c0 .624-.152 1.112-.456 1.464-.304.336-.752.504-1.344.504zm0-14.136c-.672 0-1.192-.152-1.56-.456-.352-.32-.528-.768-.528-1.344 0-.592.176-1.04.528-1.344.368-.32.888-.48 1.56-.48s1.184.16 1.536.48c.352.304.528.752.528 1.344 0 .576-.176 1.024-.528 1.344-.352.304-.864.456-1.536.456zm8.582 14.208c-.864 0-1.64-.168-2.328-.504-.688-.336-1.224-.792-1.608-1.368a3.426 3.426 0 01-.576-1.944c0-.864.224-1.544.672-2.04.448-.512 1.176-.872 2.184-1.08 1.008-.224 2.344-.336 4.008-.336h1.272v1.872h-1.248c-.816 0-1.48.048-1.992.144-.496.08-.856.224-1.08.432-.208.208-.312.496-.312.864 0 .448.152.816.456 1.104.32.288.776.432 1.368.432a2.36 2.36 0 001.224-.312 2.42 2.42 0 00.864-.888c.208-.384.312-.816.312-1.296v-2.76c0-.704-.16-1.2-.48-1.488-.32-.304-.864-.456-1.632-.456-.432 0-.904.056-1.416.168a9.479 9.479 0 00-1.656.504c-.352.16-.664.2-.936.12a1.184 1.184 0 01-.624-.48 1.468 1.468 0 01-.216-.768c0-.288.08-.56.24-.816.16-.272.424-.472.792-.6a10.306 10.306 0 012.112-.624 11.311 11.311 0 011.848-.168c1.232 0 2.24.184 3.024.552.8.352 1.4.904 1.8 1.656.4.736.6 1.688.6 2.856v5.328c0 .592-.144 1.048-.432 1.368-.288.32-.704.48-1.248.48s-.968-.16-1.272-.48c-.288-.32-.432-.776-.432-1.368v-.888l.168.144a3.082 3.082 0 01-.624 1.416 3.194 3.194 0 01-1.176.912c-.48.208-1.032.312-1.656.312z" fill="#7C58D3"/></g><defs><clipPath id="petopia_logo"><path fill="#fff" transform="translate(.775)" d="M0 0h179.014v54.031H0z"/></clipPath></defs></svg>