<svg width="1676" height="680" fill="none" xmlns="http://www.w3.org/2000/svg"><path fill-rule="evenodd" clip-rule="evenodd" d="M198.976 104.225c1.957 6.474-2.363 12.114-9.138 12.449-5.034.25-9.9 1.376-14.525 3.407-2.959 1.301-5.036 3.534-6.64 6.334-3.336 5.822-7.829 6.938-13.823 3.948-5.116-2.553-8.122-6.538-8.118-12.132.003-3.172.967-6.456 2.032-9.513 1.428-4.103 4.069-7.611 7.045-10.753 3.526-3.725 6.841-6.18 11.801-7.808 6.408-2.1 13.403-.35 19.53 1.493 6.166 1.853 10.019 6.559 11.836 12.575zm-20.315-18.046c-4.997-.739-10.177-.639-14.932.945-4.014 1.34-8.756 3.965-11.591 7.253-6.93 8.035-11.524 16.562-9 27.8 1.145 5.105 5.983 11.011 11.851 12.291 3.314.722 6.95.486 10.131-.75 3.31-1.287 5.395-4.079 7.294-6.925 2.205-3.302 4.866-5.416 8.861-6.208 3.052-.606 6.173-.965 9.277-1.162 6.852-.434 9.241-3.791 10.683-8.831 1.276-4.47-.511-9.441-3.018-13.144-4.66-6.875-11.43-10.07-19.556-11.269zm-47.398-.481c-.367-2.026.165-2.963 1.989-3.351 2.975-.63 5.419.55 7.403 2.633 1.806 1.897 3.184 4.126 3.382 6.785.169 2.279-.832 3.218-3.009 2.914-5.566-.775-8.826-3.771-9.765-8.98zm9.757 12.943c3.023.714 5.888-1.604 6.004-4.76.132-3.646-1.086-7.134-2.96-10.228-2.438-4.027-5.889-6.149-10.697-5.521-3.734.487-5.47 2.308-5.675 6.05-.167 3.01.576 5.716 2.43 8.206 2.764 3.719 6.722 5.267 10.898 6.252zm-9.219 17.503c.277 1.654-1.286 3.983-3.083 2.432-1.662-1.436-5.469-4.453-4.127-7.089 1.666-3.261 6.905 2.822 7.21 4.657zm-9.671-8.401c-1.532.362-1.84 1.514-2.041 2.672-.799 4.576 2.087 9.627 6.475 11.454 2.671 1.113 6.079.646 7.884-1.154 2.1-2.094 1.292-4.376.635-6.562-1.685-4.189-8.435-7.474-12.953-6.41zm72.434-30.473c-1.839 1.014-3.642-1.468-4.149-2.983-.796-2.36-.191-5.174.003-7.584.276-3.395 4.375-2.998 6.17-.951 2.426 2.764 1.121 9.776-2.024 11.518zm5.047-10.464c-.857-4.204-3.161-7.703-7.599-5.856-1.073.448-2.133 1.147-2.931 1.988-2.728 2.866-3.528 9.725-1.671 13.213 1.224 2.3 4.537 4.384 6.692 4.135 2.924-.338 4.477-2.313 5.332-4.912.658-2.01.809-5.48.177-8.568zm-36.659-5.101c.175-.778.533-1.485 1.164-2.054 2.722-2.456 6.057-1.322 8.011 1.254 2.422 3.191 2.646 10.3.43 13.677-1.045 1.593-3.465 2.113-5.005.735-2.221-1.985-3.439-4.624-3.993-7.505-.339-1.768-1.043-4.154-.607-6.107zm9.565 16.592c2.953-.781 3.432-3.198 3.669-5.645.557-5.773.39-10.44-3.829-14.775-4.665-4.796-13.803.558-13.296 6.7.355 4.276 1.861 8.959 4.759 12.211 2.421 2.714 5.549 2.341 8.697 1.509zm1047.223 564.27c-3.54-3.193-3.03-8.091.87-10.67 2.9-1.917 5.39-4.3 7.39-7.141 1.29-1.819 1.7-3.887 1.63-6.128-.15-4.661 2.11-6.907 6.77-7.219 3.98-.266 7.23 1.067 9.28 4.422 1.16 1.901 1.79 4.209 2.27 6.415.66 2.961.37 5.99-.25 8.918-.73 3.471-1.8 6.106-4.15 8.824-3.04 3.508-7.85 4.914-12.16 5.961-4.35 1.054-8.37-.414-11.65-3.382zm18.69 3.684c3.25-1.311 6.29-3.19 8.54-5.808 1.89-2.212 3.75-5.451 4.23-8.417 1.18-7.249.79-13.973-4.83-19.823-2.55-2.658-7.59-4.499-11.55-3.206-2.24.731-4.31 2.149-5.75 4.007-1.5 1.933-1.72 4.339-1.8 6.711-.1 2.753-.91 4.954-3 6.831-1.59 1.435-3.32 2.747-5.09 3.954-3.91 2.666-4.11 5.517-3.12 9.044.88 3.127 3.77 5.48 6.61 6.819 5.29 2.484 10.49 2.022 15.76-.112zm28.13-16.469c.94 1.079.96 1.836 0 2.736-1.57 1.466-3.46 1.652-5.4 1.13-1.76-.476-3.39-1.307-4.45-2.828-.91-1.304-.65-2.232.77-2.847 3.63-1.572 6.66-.969 9.08 1.809zm-10.48-4.185c-2.08.677-2.98 3.115-1.92 5.048 1.21 2.233 3.19 3.877 5.42 5.045 2.9 1.521 5.74 1.53 8.41-.605 2.07-1.657 2.47-3.384 1.26-5.701-.97-1.864-2.38-3.214-4.38-4.027-2.99-1.218-5.93-.698-8.79.24zm-.85-13.687c-.76-.902-.65-2.895 1-2.618 1.54.259 4.95.684 5.08 2.781.17 2.597-5.23.839-6.08-.163zm8.94 1.527c.8-.786.57-1.6.28-2.378-1.17-3.075-4.76-5.076-8.09-4.563-2.04.312-3.95 1.855-4.4 3.616-.52 2.048.8 3.136 1.99 4.22 2.54 1.922 7.85 1.422 10.22-.895zm-31.82 44.305c.7-1.213 2.62-.382 3.46.327 1.3 1.102 1.95 2.943 2.7 4.411 1.05 2.068-1.46 3.229-3.22 2.648-2.38-.784-4.13-5.305-2.94-7.386zm.82 7.799c1.99 2.154 4.57 3.407 6.47.826a5.72 5.72 0 00.98-2.152c.55-2.592-1.43-6.852-3.75-8.25-1.52-.922-4.17-1.01-5.33-.133-1.56 1.189-1.75 2.864-1.32 4.666.34 1.392 1.49 3.462 2.95 5.043zm22.85-10.309c.17.53.21 1.085.03 1.657-.76 2.467-3.18 3.008-5.27 2.179-2.59-1.026-5.26-5.204-5.13-8.038.06-1.337 1.34-2.533 2.75-2.271 2.05.377 3.72 1.513 5.08 3.036.83.936 2.11 2.108 2.54 3.437zm-11.67-6.442c-1.5 1.548-.92 3.171-.2 4.724 1.72 3.663 3.49 6.398 7.57 7.452 4.52 1.167 8.11-5.384 5.62-8.878-1.73-2.432-4.31-4.687-7.21-5.576-2.43-.741-4.18.627-5.78 2.278zm379.01-576.171c.18-.589.34-1.187.56-1.76.11-.28.34-.515.85-1.248-.01.805.11 1.184-.03 1.385-.41.58-.91 1.088-1.38 1.623zm-6.81 11.953c-1.84 2.51-4.47 3.36-7.51 3.331-5.56-.051-12.05-1.363-17.26-3.077-4.21-1.383-7.22-2.862-11.36-4.437-3.74-1.424-16.96-7.762-17.46-8.154-.78-.61-.95-1.438-.49-2.262.72-1.288 1.43-2.623 2.39-3.722.71-.818 1.69-1.68 3.03-.71.36.264 1.03.28 1.51.178 1.16-.254 2.09.239 2.95.829 6.53 4.427 13.74 7.469 21.06 10.199 4.23 1.578 8.72 2.519 13.16 3.42 3.44.7 9.23.86 13.22-.626-1.07 1.68-2.06 3.425-3.24 5.03zm-53.89-24.982c-6.34-4.004-15.87-9.345-21.81-14.62-4.15-3.45-6.55-7.194-9.21-11.274-.8-1.222-1.43-2.597-1.91-3.98-.79-2.26-.27-3.392 1.85-4.335 2.14-.95 4.36-1.621 6.74-1.608 8.01.049 15.77 1.521 23.17 4.56 3.2 1.318 15.89 7.57 19.01 9.298 4.23 2.343 8.35 4.905 12.45 7.472 2.14 1.34 4.15 2.89 6.21 4.354 5.25 3.719 10.43 7.564 14.42 12.658 2.55 3.247 3.99 7.004 2.39 11.236-1.1 2.928-2.85 4.25-6.02 4.315-7.28.15-12.99-1.537-20.39-4.344-3.6-1.091-14.89-7.51-17.23-8.732-.97-.508-1.65-1.138-2.24-2.103-1.18-1.952-2.98-2.88-5.36-2.577-.67.085-1.52.024-2.07-.32zm-20.09-10.858l4.74 2.847c-1.78-.639-3.79-.922-4.74-2.847zm-9.5-10.215c1.44 1.755 2.89 3.51 4.55 5.534-3.04-1.455-3.88-2.392-4.55-5.534zm26.11 27.205c-1.37 2.337-1.39 2.378-3.81.984-5.41-3.115-10.45-6.733-15.31-10.668-4.88-3.95-9.09-8.51-13.13-13.248-1.49-1.755-2.64-3.816-3.93-5.75-1.01-1.52-1.15-3.102-.43-4.82.94-2.235 2.23-4.24 3.45-6.296.23.063.35 1.83.52 2.857.57 3.37 5.62 12.264 10.17 16.842 5.02 4.931 11.48 8.257 17.43 11.614 2.03 1.14 4.12 2.144 6.17 3.243 1.25.672 1.31.877.61 2.22-.54 1.03-1.15 2.018-1.74 3.022zm-22.58-48.327c-.61 2.103-1.51 4.041-3.05 5.68.06-2.405 1.92-3.835 3.05-5.68zm2.16-.345c.35-.435 1.05-.729 1.63-.805a17.63 17.63 0 013.48-.128c7.86.234 22.71 5.744 27.31 7.584 6.65 2.668 12.95 5.85 19.22 9.566 6.23 3.51 13.31 7.675 19.06 12.069 2.99 1.946 10.87 9.041 13.69 13.733 1.23 1.541 1.79 3.328 2.33 5.156.29.98.19 1.616-1.06 1.67-.29.012-.61.506-.84.833-1.16 1.629-2.28 3.275-3.68 4.78l3.5-6.314-.39-.374c-.36.227-.72.453-1.3.821.15-.945.27-1.715.52-3.235-1.38 2.05-2.35 3.483-3.39 5.024-.5-1.412.32-2.34.82-3.353.5-1.012.97-2.04 1.27-3.175-1.49.852-1.88 2.564-3 3.673-2.04-1.46-2.06-1.509-1.2-3.369.33-.719.66-1.436.63-2.435l-2.31 2.004c-.51-.43-1.01-.803-1.45-1.24-4.96-4.957-10.51-9.177-16.32-13.065-4.3-2.882-8.65-5.692-13.1-8.331-2.72-1.613-18.94-9.76-23.57-11.553-.1-.038-.2-.09-.3-.123-.99-.346-.61-1.152-.61-1.832-.67.193-1.34.431-2.02.544-.14.022-.33-.458-.54-.662-.23-.22-.5-.388-.76-.579-.9 1.311-1.96.834-3 .503.1-.205.17-.42.25-.633.12-.316-.24-.639-.52-.415-.27.209-.43.478-.56.79-.01.025-.01.048-.01.073-.07-.007-.14-.024-.21-.024-1.18-.006-1.78-.854-1.29-2.227-.93.45-1.62.918-2.38 1.117-.71.185-1.23-.461-1-1.14.22-.658.55-1.28.56-2.119-.37.419-.81.795-1.1 1.268-.98 1.642-.96 1.655-3.24 1.209.48-1.034.94-2.036 1.45-3.137-1.58.205-1.8 1.529-2.47 2.414-.76.996-3.81 1.284-4.63.417-.16-.17-.18-.624-.08-.87.34-.802.74-1.575 1.12-2.358-.43.339-.91.639-1.23 1.058-.55.705-.97 1.507-1.62 2.17.19-1.951 1.15-3.54 2.34-4.98zm87.53 43.78c-5.8-9.602-14.75-16.124-24.13-21.995-6.07-3.92-18.15-11.22-27.16-14.932-6.67-2.68-12.62-5.265-20.24-7.435-4.41-1.398-9.07-1.84-13.77-1.764-3.17.05-4.67.081-7.57 1.017-2.2.71-4.06 2.192-4.98 3.404-.7.928-1.36 1.895-1.96 2.885-2.05 3.327-4.18 6.614-6.05 10.035-.84 1.542-.46 3.818.84 6.074 1.73 2.91 3.53 5.729 5.84 8.264 5.23 5.746 11.23 10.59 17.39 15.24 3.7 2.796 7.68 5.594 11.55 7.738.73.402 4.68 2.905 5.01 3.135 2.33 1.655 11.02 5.93 17.11 8.645 2.71 1.204 10.26 4.414 17.22 6.29 5.38 1.45 10.74 1.977 16.29 2.024 2.76.024 4.45-1.103 5.8-3.049 4.47-6.425 7.94-12.217 10.72-18.388.83-1.852-.9-5.514-1.91-7.188z" fill="#CDCCCE"/><path fill-rule="evenodd" clip-rule="evenodd" d="M1541.75 19.976c-.04-1.196.32-2.165 1.69-2.492-.35.626-.57 1.104-.86 1.535-.24.349-.55.64-.83.957zm73.16 38.089c-.41-1.246.22-1.82.99-2.883.11 1.39-.27 2.06-.99 2.883zm-1.14-3.078c-.06-.437-.17-.677-.1-.801.4-.677.85-1.323 1.27-1.981.65.704-.3 1.402-.57 2.092-.08.19-.3.347-.6.69zm-49.01-30.261l-.74.254c-.03-.122-.12-.31-.07-.355.21-.174.45-.304.68-.448.04.147.07.295.13.549zm37.47 22.374c-.13-.348-.3-.618-.24-.646.24-.101.55-.121.84-.17 0 .156.06.351-.01.461-.1.133-.31.195-.59.355zm-5.63-5.944c.08.35.21.558.14.637-.12.137-.36.194-.54.284-.09-.165-.29-.39-.24-.481.08-.159.32-.234.64-.44zm14.94 9.969c.03.324.08.587.06.835-.01.077-.2.115-.31.172-.06-.249-.15-.502-.16-.746 0-.08.2-.137.41-.261zm-30.88-18.933c.02.31.11.55.03.685-.08.12-.34.127-.52.184-.06-.197-.21-.439-.14-.58.06-.135.34-.166.63-.289zm9.54 6.163c.14.023.36.004.4.082.06.108-.01.288-.02.438-.14-.026-.35-.006-.41-.09-.06-.094.02-.283.03-.43zm-2.54-1.725c-.1.098-.21.198-.31.295-.08-.113-.23-.246-.21-.338.02-.11.2-.187.31-.279l.21.321zm-10.12-5.753c.05-.209.03-.426.08-.633.02-.1-.14-.172-.2-.084-.1.165-.16.324-.32.46-.36.323.33.733.44.257zm-2.85-1.632c-.01-.073-.11-.095-.16-.069-.31.168-.59.437-.45.807.03.074.12.095.19.081.38-.077.44-.487.42-.82zm-3.39-1.895a.8.8 0 01-.19.237c-.09.086-.12.208-.04.317.23.346.59-.194.68-.363.14-.28-.3-.455-.45-.191zm-2.91-1.048c-.13.146-.26.258-.33.444-.06.171.12.291.27.205a.84.84 0 00.38-.46c.07-.202-.18-.352-.32-.19zm-.64.175c.09-.244-.26-.47-.43-.251-.16.216-.33.433-.25.716.03.097.11.15.21.122.28-.079.38-.33.47-.587zm13.96 6.888c.01-.138-.15-.245-.26-.155-.24.183-.42.406-.36.707.02.097.11.155.2.12.29-.108.38-.377.42-.672zm3.01-.06c0-.102-.14-.192-.23-.132-.26.176-.5.435-.43.77.02.086.14.158.23.127.31-.116.42-.45.43-.765zm1.95 2.171c.02-.159-.17-.29-.3-.18-.21.168-.31.318-.23.574.03.084.13.1.2.08.24-.063.3-.236.33-.474zm6.01 3.866c.05-.119-.13-.233-.2-.119-.15.233-.3.31-.4.583-.07.19.18.357.31.186.18-.229.17-.4.29-.65zm3.02-.086c-.01-.06-.1-.117-.16-.097-.27.091-.39.295-.52.504-.04.063-.07.154 0 .238l.06.085c.04.055.09.085.16.09l.1.009c.1.01.17-.05.2-.119.11-.22.23-.438.16-.71zm3.04 3.06c.03-.083-.15-.196-.2-.12-.17.227-.65.39-.51.748.03.052.09.112.16.11.49-.01.44-.446.55-.738zm.96 2.131c.08-.187-.19-.36-.32-.185-.15.214-.24.35-.28.602-.02.121.14.227.23.14.2-.172.26-.313.37-.557zm6.56 2.135c.11-.203-.11-.328-.23-.145-.25.353-.65.748-.92 1.084-.26.31-.34.62-.57.932-.12.168-.09.447.09.425.77-.096 1.26-1.597 1.63-2.296zm.89 1.813c-.01-.24-.31-.042-.35.197-.13.734-1.04 1.357-1.32 2.019-.07.162-.01.261.11.233.62-.149 1.63-1.708 1.56-2.45zm1.57.872a.199.199 0 00-.2-.112c-.37.056-.56.449-.47.785.02.082.16.169.25.142.33-.105.57-.46.42-.815zm4.02 3.082c.02-.13-.19-.263-.29-.172-.22.189-.41.417-.39.723.01.13.15.223.27.157.27-.147.37-.42.41-.708zM398.628 651.575c-.568 1.268-4.16.681-4.562.897a2.762 2.762 0 00-.664-.679c-1.23-.914-2.832-.518-4.253-.471-.123.003-.234.026-.353.035 1.291-.377 2.58-.892 3.663-1.345.483-.202 1.17-.467 1.844-.8.926-.247 1.763-.73 2.778-.742 1.493-.022 2.021 2.044 1.547 3.105zm.054 5.529c-.491 2.077-3.223 1.134-4.517 1.293-.094.012-7.288-2.354-7.369-2.454 1.006.369 5.01.324 5.077.332 1.477.18 3.228-1.196 3.421-2.802.097.04 1.478.447 2.001.559.361.079.843.056 1.133.363.454.486.424 1.989.254 2.709zm-.506 5.768c-.352.456-.588.559-1.227.6-.757.052-1.455-.218-2.153-.456 1.74-1.284.641-3.453.611-3.54.704.056 1.431.078 2.123.031.857.367 1.302.564 1.265 1.457-.021.507-.284 1.471-.619 1.908zm-4.59-1.155c-1.183 1.396-2.673.508-3.345.178-.835-.408-1.748-.662-2.598-1.038-.471-.207-1.388-.456-1.847-.818.687-.659 1.122-1.624 1.102-2.564.855.338 1.87.534 2.4.68 1.237.343 3.134.482 4.156 1.27.132.054.616 1.718.132 2.292zm-1.866 4.783c-.42.968-1.346 2.201-2.467 1.948-.417-.094-1.686-1.414-1.638-1.495.758-.42.887-1.765.496-2.6-.339-.721-.802-1.322-1.315-1.875.198.092.391.18.559.267.679.344 5.071 2.128 4.365 3.755zm-1.368 6.227c-1.152.742-2.457 1.161-3.603.194-.323-.274-.605-.64-.953-.831.575-.325 1.315-.79 1.3-1.443.18-.47.125-.925-.047-1.435a6.464 6.464 0 00-.615-1.289 3.437 3.437 0 001.402-.442c.284.395.693.659 1.068.984.243.21.451.397.679.555.013.066.04.13.087.187.521.639 1.41.786 1.931 1.476.661.876-.511 1.566-1.249 2.044zm-7.622-1.244c-.98-.023-1.073-.773-1.384-1.582-.309-.805-.532-1.661-.845-2.458-.319-.814-.425-1.601-.658-2.42-.013-.216-.024-.433-.048-.639.746-.013 1.518-.344 2.095-.905.1.394.239.781.34 1.157.269 1.002.737 2.073 1.505 2.613.154.107.323.189.501.252.18.422.331.851.428 1.354.071.379.164.817.12 1.194-.01.098-.047.197-.085.295-.201.192-.402.389-.621.543-.386.271-.88.609-1.348.596zm-.141 4.003c-.67.89-2.163 1.329-2.979.714-.469-.356-.539-.545-.693-1.239-.154-.703-.258-1.402-.454-2.093-.178-.623-.202-1.549-.668-1.991.119-.013.234 0 .354-.027.667-.146 1.446-.619 1.639-1.368.296 1.099.796 2.554 1.518 3.105.203.153.425.249.654.312.344.906 1.236 1.784.629 2.587zm-4.546 2.522c-.634.694-3.269.717-4.047-.483-.462-.713.011-1.879.047-2.185.688-.108 1.313-.406 1.627-1.012.368-.713.2-1.817.372-2.592.101-.466.127-.861.059-1.253.361.113.738.16 1.124.168-.006.067.211 4.064.491 5.134a2.767 2.767 0 001.079 1.567c-.243.422-.287.145-.752.656zm-4.932-3.569c-1.239-.185-1.435-1.23-1.262-2.253.195-1.168.37-2.426.706-3.562.145-.492.288-.885.293-1.281.522-.165.971-.439 1.24-.862-.137 1.254-.362 2.78.649 3.634.328.279.685.498 1.058.684-.305.737-.458 1.547-.76 2.271-.458 1.11-.568 1.571-1.924 1.369zm-4.272-9.052c-.236-.948.517-2.168.928-3.007.222-.452.58-.914.796-1.39a1.47 1.47 0 00.246-.33c.975.228 2.174.179 2.986-.183-.092.399-.168.798-.258 1.171-.255 1.034-.408 2.087-.691 3.116a4.47 4.47 0 01-.255.666c-.165.103-.292.257-.483.427-.906.807-2.904 1.004-3.269-.47zm1.024 11.782c-.679.578-1.536.263-2.21-.117-1.602-.902-.604-2.845.112-4.041.288-.481.608-1.003.742-1.553.62-.439 1.233-1.185 1.718-1.976-.129.815-.199 1.637-.32 2.305-.257 1.424-.337 2.78.89 3.532-.289.647-.481 1.466-.932 1.85zm-4.774-7.615c-.492-.58-.306-.84.102-1.504.3-.491.657-.915 1.014-1.361.756-.941 1.308-1.837 1.65-3.037a.486.486 0 00-.012-.304c.232-.166.455-.352.666-.556.116-.113.242-.209.363-.314-.729 1.554-1.064 3.291-.002 4.331.253.25.577.434.925.577-.51.508-.827 1.2-1.261 1.835-.273.397-.624 1.001-1.086 1.182-.742.289-1.853-.252-2.359-.849zm-2.672 3.479c-.691.442-1.161.671-1.912.161-.399-.272-.853-.524-1.2-.867-1.802-1.782 1.742-4.844 1.66-4.961.623-.262 1.224-.65 1.75-.997.715-.475 1.578-.993 2.119-1.714.324-.011.649-.071.96-.176-.178.273-.353.551-.561.82-.472.609-1.078 1.097-1.534 1.715-1.139 1.544-1.519 2.562-.021 3.888.151.132.309.256.471.376-.627.487-1.025 1.303-1.732 1.755zm-4.581-5.443c-.718.436-1.469 1.134-2.319.807-.608-.232-.935-.815-1.334-1.401-1.327-1.953 1.067-2.441 2.229-3.517.003.132-.011.249.008.392.193 1.432 1.144 2.679 2.374 3.132-.324.19-.642.398-.958.587zm-3.643-5.142c-1.15.097-1.191-.002-1.729-.857-.248-.395-.656-.944-.67-1.426-.026-.867.71-.864 1.423-1.12.79-.284 1.565-.432 2.353-.569.163.824.658 1.62 1.377 2.037 1.13.658 2.507.518 3.847.222-.246.125-2.995 1.407-6.601 1.713zm-1.57-7.121c-1.158-.023-1.983-.302-1.806-1.763.044-.37.27-1.354.612-1.566.343-.211 5.306-.409 5.704-.526.095.134.735.802.889.834.901.586 2.778.88 3.772 1.167-.053.11-.112.219-.143.325a3.994 3.994 0 00-.158.938c-3.803 1.167-8.236.604-8.87.591zm.186-6.331c.02-.599.13-1.072.436-1.589.288-.487.568-.773 1.056-.938.336.136.698.221 1.054.309.833.209 1.653.492 2.49.674.035.008.077-.009.116-.01.237.201.484.399.733.596.301.24.681.542 1.1.833-1.115.061-2.277.622-2.627 1.6-.404-.11-.824-.145-1.268-.209-.826-.116-1.779-.236-2.577-.453-.629-.168-.531-.251-.513-.813zm4.55-5.529c-.154-.117-.307-.233-.437-.351-.62-.57-1.376-.937-2.023-1.46-.065-.129-.156-.164-.072-.499.131-.521.539-.697 1.055-.691 1.084.013 1.951.951 2.912 1.389-.663.344-1.204.915-1.435 1.612zm1.513-4.751c.098-.237.775-.589.957-.743.866-.739 1.5-.615 2.346-.002.281.203.539.437.83.615-.02.047-.17.685-.094.923-.113.441.183.757.407 1.148.331.585.522 1.24.876 1.825.187.306.388.651.6.985-.354-.391-.954-.68-1.344-.948-.759-.521-1.632-.913-2.508-1.21a2.698 2.698 0 00-1.229-.097c-.162-.034-1.211-1.605-.841-2.496zm1.942-4.124c.159-.774 1.776-1.407 2.429-1.693.242-.108.571-.316.824-.38.704-.179.763.079 1.191.461-.195.261-.342.552-.357.899-.034.825.458 1.733.893 2.484-.076.016-.159.022-.236.042a5.036 5.036 0 00-1.984 1.059c-.345-.417-.937-.736-1.376-1.006a2.742 2.742 0 00-1.15-.4c.049-.504-.346-.913-.234-1.466zm5.328 2.893c.792-.11 1.127.208 1.458.937.227.505.475 1.033.75 1.508a2.358 2.358 0 00-.83 2.093c.057.511.265.965.463 1.416.433.981.518 1.923.794 2.953.007.023.011.051.017.077-.718-.699-1.566-1.428-2.404-1.936 0-.014.013-.032.007-.041-1.229-1.418-2.419-4.52-2.471-4.604-.689-1.099 1.516-2.306 2.216-2.403zm.26-3.227c.679-.412 1.988-.755 2.791-.795.768-.037 1.035.629 1.264 1.209-.459.355-.805.796-.892 1.341-.136.833.294 1.472.632 2.202.325.702.375 1.471.598 2.188-.161.008-.319.035-.478.062.012-.22-.06-.446-.232-.726-.32-.529-.877-1.295-1.353-1.722-.618-.552-1.44-.72-2.268-.707.199-1.054-1.556-2.147-.062-3.052zm4.508-3.528c.616-.199 1.348-.209 1.997-.206.63.003 1.251-.057 1.881-.06.475-.001.696-.057.94.257.034.045.051.151.067.266-.382.132-.702.33-.895.632-.29.455-.294 1.141-.145 1.814-.801-.539-1.834-.41-2.973-.18-.239.047-.488.12-.735.208-.219-.536-.672-1.162-1.252-1.432.187-.575.348-1.05 1.115-1.299zm5.557 6.896c1.536-.682 2.349.932 2.328 2.166-.017.842-.681 2.03-.497 2.863-.312.276-.556.615-.664 1.037-.188.734-.722 2.562-.789 2.777-.2-.142-.459-.242-.824-.277-.571-.055-1.359.271-1.207.025 1.272-2.081.718-4.769.744-7.058.007-.696.213-1.224.909-1.533zm.054-6.037c.444-.148 1.103-.151 1.556-.096.646.08 2.365-.019 2.667.64.26.571-.551 2.099-.532 2.161-.502.526-.83 1.34-1.003 2.169-.588-.581-1.42-.846-2.393-.612a3.77 3.77 0 00-.541.179c-.041-.364-.165-.731-.315-1.086-.265-1.876-.296-3.067.561-3.355zm5.891 3.896c.805-.013 1.59-.153 2.072.464.75.958-.062 1.817-.276 2.772-.102.464-.414 1.118-.39 1.638-.16.176-.312.357-.437.523-.332.433-.663.849-1 1.28a3.56 3.56 0 01-.276.305 3.227 3.227 0 00-1.274-.297 5.252 5.252 0 00-1.004.08c.376-1.064.253-2.491.13-3.25a3.18 3.18 0 00-.162-.612c.285-.737.457-1.526.96-2.158.475-.599.852-.735 1.657-.745zm2.094-1.904c.356-.444.278-.717.979-.993.861-.338 2.201.042 2.836.625.747.689.458.264.174.936-.131.312-.448.619-.645.907-.598.875-1.015 1.793-1.539 2.704-.076.134-.295.395-.541.704.05-.18.111-.364.148-.54.27-1.285-.051-2.844-1.432-3.349-.2-.071-.44-.127-.69-.174.295-.201.46-.502.71-.82zm4.648 1.925c.422-.11.664.001 1.065.198.483.237 1.094.426 1.503.754.606.485-2.703 3.653-3.039 4.007-.327-.668-1.095-1.131-1.887-1.338.864-1.169 1.549-2.424 2.358-3.621zm3.066 4.05c.761.278 1.572.903 1.576 1.73.007 1.128-1.874 1.892-2.794 2.336-.72.347-1.819.549-2.454 1.107a3.933 3.933 0 00-.378.038 1.57 1.57 0 00-.455.102c-.645.17-1.261.445-1.557.625-.465.284-.918.623-1.362.975.585-.688 1.151-1.404 1.768-2.072.577-.623 1.368-1.196 1.62-2.039.043-.149.072-.292.084-.431.638-.531 1.21-1.144 1.886-1.637.682-.499 1.215-1.046 2.066-.734zm-7.597 14.755c-1.803-.956-.197-1.159.482-1.406.065-.025 3.285-.285 4.746-.341.736-.028 1.926-.277 2.56.187.446.326.47.941.249 1.236-.502.676-2.952.445-3.658.462-1.283.035-4.203-.044-4.379-.138zm-6.092 8.016c-.4-.829-.726-1.692-1.048-2.543-.2-.531-.341-1.096-.688-1.575.319-.012.641-.062.947-.108a3.803 3.803 0 001.597-.626c.173.183 2.803 2.515 2.418 4.403-.075.63-.48 1.169-1.207 1.427-1.329.47-1.578-.065-2.019-.978zm-3.756-.535c.304-.232 1.367-.216 1.515-.314.044.128.682 3.158 1.964 3.735-.19.719.585 3.644.539 4.41.035.648-1.36.801-2.47.855-1.378.067-1.759-.54-2.085-.965-1.197-1.566.392-7.26.537-7.721zm-3.846-3.894c.403-.977.947-1.978 1.545-2.817.112-.158.31-.374.485-.607.744.068 1.758.083 1.75 1.075 0 .07.037.121.086.153a.8.8 0 00-.112.245c-.233.936-.342 1.755-.877 2.578-.643.989-1.128 1.032-2.155.894-.73-.097-1.063-.694-.722-1.521zm-1.833-6.026c-.192-.19-.312-.436-.301-.678.048-1.063 1.236-.699 1.846-.489.756.261 3.048.703 3.135 1.363.07.525-.035 1.276-.61 1.395-.472.097-3.434-.537-4.07-1.591zm-2.619 4.344c-1.075.416-1.898.245-2.48.074-.464-.134-1.019-.434-1.157-.864-.159-.494.112-.957.536-1.238.011-.009.013-.021.025-.029.636.024 4.424-.326 5.589-.686.058.033 1.277.529 1.469.721.267.27.396.685.308 1.041a.05.05 0 01-.009.016c-1.406.376-2.853.641-4.281.965zm-2.05 5.022c.787-.702 1.955-1.186 2.854-1.754a15.47 15.47 0 001.098-.756c.371-.088.705-.101 1.036-.252-.303.738-.372 1.521.38 2.105-.629.413-2.245 1.59-3.578 2.477-.574.381-.737.642-1.739.155-1.025-.5-.776-1.331-.051-1.975zm-2.784.598c.232-.144.502-.256.784-.358-.007.043-.021.081-.025.127-.138 1.498.502 2.517 1.392 2.994-.641.355-1.267.848-1.818 1.207-.696.451-1.329.998-2.119.435-.492-.35-1.206-1.632-1.039-2.072.191-.502 1.221-1.143 1.592-1.437a14.09 14.09 0 011.233-.896zm8.152-12.554c-.041.042-.295.428-.273.591-.463-.009-.901.137-1.23.598-.694-.593-1.369-1.22-2.124-1.652-.556-.321-1.177-.586-1.693-.999-1.08-.86-.906-2.85.745-2.236 1.488.553 4.477 3.589 4.575 3.698zm1.598-8.251c.344.277.602.737.773 1.113.342.749.271 1.56.522 2.338.25.78.852 1.364 1.107 2.147-.822.458-1.552 1.129-2.596.706-1.121-.453-1.178-2.479-1.534-3.452a5.315 5.315 0 00-.434-.879c-.493-.844-.667-.814.006-1.732.636-.864 1.013-1.166 2.156-.241zm7.294 13.97c.456.9-.619 1.483-1.577 1.474-1.732-.017-2.061-1.305-2.315-1.547.358-.759.446-1.484 1.684-1.454 1.034.025 1.819.759 2.208 1.527zm2.432-8.545c-.329.76-.576 1.603-.986 2.323-.552.972-1.264.656-2.095.591-.026-.144-.053-.288-.074-.427-.052-.353-.097-.683-.169-.98.595-.753 1.065-1.538 1.334-2.505.275-.976.49-2.21 1.644-1.958 2.003.435.467 2.678.346 2.956zm2.772 3.154c.475-.114.937-.241 1.368-.01.308.165.504.603.534 1.001.103 1.28-2.775 2.562-3.655 2.773-.85.203-2.289.171-2.339-.864-.034-.756.176-1.167.727-1.8.947-.842 2.499-.89 3.365-1.1zm3.024-2.967c.565-.457 1.098-.874 1.796-1.094.134-.042.272-.065.411-.081.253.044.502.1.749.234.26.139.744.408.867.696.198.472-.144 1.003-.492 1.244-.489.337-1.065.587-1.572.899-.522.319-1.046.665-1.598.93a2.81 2.81 0 00-.625-.877c-.56-.514-1.066-.64-1.655-.562.728-.429 1.455-.854 2.119-1.389zm-3.857-3.572c.152-.141 1.959-2.48 3.005-2.588.765-.058 1.539-.017 1.717.879.201 1.024-1.595 2.46-2.144 3.139-.777.958-1.646 2.376-2.787 2.951a.488.488 0 00-.303-.012c-.282.093-.514-.052-.751-.173.169-.401.343-.804.544-1.191.241-.464.585-.875.766-1.366.004-.011.004-.02.005-.031.069-.126.124-.264.154-.412.096-.47.003-.871-.206-1.196zm-7.29 3.44c.596-.201.861.335.907 1.212.049.927.085 1.837.12 2.76-.218.522-.047 1.038-.604.985-.195-.019-1.481-.421-1.371-1.306-.11-1.39.128-3.372.948-3.651zm-.286-6.268a32.23 32.23 0 01-.012 4.076c-.04.665-.36 1.462-.254 2.15-.049-.107-.088-.202-.146-.333-.381-.856-.426-1.499-.596-2.371-.216-1.11-1.053-2.581-2.126-3.247a2.888 2.888 0 00-.862-.342c.212-.466.115-1.054.01-1.558-.246-1.213-1.47-2.773.04-3.66.558-.328 1.354-.422 1.999-.475.819-.066 1.128-.007 1.525.622.342.541.547.999.594 1.648.033.461-.024.775.141 1.116-.341.644-.374 1.457-.313 2.374zm-16.679 4.904c-.12-.907.905-1.788 1.707-1.669.428.063 1.014.415 1.394.584.498.222.955.524 1.425.792-.288.232-.535.583-.711 1.119-.473 1.455.237 2.429 1.176 3.101-.053.058-.417.3-.466.397-.72-.616-1.59-.882-2.304-1.51-.479-.421-2.04-1.434-2.221-2.814zm.405 7.062c-.359-.328-.655-.603-.13-1.078.356-.321 1.751-.702 2.94-.656 2.448.263 4.426 1.018 6.647 1.47.02.2.061.394.129.582-.846.064-1.744.35-2.517.492-.628.117-1.475.206-2.175.448-1.066.061-3.923-.373-4.894-1.258zm.207 4.97c.882-.088 2.117-.204 2.983-.704.11.257.252.501.459.716.779.807 1.744 1.204 2.839 1.235.03 0 .066-.005.098-.005.041.201-2.947 1.17-4.173 1.494-.592.157-1.364.553-1.974.562-.86.009-2.524-.594-2.767-1.73-.577-1.048 1.901-1.506 2.535-1.568zm25.884 1.849c-.666.806-1.265.376-1.835-.121-.41-.358-.852-.783-1.166-1.222-.509-.708-.944-1.435-1.503-2.065a.362.362 0 00.245-.327c.131-1.406 1.655-.641 2.332-.339.714.32 1.116.754 1.628 1.338.316.359.571.634.771.984.006.049-.003.091.011.14.086.326-.242 1.321-.483 1.612zm-3.503 1.449c.388.471.83.9 1.288 1.137a1.828 1.828 0 001.455.115c.161.694 1.041 1.377 1.351 1.888.259.429.758 1.277.875 1.784.103.437-.071.693-.248.962-.561.605-.826 1.317-1.901 1.066a1.622 1.622 0 01-.44-.173c-.063-.06-.12-.13-.186-.184-.029-.025-.065-.027-.101-.03-.769-.667-1.078-1.956-1.653-2.811 1.001-.849-.481-3.645-.44-3.754zm13.324-15.728c1.991 1.44-.925 2.567-2.176 3.07-1.875.756-4.085 1.309-6.148 1.652.006-.051.034-.098.034-.147.925-.11 1.933-.721 2.717-1.048.936-.391 2.101-.772 2.213-1.823.045-.426-.209-.863-.599-1.249 1.17-.558 3.108-1.073 3.959-.455zm5.62 5.749c-.116-1.298-.618-3.272-2.159-3.518-.505-.082-1.011-.023-1.508.108.023-.067.064-.129.079-.198.299-1.478-.931-3.281-2.373-3.621-.446-.108-.869-.055-1.278.071l.414-.279c1.382-.925 2.043-2.29 1.114-3.885-.361-.621-1.388-1.27-2.349-1.499.685-.666.972-1.718.297-2.523-.35-.416-.855-.549-1.324-.785-.469-.23-1.005-.476-1.519-.585-.146-.032-.297-.018-.446-.017.498-1.001.178-1.694-.954-2.406-1.212-.762-2.88-1.088-4.184-.358-.729.405-1.636 1.78-1.525 2.649a5.72 5.72 0 00-.614-.007c.234-.466.322-1.017.197-1.512-.448-1.796-2.222-1.719-3.714-1.864-.502-.047-1.228-.117-1.944-.079.066-.522-.076-1.088-.482-1.418-.78-.636-2.488-.116-3.395-.069-1.913.099-4.282.448-4.174 2.746-.877.036-1.9.424-2.596.737-.025.01-.044.025-.069.036-.39-.507-1.028-.869-1.666-.911-.848-.057-1.867.655-2.569 1.054-.682.386-1.936.887-2.249 1.683-.336.852.195 1.517.558 2.211a3.144 3.144 0 00-.999.334c-.809.427-1.841 1.507-2.086 2.417-.096.36-.009.69.151 1.007-1.136-.593-2.363-1.049-3.509-.383-.569.33-.884.808-.894 1.481-.023 1.408 1.698 2.365 2.216 2.85.444.414.907.796 1.372 1.186.059.24.164.459.281.672a1.395 1.395 0 00-.114-.021c-.635-.142-2.109-.546-2.245-.577-2.15-.494-3.204 2.996-2.938 4.565.113.663.491.975.973 1.165-.251.018-.511.018-.743.058-1.343.229-1.91 1.909-1.975 3.121-.1 1.901 1.347 2.523 2.948 2.666.287.026.623.064.974.1-.778.249-1.745.528-2.4.94-1.475.934-.57 3.074.105 4.25 1.002 1.741 1.819 2.012 3.705 1.442.482-.147 1.195-.268 1.926-.443-.026.056-.032.126-.05.187-1.309.083-2.703.682-3.603 1.659-.938 1.019-.303 2.156.357 3.142.822 1.232 1.703 2.095 3.311 1.714.227-.055.444-.138.655-.231-.367 1.095-.142 2.303 1.057 3.294.969.804 2.53 1.951 3.848 1.44 1.121-.434 2.361-1.945 2.922-3.132.345.156.703.278 1.066.32a5.359 5.359 0 01-.252.488c-.393.648-.97 1.579-1.129 2.337-.36 1.714-.115 2.771 1.25 3.466 1.321.67 3.077 1.26 4.339.085.567-.525.853-1.732.707-2.624.19.056.379.112.599.146-.202.803-.172 1.816-.026 2.385.277 1.068 1.975 1.55 2.924 1.6.663.037 2.56.44 3.504-.447.415-.388.54-.818.367-1.277.413.148.86.227 1.316.22 1.226-.02 3.102-.78 3.795-1.849.701-1.08.09-2.214-.588-3.182a5.11 5.11 0 00.799-.285c.376 1.192 1.545 2.633 2.83 2.628 1.595-.004 3.414-.973 4.552-2.021 1.047-.968 1.848-1.984.705-3.179a14.618 14.618 0 00-.803-.792c.504-.321.937-.813 1.341-1.301.795-.964 1.545-2.204.728-3.289a3.372 3.372 0 00-.655-.646c.034-.011.066-.032.097-.046.616.25 1.29.531 1.933.69 1.081.27 2.977.278 3.626-.757.69-1.095 1.18-4.002.117-5.033.769-.401 1.323-1.104 1.394-2.359.056-.985.103-2.167-.585-2.898 1.446-.296 1.347-1.809 1.236-3.044z" fill="#CDCCCE"/><ellipse cx="398.797" cy="259.245" rx="10.001" ry="10.006" fill="#FFDA47"/><ellipse cx="281.788" cy="139.175" rx="5" ry="5.003" fill="#7C58D3"/><ellipse cx="1427.88" cy="10.1" rx="10.001" ry="10.006" fill="#7C58D3"/><ellipse cx="1660.89" cy="168.192" rx="15.001" ry="15.009" fill="#FF47A2"/><ellipse cx="10.766" cy="86.144" rx="10.001" ry="10.006" fill="#FFDA47"/></svg>