<svg width="50" height="44" fill="none" xmlns="http://www.w3.org/2000/svg"><path fill-rule="evenodd" clip-rule="evenodd" d="M38.895 33.716l-.04.211c-.106.539-.41 1.981-.79 2.85-.475 1.084-2.749 5.062-2.749 5.062l.585 2.16h2.32s.291-.835-1.115-1.109c-1.025-.2 1.888-3.88 1.888-3.88l2.694-2.45-2.793-2.844z" fill="#CA7055"/><path fill-rule="evenodd" clip-rule="evenodd" d="M18.411 22.771l.424-.717C28.74 27.924 41.377 26.51 41.5 26.5l-.5.5c-.5.5.5.5-2 .5s-12.983-.221-20.589-4.729zM4.597 44l.906-.009a.514.514 0 00.45-.746 1.693 1.693 0 00-1.175-.915l-.181-.038-.657-1.996-2.376-1.535L0 41.38l2.198 1.88c.558.478 1.267.74 2.001.74h.398zm8.603-3.219l-.537 2.184a.835.835 0 00.81 1.035h5.337a.757.757 0 00.737-.931l-.003-.014a.757.757 0 00-.546-.559l-1.793-.467-.984-1.248H13.2z" fill="#362129"/><path fill-rule="evenodd" clip-rule="evenodd" d="M6.123 12.058h3.321V7.373H6.123v4.685z" fill="#DFA278"/><path fill-rule="evenodd" clip-rule="evenodd" d="M11.558 22.276H5.713l-.526-9.668a2.496 2.496 0 012.496-2.495h.07c2.391 0 4.33 2.99 4.33 5.382l-.525 6.78z" fill="#F3B62C"/><path fill-rule="evenodd" clip-rule="evenodd" d="M17.14 40.781h-4.268l-2.561-7.123-3.49-5.392a7.926 7.926 0 01-1.183-5.494l.075-.496h5.846l3.02 9.936 2.561 8.57z" fill="#27313F"/><path fill-rule="evenodd" clip-rule="evenodd" d="M4.596 41.38l-3.033-2.62 3.624-6.495.526-9.99h5.845L9.105 34.16l-4.509 7.22z" fill="#3C4758"/><path fill-rule="evenodd" clip-rule="evenodd" d="M18.058 20.948l-1.904 1.904.565.564a1.332 1.332 0 001.885 0l.019-.02c.52-.519.52-1.363 0-1.884l-.565-.564z" fill="#E2B188"/><path fill-rule="evenodd" clip-rule="evenodd" d="M9.15 12.04a1.332 1.332 0 00-1.885 0l-.02.019c-.52.52-.52 1.364 0 1.884l8.91 8.909 1.903-1.904-8.908-8.909z" fill="#F8D82B"/><path fill-rule="evenodd" clip-rule="evenodd" d="M6.633 5.804c-.263-.652.065-2.132.788-1.659.722.474.92 1.659.92 1.659l.59-1.344.513-2.329.7-.047c.805-.054 1.479-.724 1.282-1.43C11.32.27 10.705 0 8.34 0 4.86 0 4.071 1.511 4.071 3.375c0 1.321.885 3.015 1.774 3.853.38-.345.97-.973.788-1.424z" fill="#64301F"/><path fill-rule="evenodd" clip-rule="evenodd" d="M9.444 2.131L8.93 4.46l-.59 1.344s-.197-1.185-.92-1.659c-.722-.473-1.05 1.007-.788 1.659.182.45-.407 1.08-.787 1.424.367.345.814.633 1.378.825 4.86 1.66 4.86-2.34 4.86-4.203 0-.686-.35-1.965-.739-2.498l-1.9.78z" fill="#E2B188"/><path fill-rule="evenodd" clip-rule="evenodd" d="M24.64 34.824s2.373 3.022 1.729 4.313c-.643 1.291-1.376 1.84-1.376 1.84L27.437 44h2.534s.202-.875-.495-1.163c-.695-.288-.984-.176-.984-.176l-1.273-1.754s4.39-5.616 3.203-8.939c-1.188-3.323-5.782 2.856-5.782 2.856z" fill="#BD5E44"/><path fill-rule="evenodd" clip-rule="evenodd" d="M30.174 33.12a3.395 3.395 0 11-6.789 0 3.395 3.395 0 016.79 0zm16.589-3.963l-.504-.126.394.246 1.2.557s-.35.548-1.94.147l-.206-.142c-.252.09-.52.142-.803.142-.085 0-.169-.01-.253-.02a2.989 2.989 0 01-.61-.137c.006.74.006 1.513.012 2.27.026 3.372-1.682 4.118-1.682 4.118l-3.683-6.704 4.05-3.352a2.54 2.54 0 011.304-1.076l.01-.011v.01c.268-.1.552-.157.852-.157 1.155 0 2.117.777 2.421 1.834.894.289 2.307.803 2.307 1.134 0 .483-1.508 1.619-1.508 1.619l-1.361-.352z" fill="#E1903F"/><path fill-rule="evenodd" clip-rule="evenodd" d="M26.517 32.725v-3l12.17-.215v8.405s-5.34.083-12.17-5.19z" fill="#E1903F"/><path fill-rule="evenodd" clip-rule="evenodd" d="M23.708 33.68s.31 3.83-.939 4.551c-1.25.721-1.128 1-1.128 1l-.948 3.5L21.924 44h1.273s.542-.344.12-.968c-.422-.625-1.223-.476-1.223-.476l.743-1.899s6.424-2.739 7.269-6.166c.844-3.426-6.398-.81-6.398-.81zm15.272 1.366l.115.182c.29.466.723 3.352 1.037 4.247C40.524 40.59 44.001 44 44.001 44h1.465s.767-.604.371-.915c-.321-.25-.786-.466-1.458-.529-1.04-.096-1.716-3.706-1.716-3.706l.299-3.63-3.982-.174zM25.252 30.09s-1.275.12-2.325 1.346c-1.052 1.226-2.409 4.99-3.941 5.078-1.532.088-2.101 0-2.101 0s-.832 1.595 1.094 1.849c1.927.253 2.016.428 3-.447.984-.876 3.254-5.65 3.254-5.65l1.019-2.177z" fill="#E1903F"/><path fill-rule="evenodd" clip-rule="evenodd" d="M45.013 30.065l-.881.88-3.572-3.571.88-.881 3.573 3.572z" fill="#362129"/><path fill-rule="evenodd" clip-rule="evenodd" d="M45.68 24.586h-2.09l-.393 2.759s.927.574.963.706c.037.13 1.252-.682 1.252-.682l-.032-2.306.3-.477z" fill="#F3B62C"/><path fill-rule="evenodd" clip-rule="evenodd" d="M45.68 24.586l-.3.477.032 2.306.538-1.682-.26-1.101h-.01z" fill="#CA7055"/><path fill-rule="evenodd" clip-rule="evenodd" d="M43.197 33.713a4.203 4.203 0 11-8.405-.001 4.203 4.203 0 018.405 0z" fill="#E1903F"/></svg>