<svg width="39" height="44" fill="none" xmlns="http://www.w3.org/2000/svg"><path fill-rule="evenodd" clip-rule="evenodd" d="M30.762 16.554v22.828H26.74V26.74a7.097 7.097 0 00-7.096-7.097h-.227V5.213l11.346 11.34z" fill="#A84A37"/><path fill-rule="evenodd" clip-rule="evenodd" d="M19.416 5.213v14.43A7.099 7.099 0 0012.4 26.74v12.642H8.06V16.56L19.41 5.207l.005.006z" fill="#AD513B"/><path fill-rule="evenodd" clip-rule="evenodd" d="M8.059 16.56V44H4.573V20.045L8.06 16.56z" fill="#BE6A4B"/><path fill-rule="evenodd" clip-rule="evenodd" d="M19.416.29v4.912L2.468 22.15 0 19.684 19.405.278l.006.005.005.005z" fill="#CA7055"/><path fill-rule="evenodd" clip-rule="evenodd" d="M38.827 19.683l-2.468 2.467L19.416 5.213V.279l19.41 19.404z" fill="#BE6A4B"/><path fill-rule="evenodd" clip-rule="evenodd" d="M34.254 20.045V44h-3.491V16.553l3.491 3.492z" fill="#B2573F"/><path fill-rule="evenodd" clip-rule="evenodd" d="M19.416.279v.01l-.005-.005.005-.005z" fill="#D4C0D4"/><path fill-rule="evenodd" clip-rule="evenodd" d="M19.411 5.207l.005-.005v.011l-.005-.006z" fill="#DFA278"/><path fill-rule="evenodd" clip-rule="evenodd" d="M8.059 41.93h11.357v-2.548H8.06v2.547z" fill="#CA7055"/><path fill-rule="evenodd" clip-rule="evenodd" d="M26.74 26.74v12.642h-7.324V19.643h.227a7.097 7.097 0 017.096 7.096z" fill="#49231D"/><path fill-rule="evenodd" clip-rule="evenodd" d="M19.416 19.643v19.739H12.4V26.74a7.099 7.099 0 017.017-7.097z" fill="#3E201A"/><path fill-rule="evenodd" clip-rule="evenodd" d="M19.416 41.93h11.346v-2.548H19.416v2.547z" fill="#BE6A4B"/></svg>