<svg width="60" height="39" fill="none" xmlns="http://www.w3.org/2000/svg"><path fill-rule="evenodd" clip-rule="evenodd" d="M30 7.974V6.62h-9.89l-2.802-2.803a10.01 10.01 0 00-7.12-2.951 10.014 10.014 0 00-7.129 2.95l-.108.11A10.014 10.014 0 000 11.053a10.02 10.02 0 002.95 7.128l1.53 1.522-1.53 1.531A10.016 10.016 0 000 28.361c0 2.694 1.05 5.226 2.95 7.128l.11.101a9.985 9.985 0 007.127 2.952 9.98 9.98 0 007.12-2.952l2.803-2.796H30v-1.353H19.547l-3.195 3.195a8.666 8.666 0 01-6.166 2.552 8.681 8.681 0 01-6.173-2.552l-.108-.109C.507 31.13.507 25.592 3.912 22.188l2.485-2.485-2.485-2.483a8.65 8.65 0 01-2.559-6.167c0-2.329.908-4.521 2.559-6.173l.102-.101a8.66 8.66 0 016.173-2.56c2.329 0 4.521.908 6.166 2.56l3.195 3.195H30z" fill="#F3B62C"/><path fill-rule="evenodd" clip-rule="evenodd" d="M55.133 23.15a7.374 7.374 0 010 10.423l-.11.108a7.356 7.356 0 01-5.21 2.153 7.357 7.357 0 01-5.212-2.153l-3.594-3.594H30V9.327h11.007L44.6 5.733a7.364 7.364 0 015.211-2.16c1.889 0 3.771.725 5.212 2.16l.11.108a7.374 7.374 0 010 10.424l-3.447 3.438 3.447 3.447z" fill="#F8D82B"/><path fill-rule="evenodd" clip-rule="evenodd" d="M55.518 19.703l1.524-1.522A9.994 9.994 0 0060 11.053a9.989 9.989 0 00-2.96-7.127l-.1-.11a10.014 10.014 0 00-7.129-2.95 10.01 10.01 0 00-7.127 2.95L39.89 6.62H30v1.354h10.444l3.202-3.195a8.646 8.646 0 016.166-2.56c2.329 0 4.522.908 6.167 2.56l.109.1a8.703 8.703 0 012.558 6.174 8.675 8.675 0 01-2.558 6.167l-2.485 2.483 2.485 2.485c3.404 3.404 3.404 8.942 0 12.34l-.102.108a8.697 8.697 0 01-6.174 2.552 8.668 8.668 0 01-6.166-2.552l-3.202-3.195H30v1.354h9.889l2.796 2.795a9.982 9.982 0 007.127 2.952 9.986 9.986 0 007.128-2.952l.102-.101A9.992 9.992 0 0060 28.36a9.99 9.99 0 00-2.96-7.127l-1.523-1.53z" fill="#EC982D"/><path fill-rule="evenodd" clip-rule="evenodd" d="M56.088 22.188c3.404 3.404 3.404 8.942 0 12.34l-.102.108a8.697 8.697 0 01-6.174 2.552 8.668 8.668 0 01-6.166-2.552l-3.202-3.195H30v-1.354h11.007L44.6 33.68a7.357 7.357 0 005.211 2.153 7.354 7.354 0 005.212-2.153l.11-.108a7.374 7.374 0 000-10.423l-3.447-3.446 3.447-3.44a7.374 7.374 0 000-10.423l-.11-.108a7.362 7.362 0 00-5.212-2.16c-1.888 0-3.77.725-5.211 2.16l-3.594 3.594H30V7.974h10.444l3.202-3.195a8.646 8.646 0 016.166-2.56c2.329 0 4.522.908 6.167 2.56l.109.1a8.703 8.703 0 012.558 6.174 8.675 8.675 0 01-2.558 6.167l-2.485 2.484 2.485 2.484zM30 9.327v20.76H18.985L15.4 33.68a7.371 7.371 0 01-5.212 2.153 7.347 7.347 0 01-5.212-2.153l-.108-.108a7.374 7.374 0 010-10.423l3.438-3.447-3.438-3.438a7.374 7.374 0 010-10.424l.108-.108a7.354 7.354 0 015.212-2.16 7.38 7.38 0 015.212 2.16l3.587 3.594H30z" fill="#FBE15B"/><path fill-rule="evenodd" clip-rule="evenodd" d="M4.867 5.84a7.374 7.374 0 000 10.425l3.438 3.439-3.438 3.446a7.374 7.374 0 000 10.423l.108.108a7.347 7.347 0 005.212 2.153 7.37 7.37 0 005.213-2.153l3.587-3.594H30v1.354H19.548l-3.195 3.195a8.666 8.666 0 01-6.166 2.552 8.681 8.681 0 01-6.172-2.552l-.11-.108c-3.398-3.398-3.398-8.936.007-12.34l2.485-2.484-2.485-2.484a8.65 8.65 0 01-2.558-6.167c0-2.329.907-4.521 2.558-6.173l.103-.101a8.66 8.66 0 016.172-2.56c2.329 0 4.521.908 6.166 2.56l3.195 3.195H30v1.353H18.987L15.4 5.733a7.378 7.378 0 00-5.213-2.16c-1.89 0-3.777.725-5.212 2.16l-.108.108z" fill="#F8D82B"/><path fill-rule="evenodd" clip-rule="evenodd" d="M39.85 24.622l-.22-.755c.144.244.22.494.22.755z" fill="#F3BE27"/><path fill-rule="evenodd" clip-rule="evenodd" d="M24.979 28.543c-.662 0-1.243-.302-1.479-1.22l-.187-.73c-.256-1 .162-2.062.992-2.52l1.208-.665c.74-.409 1.282-1.164 1.48-2.065l.074-.344c.32-1.456 1.48-2.48 2.813-2.48h.023v8.855l-.076.002c-1.148.039-2.273.331-3.346.794-.472.204-1.01.373-1.502.373zm1.512-10.003s-1.933-.439-1.92-2.907c.006-1.026.944-3.194 2.395-3.919a1.42 1.42 0 01.641-.166c1.005 0 1.464 1.327 1.464 1.327s.072 3.12 0 4.282c-.073 1.162-2.58 1.384-2.58 1.384zm-3.545 4.75c-.484 0-1.951-.165-2.634-2.091-.342-.968-.194-3.325.925-4.5.307-.322.624-.439.923-.439.79 0 1.452.818 1.452.818s1.126 2.912 1.45 4.03c.326 1.116-1.957 2.175-1.957 2.175s-.058.008-.159.008z" fill="#F8C630"/><path fill-rule="evenodd" clip-rule="evenodd" d="M34.827 28.543c-.492 0-1.03-.168-1.502-.373-1.066-.46-2.184-.752-3.325-.793V18.52c1.302.037 2.426 1.05 2.74 2.48l.074.343c.198.901.74 1.656 1.48 2.065l1.206.665c.831.458 1.25 1.52.994 2.52l-.188.73c-.236.918-.817 1.22-1.479 1.22z" fill="#F3BE27"/><path fill-rule="evenodd" clip-rule="evenodd" d="M30 27.377h-.02l-.076-.003v-8.855H30v8.858z" fill="#F8C630"/><path fill-rule="evenodd" clip-rule="evenodd" d="M33.315 18.54s-2.507-.221-2.58-1.383c-.072-1.161 0-4.282 0-4.282s.46-1.327 1.465-1.327c.193 0 .406.048.64.166 1.452.725 2.39 2.893 2.395 3.92.013 2.467-1.92 2.907-1.92 2.907zm3.545 4.75c-.1 0-.158-.006-.158-.006s-2.284-1.06-1.958-2.177c.325-1.117 1.451-4.029 1.451-4.029s.66-.818 1.45-.818c.3 0 .617.117.924.44 1.12 1.174 1.268 3.531.925 4.499-.683 1.926-2.15 2.092-2.633 2.092z" fill="#F3BE27"/></svg>