<svg width="54" height="44" fill="none" xmlns="http://www.w3.org/2000/svg"><path fill-rule="evenodd" clip-rule="evenodd" d="M19.72 2.908c-1.572 0-2.85 1.294-2.85 2.887v8.411c0 1.591 1.278 2.886 2.85 2.886h14.56c1.573 0 2.851-1.295 2.851-2.886V5.795c0-1.593-1.278-2.887-2.85-2.887H19.72zM34.28 20H19.72C16.566 20 14 17.4 14 14.206V5.795C14 2.6 16.566 0 19.72 0h14.56C37.434 0 40 2.6 40 5.795v8.411C40 17.401 37.434 20 34.28 20z" fill="#3C4758"/><path fill-rule="evenodd" clip-rule="evenodd" d="M49.5 44h-45C2.013 44 0 41.998 0 39.528V14.472C0 12.002 2.014 10 4.5 10h45c2.485 0 4.5 2.002 4.5 4.472v25.056C54 41.998 51.985 44 49.5 44z" fill="#8D9AAB"/><path fill-rule="evenodd" clip-rule="evenodd" d="M49.5 44h-45C2.013 44 0 41.998 0 39.528V14.472C0 12.002 2.014 10 4.5 10h45c2.485 0 4.5 2.002 4.5 4.472v25.056C54 41.998 51.985 44 49.5 44z" fill="#738396"/><path fill-rule="evenodd" clip-rule="evenodd" d="M1 39.954V14.045A3.039 3.039 0 014.033 11h45.934A3.039 3.039 0 0153 14.045v25.91A3.039 3.039 0 0149.967 43H4.033A3.04 3.04 0 011 39.954z" fill="#8D9AAB"/><path fill-rule="evenodd" clip-rule="evenodd" d="M22 16s-1.52.66-1.996 2.71c-.11.467 1.996.23 1.996.23V16zM9.989 35.232C10.094 36.17 9.457 37 8.633 37H3s.133-1.499 2.16-1.285C9.23 36.144 9.85 34 9.85 34l.139 1.232z" fill="#72344D"/><path fill-rule="evenodd" clip-rule="evenodd" d="M16.566 23.976c-1.225.521-7.583 6.595-7.566 9.48.007 1.232.24 2.23.535 2.852.202.425.624.692 1.088.692h5.78s.366-.783-.326-1.072c-.691-.288-2.889-.123-2.889-.123s1.16.327 2.004-.75c.816-1.039.191-1.989.191-1.989l2.443-1.877.237 4.144.658 1.667h1.627s.162-.783-.285-.989c-.447-.206-.732-1.196-.732-1.196l.61-3.503.325-1.648c.909-.973.878-.392 1.57-2.123l.993-3.442c.122-.698-.088-2.12-.088-2.12s1.197-.067 1.791-.114c.596-.046.687-.297.687-.297s.891-.967.77-1.219c-.09-.185-1.052-.41-1.729-.745-.198-.099-.446-.743-.923-1.048L21.914 18s-.707.152-1.485.693c-.777.541-.813.993-.894 1.148-.083.154-1.518 3.517-2.97 4.135z" fill="#72344D"/><path fill-rule="evenodd" clip-rule="evenodd" d="M50 27c0 5.523-4.477 10-10 10-5.522 0-10-4.477-10-10s4.478-10 10-10c5.523 0 10 4.477 10 10z" fill="#A84266"/><path fill-rule="evenodd" clip-rule="evenodd" d="M38 33h4V20h-4v13z" fill="#FFFFFE"/><path fill-rule="evenodd" clip-rule="evenodd" d="M33 29h13v-4H33v4z" fill="#FFFFFE"/></svg>