<svg width="38" height="44" fill="none" xmlns="http://www.w3.org/2000/svg"><path fill-rule="evenodd" clip-rule="evenodd" d="M5.081 1.933v39.554A2.513 2.513 0 012.568 44h-.05A2.514 2.514 0 010 41.487L1.865 1.933h3.216z" fill="#E1903F"/><path fill-rule="evenodd" clip-rule="evenodd" d="M5.88 4.138h7.762c.34 0 .616.276.616.616v.012c0 .34-.276.616-.616.616H5.88c-.466 0-.846.143-.846.311V5.7c0 .168.38.306.846.306h7.763c.34 0 .616.275.616.615v.012c0 .34-.276.616-.616.616H5.88c-.466 0-.846.144-.846.311v.006c0 .168.38.305.846.305h7.763c.34 0 .616.276.616.616v.012c0 .34-.276.616-.616.616H5.88c-.466 0-.846.144-.846.311v.006c0 .169.38.305.846.305h7.763c.34 0 .616.276.616.616v.013c0 .34-.276.615-.616.615H5.88c-.466 0-.846.143-.846.311v.006c0 .169.38.305.846.305h7.763c.34 0 .616.276.616.616v.013c0 .34-.276.615-.616.615H5.88c-.466 0-.846.143-.846.311v.007c0 .168.38.304.846.304h7.763c.34 0 .616.276.616.616v.013c0 .34-.276.616-.616.616H5.88c-.466 0-.846.142-.846.31v.007c0 .168.38.304.846.304h7.763c.34 0 .616.276.616.616v.013c0 .34-.276.616-.616.616H5.88c-.466 0-.846.143-.846.31v.007c0 .168.38.305.846.305h7.763c.34 0 .616.275.616.615v.013c0 .34-.276.616-.616.616H5.88c-.466 0-.846.143-.846.31v.007c0 .168.38.305.846.305h7.763c.34 0 .616.275.616.616v.012c0 .34-.276.616-.616.616H5.88c-.466 0-.846.143-.846.31v.007c0 .168.38.305.846.305h7.763c.34 0 .616.275.616.616v.012c0 .34-.276.615-.616.615H5.88c-.466 0-.846.144-.846.312v.006c0 .168.38.305.846.305h7.617c.462 0 .791.51.545.903-.428.684-1.445.702-2.632.702H3.372V1.93h8.037c1.116 0 2.08.016 2.549.586.326.398.027 1-.487 1H5.879c-.466 0-.846.143-.846.31v.008c0 .167.38.304.846.304z" fill="#E1903F"/><path fill-rule="evenodd" clip-rule="evenodd" d="M2.519 42.9c-.783 0-1.42-.634-1.42-1.413L2.913 3.08l.05-.048h.969l.05.05v38.355c0 .808-.656 1.464-1.463 1.464z" fill="#EF9E53"/><path fill-rule="evenodd" clip-rule="evenodd" d="M26.839 27.37V44h1.208a2.2 2.2 0 002.2-2.2l-1.072-14.664a11.01 11.01 0 01-2.24.234h-.096z" fill="#E1903F"/><path fill-rule="evenodd" clip-rule="evenodd" d="M26.935 0h-.096v1.132h.096c5.25 0 9.507 4.096 9.507 9.15v6.807c0 5.053-4.256 9.15-9.507 9.15h-.096v.517h2.308l.028.38c4.793-.997 8.399-5.12 8.399-10.047v-6.808C37.574 4.612 32.801 0 26.935 0z" fill="#EF9E53"/><path fill-rule="evenodd" clip-rule="evenodd" d="M21.345 1.88l.073.004h-.073V1.88zm5.494 24.876v-.517h-.096c-5.251 0-9.507-4.097-9.507-9.15v-6.808c0-5.053 4.256-9.15 9.507-9.15h.096V0h-.096c-5.866 0-10.64 4.612-10.64 10.28v6.81c0 4.925 3.606 9.05 8.4 10.046l.028-.38h2.308z" fill="#E1903F"/><path fill-rule="evenodd" clip-rule="evenodd" d="M21.345 1.88v.004h.073l-.073-.004z" fill="#E1903F"/><path fill-rule="evenodd" clip-rule="evenodd" d="M24.477 5.118a.767.767 0 110-1.534.767.767 0 010 1.534zm0 4.719a.766.766 0 110-1.533.766.766 0 010 1.533zm0 4.719a.766.766 0 110-1.533.766.766 0 010 1.533zm0 4.719a.766.766 0 110-1.533.766.766 0 010 1.533zm0 4.72a.766.766 0 110-1.533.766.766 0 010 1.532zm-2.37-16.52a.766.766 0 11.001-1.533.766.766 0 010 1.533zm0 4.72a.766.766 0 11.001-1.534.766.766 0 010 1.533zm0 4.718a.766.766 0 11.001-1.532.766.766 0 010 1.532zm0 4.72a.766.766 0 110-1.533.766.766 0 010 1.532zm-2.36-11.796a.766.766 0 11-.001-1.532.766.766 0 010 1.532zm0 4.719a.766.766 0 11-.001-1.532.766.766 0 010 1.532zm0 4.719a.766.766 0 11-.001-1.532.766.766 0 010 1.532zm-2.512-8.994v6.808c0 5.053 4.256 9.15 9.508 9.15h.096v-4.607a.766.766 0 110-1.532v-3.187a.766.766 0 110-1.532v-3.187a.766.766 0 110-1.532V7.475a.766.766 0 110-1.532V1.131h-.096c-5.252 0-9.508 4.096-9.508 9.15z" fill="#662C22"/><path fill-rule="evenodd" clip-rule="evenodd" d="M29.208 22.462a.766.766 0 110 1.533.766.766 0 010-1.533zm0-4.72a.767.767 0 110 1.534.767.767 0 010-1.533zm0-4.719a.767.767 0 110 1.534.767.767 0 010-1.534zm0-4.72a.767.767 0 110 1.535.767.767 0 010-1.534zm0-4.718a.767.767 0 110 1.533.767.767 0 010-1.533zM31.57 20.1a.766.766 0 110 1.532.766.766 0 010-1.532zm0-4.719a.766.766 0 110 1.532.766.766 0 010-1.532zm0-4.719a.766.766 0 110 1.532.766.766 0 010-1.532zm0-4.72a.766.766 0 110 1.533.766.766 0 010-1.532zm2.369 11.8a.766.766 0 110 1.533.766.766 0 010-1.532zm0-4.719a.766.766 0 11.001 1.533.766.766 0 01-.001-1.532zm0-4.72a.767.767 0 110 1.534.767.767 0 010-1.533zM27.605 6.71a.766.766 0 01-.766.766v3.187a.766.766 0 110 1.532v3.187a.766.766 0 010 1.532V20.1a.766.766 0 110 1.532v4.607h.096c5.25 0 9.507-4.097 9.507-9.15v-6.808c0-5.053-4.256-9.15-9.507-9.15h-.096v4.811c.423 0 .766.344.766.767z" fill="#59231D"/><path fill-rule="evenodd" clip-rule="evenodd" d="M22.108 5.943a.767.767 0 10.001 1.533.767.767 0 00-.001-1.533zm3.965.766c0 .423.343.766.766.766V5.943a.766.766 0 00-.766.766z" fill="#FBD88C"/><path fill-rule="evenodd" clip-rule="evenodd" d="M27.605 6.709a.766.766 0 00-.766-.766v1.532a.766.766 0 00.766-.766zm3.965.766a.766.766 0 100-1.531.766.766 0 000 1.53z" fill="#F3B62C"/><path fill-rule="evenodd" clip-rule="evenodd" d="M19.747 8.304a.767.767 0 100 1.533.767.767 0 000-1.533zm4.73 0a.767.767 0 10.002 1.534.767.767 0 00-.002-1.534z" fill="#FBD88C"/><path fill-rule="evenodd" clip-rule="evenodd" d="M29.209 9.837a.767.767 0 100-1.533.767.767 0 000 1.533z" fill="#F3B62C"/><path fill-rule="evenodd" clip-rule="evenodd" d="M24.477 3.585a.766.766 0 100 1.533.766.766 0 000-1.533z" fill="#FBD88C"/><path fill-rule="evenodd" clip-rule="evenodd" d="M29.209 5.118a.767.767 0 100-1.534.767.767 0 000 1.534zm4.73 4.719a.766.766 0 10.001-1.533.766.766 0 00-.001 1.533z" fill="#F3B62C"/><path fill-rule="evenodd" clip-rule="evenodd" d="M22.108 10.662a.766.766 0 100 1.533.766.766 0 000-1.533zm3.965.766c0 .424.343.766.766.766v-1.532a.766.766 0 00-.766.766z" fill="#FBD88C"/><path fill-rule="evenodd" clip-rule="evenodd" d="M27.605 11.428a.766.766 0 00-.766-.766v1.532a.766.766 0 00.766-.766zm3.965.766a.766.766 0 100-1.53.766.766 0 000 1.53z" fill="#F3B62C"/><path fill-rule="evenodd" clip-rule="evenodd" d="M19.747 13.024a.766.766 0 100 1.532.766.766 0 000-1.532zm4.73 0a.766.766 0 100 1.533.766.766 0 000-1.533z" fill="#FBD88C"/><path fill-rule="evenodd" clip-rule="evenodd" d="M29.209 14.556a.767.767 0 100-1.533.767.767 0 000 1.533zm4.73 0a.766.766 0 10.001-1.533.766.766 0 00-.001 1.533z" fill="#F3B62C"/><path fill-rule="evenodd" clip-rule="evenodd" d="M22.108 15.381a.766.766 0 100 1.533.766.766 0 000-1.533zm3.965.766c0 .424.343.767.766.767V15.38a.766.766 0 00-.766.766z" fill="#FBD88C"/><path fill-rule="evenodd" clip-rule="evenodd" d="M27.605 16.147a.766.766 0 00-.766-.766v1.532a.766.766 0 00.766-.766zm3.965.766a.766.766 0 100-1.53.766.766 0 000 1.53z" fill="#F3B62C"/><path fill-rule="evenodd" clip-rule="evenodd" d="M19.747 17.743a.766.766 0 100 1.532.766.766 0 000-1.532zm4.73 0a.767.767 0 100 1.533.767.767 0 000-1.533z" fill="#FBD88C"/><path fill-rule="evenodd" clip-rule="evenodd" d="M29.209 19.275a.766.766 0 100-1.533.766.766 0 000 1.533zm4.73 0a.766.766 0 10.001-1.532.766.766 0 00-.001 1.532z" fill="#F3B62C"/><path fill-rule="evenodd" clip-rule="evenodd" d="M22.108 20.1a.766.766 0 100 1.533.766.766 0 000-1.533zm3.965.766c0 .424.343.767.766.767V20.1a.766.766 0 00-.766.766z" fill="#FBD88C"/><path fill-rule="evenodd" clip-rule="evenodd" d="M27.605 20.866a.766.766 0 00-.766-.766v1.532a.766.766 0 00.766-.766zm3.965.767a.765.765 0 10.002-1.53.765.765 0 00-.002 1.53z" fill="#F3B62C"/><path fill-rule="evenodd" clip-rule="evenodd" d="M24.477 22.462a.766.766 0 100 1.533.766.766 0 000-1.533z" fill="#FBD88C"/><path fill-rule="evenodd" clip-rule="evenodd" d="M29.209 23.995a.767.767 0 100-1.534.767.767 0 000 1.534z" fill="#F3B62C"/><path fill-rule="evenodd" clip-rule="evenodd" d="M26.743 27.37c-.768 0-1.517-.083-2.24-.234l-1.072 14.665A2.2 2.2 0 0025.63 44h1.208V27.37h-.096z" fill="#EF9E53"/><path fill-rule="evenodd" clip-rule="evenodd" d="M26.84 27.37v-.614h-2.31l-.027.38c.723.15 1.471.234 2.24.234h.096z" fill="#E1903F"/><path fill-rule="evenodd" clip-rule="evenodd" d="M26.839 26.756v.614h.096c.769 0 1.517-.083 2.24-.234l-.028-.38h-2.308z" fill="#EF9E53"/></svg>