<svg width="56" height="56" fill="none" xmlns="http://www.w3.org/2000/svg"><path d="M0 11.742h31v39.742H0V11.742z" fill="#FDBF00"/><ellipse cx="15.5" cy="11.742" rx="15.5" ry="11.742" fill="#DFDFDD"/><path d="M15.619 19.871c-4.401 0-8.37-1.548-10.619-4.142l1.439-1.25c1.863 2.15 5.38 3.485 9.18 3.485 2.867 0 5.55-.736 7.553-2.073 1.885-1.259 2.923-2.892 2.923-4.6 0-1.709-1.038-3.343-2.923-4.6-2.004-1.338-4.686-2.074-7.553-2.074-2.27 0-4.432.462-6.255 1.337l-.823-1.719c2.078-.998 4.525-1.525 7.078-1.525 3.238 0 6.296.85 8.61 2.394C26.66 6.727 28 8.924 28 11.29c0 2.367-1.34 4.564-3.771 6.187-2.314 1.544-5.372 2.394-8.61 2.394z" fill="#D5D5D3"/><path fill-rule="evenodd" clip-rule="evenodd" d="M11 6.323c-1.47.001-2.92.35-4.236 1.016l-1.317.669A2.665 2.665 0 004 10.387c0 1.008.56 1.929 1.447 2.38l1.317.668A9.395 9.395 0 0011 14.451c2.21 0 4-1.82 4-4.064 0-2.245-1.79-4.064-4-4.064zm-4.658 4.61a.61.61 0 010-1.093l1.317-.651c.112-.056.226-.107.341-.157v2.71a7.133 7.133 0 01-.341-.157l-1.317-.651zm3.658.745c.331.042.665.063 1 .064 1.105 0 2-.809 2-1.807 0-.997-.895-1.806-2-1.806-.335 0-.669.022-1 .064v3.485z" fill="#F1F1F1"/><path d="M8 33.42v9.935l3-2.98 3 2.98v-9.936H8z" fill="#2D7DBE"/><path d="M15.643 30.183c.825-1.698-.985-3.468-2.72-2.661-.643-1.771-3.203-1.771-3.846 0-1.735-.808-3.544.963-2.72 2.66-1.81.63-1.81 3.135 0 3.764-.825 1.698.985 3.468 2.72 2.662.643 1.77 3.203 1.77 3.846 0 1.735.807 3.544-.964 2.72-2.662 1.81-.63 1.81-3.133 0-3.763z" fill="#348ED8"/><path d="M3 46.065h28v1.806H3v-1.806z" fill="#FFC261"/><rect x="21" y="24.387" width="35" height="31.613" rx="15.806" fill="#DFDFDD"/><path d="M56 30.24v15.42c0 1.4-.93 2.627-2.275 3.001a3.1 3.1 0 01-3.49-1.399l-1.013-1.692a3.432 3.432 0 00-2.944-1.673H26.833c-3.221 0-5.833-2.62-5.833-5.853V30.24c0-3.232 2.612-5.853 5.833-5.853h23.334c3.221 0 5.833 2.62 5.833 5.853z" fill="#FF415B"/><path d="M56 38.839v4.117a5.62 5.62 0 01-2.627 1.302L53 42.452c1.745-.355 2.997-1.863 3-3.613z" fill="#C6568B"/><path d="M26.9 40.645a2.905 2.905 0 01-2.9-2.903v-.968h1.933v.968c0 .534.433.967.967.968h23.2a.968.968 0 00.967-.968V30a.968.968 0 00-.967-.968H36.567v-1.935H50.1c1.6.002 2.898 1.3 2.9 2.903v7.742a2.905 2.905 0 01-2.9 2.903H26.9z" fill="#DF80B2"/><ellipse cx="29.831" cy="31.66" rx="4.83" ry="2.898" transform="rotate(-27.052 29.831 31.66)" fill="#7C58D3"/><path d="M24 46.065h2v4.516h-2v-4.517z" fill="#EAEAE8"/></svg>