<svg width="56" height="58" fill="none" xmlns="http://www.w3.org/2000/svg"><path d="M46.236 18c-.974 0-1.764-.746-1.764-1.666V11.79c0-4.664-4.025-8.458-8.972-8.458-4.947 0-8.972 3.794-8.972 8.457v4.545c0 .92-.79 1.666-1.764 1.666S23 17.254 23 16.334V11.79C23 5.288 28.608 0 35.5 0S48 5.289 48 11.79v4.544c0 .92-.79 1.666-1.764 1.666z" fill="#752F00"/><path d="M1.557 17C.697 17 0 17.708 0 18.58v37.84C0 57.291.697 58 1.557 58H41.96L44 33.02 41.96 17H1.558z" fill="#F48430"/><path d="M56 57.539L49.664 45 43 58h11.909c.425 0 .81-.176 1.091-.461z" fill="#893A00"/><path d="M55.5 58c.5 0 .5 0 .5-1.14V18.599c0-.883-.766-1.599-1.712-1.599h-5.762L46 33.198 50 51.5s5 6.5 5.5 6.5z" fill="#752F00"/><path d="M43 17v41h.189L50 51.286V17h-7z" fill="#A44500"/><path d="M21 17h22v41H21V17z" fill="#DA6B00"/><path d="M31.236 23a1.757 1.757 0 01-1.764-1.75v-8.869c0-4.897-4.025-8.882-8.972-8.882-4.947 0-8.972 3.985-8.972 8.882v8.87c0 .966-.79 1.749-1.764 1.749A1.757 1.757 0 018 21.25v-8.869C8 5.554 13.607 0 20.5 0S33 5.554 33 12.381v8.87c0 .966-.79 1.749-1.764 1.749z" fill="#C65000"/><path d="M29.613 12.381v8.87c0 .966.758 1.749 1.693 1.749.936 0 1.694-.783 1.694-1.75v-8.869C33 5.554 27.617 0 21 0v3.5c4.75 0 8.613 3.984 8.613 8.881z" fill="#A44500"/><ellipse cx="21" cy="38.5" rx="13" ry="13.5" fill="#fff"/><circle cx="14.5" cy="34.5" r="1.5" fill="#FF6C6C"/><path d="M21 25v27c7.182-.013 13-6.052 13-13.5S28.182 25.013 21 25z" fill="#F9F9F9"/><path d="M21 45.362c.857 0 1.673.16 2.417.449 1.704.662 3.584-.496 3.583-2.217 0-.1-.003-.2-.009-.302-.167-2.942-2.811-5.282-5.97-5.292C17.696 37.99 15 40.499 15 43.596v.041c.013 1.703 1.897 2.829 3.582 2.174.745-.289 2.418-.449 2.418-.449z" fill="#FF6C6C"/><path d="M21 38v7.365a4.948 4.948 0 011.946.446c1.452.662 3.055-.496 3.054-2.218 0-.1-.003-.2-.007-.302C25.852 40.383 23.65 38.065 21 38z" fill="#FF0059"/><circle cx="21.5" cy="32.5" r="1.5" fill="#FF6C6C"/><path d="M21 31v3c1.106-.008 2-.676 2-1.5s-.894-1.492-2-1.5z" fill="#FF0059"/><circle cx="27.5" cy="35.5" r="1.5" fill="#FF0059"/></svg>