<svg width="56" height="56" fill="none" xmlns="http://www.w3.org/2000/svg"><path d="M56 11.124c.004.346-.102.695-.325.99L39.572 33.352a1.643 1.643 0 01-1.314.648c-.342 0-.687-.104-.98-.32H18.722a1.654 1.654 0 01-2.294-.328L.325 12.115a1.604 1.604 0 01-.325-.99L9.42 8l6.523 3.124L28 27.501l12.057-16.377 6.96-3.016L56 11.124z" fill="#FF415B"/><path d="M56 11.03a1.62 1.62 0 01-.325.994L39.572 33.349a1.64 1.64 0 01-1.314.651c-.342 0-.687-.105-.98-.322H28v-6.204l12.057-16.445L47.017 8 56 11.03z" fill="#D10050"/><path d="M28 26c-8.271 0-15 6.729-15 15s6.729 15 15 15 15-6.729 15-15-6.729-15-15-15z" fill="#FFDA2D"/><path d="M43 41c0 8.271-6.729 15-15 15V26c8.271 0 15 6.729 15 15z" fill="#FDBF00"/><path d="M56 12H0c.007-.437.17-.869.485-1.194L10.454.495A1.607 1.607 0 0111.607 0h32.786c.432 0 .846.178 1.153.495l9.969 10.31c.316.326.478.758.485 1.195z" fill="#FF8859"/><path d="M56 12H28V0h16.393c.432 0 .846.178 1.153.495l9.969 10.31c.316.326.478.758.485 1.195z" fill="#FF415B"/><path fill-rule="evenodd" clip-rule="evenodd" d="M23 44.667C23 42.464 25.63 40 29 40c.342 0 .676.025 1 .073V40c2.81 0 5 2.464 5 4.667C35 46.278 33.687 48 30 48v-.032c-.316.021-.649.032-1 .032-4.424 0-6-1.722-6-3.333z" fill="#766E6E"/><circle cx="27.5" cy="36.5" r="1.5" fill="#766E6E"/><path d="M30 36.5c0 .828-.896 1.5-2 1.5v-3c1.104 0 2 .672 2 1.5z" fill="#5B5555"/><circle cx="32.5" cy="37.5" r="1.5" fill="#5B5555"/><circle cx="22.5" cy="37.5" r="1.5" fill="#766E6E"/></svg>