<svg width="56" height="56" fill="none" xmlns="http://www.w3.org/2000/svg"><path d="M3.126 15.934l-.465-.496c-.266-.283-.596-.438-.937-.438H1.5c-.398 0-.78.212-1.062.588-.281.376-.439.886-.438 1.417v.038c0 .602.213 1.17.574 1.53l.557.558C2.31 20.31 3.001 22.161 3 24.124v.063c0 1.182-.263 2.338-.754 3.322l-1.49 2.98C.263 31.473 0 32.631 0 33.816V46h3V34.211c0-.79.175-1.562.504-2.219l1.21-2.42C5.551 27.896 6 25.925 6 23.909c0-3.102-1.058-6.036-2.874-7.974z" fill="#FBAB1F"/><path d="M54.134 38.151s1.529-3.372 1.779-5.896-.011-4.334-1.12-6.137c1.003-2.176.428-4.817-1.366-6.277l-.366-.297c0-2.353-2.076-4.052-4.163-3.406L47 16.727c2.718 3.924 3.624 9.506 2.146 15.025L47 38.326 52.926 41l1.208-2.849z" fill="#EF7800"/><path d="M11.52 16v12.247a3.802 3.802 0 01-1.71 3.17l-3.398 2.247A14.256 14.256 0 000 45.55V56h24V16l-.843.279a5.17 5.17 0 00-2.997 2.578h-4.8a5.17 5.17 0 00-2.996-2.578L11.52 16z" fill="#FFB431"/><path d="M15 22h1v1h-1v-1zm4 0h1v1h-1v-1z" fill="#7A432A"/><path d="M40.41 21.241v-9.655h2.923l2.923-6.758L39.883.88A5.886 5.886 0 0036.785 0h-9.313c-1.096 0-2.17.305-3.099.881L18 4.828l2.923 6.758h2.923v39.586c-1.614 0-2.923 1.297-2.923 2.897V56H56v-6.855a22.97 22.97 0 00-6.82-16.317l-6.703-6.642a6.96 6.96 0 01-2.067-4.945z" fill="#F88400"/><path d="M37 15h-1.8c-1.034 0-2.018-.395-2.7-1.086-.682.69-1.666 1.086-2.7 1.086H28v-1.6h1.8c.994-.001 1.799-.717 1.8-1.6 0-.442.403-.8.9-.8s.9.358.9.8c.001.883.806 1.599 1.8 1.6H37V15z" fill="#EA7206"/><path d="M28 5h1v1h-1V5zm8 0h1v1h-1V5z" fill="#7A432A"/><path d="M25.54 10H24V5.237c0-.148.028-.294.081-.426L25.622 1 27 1.852l-1.46 3.61V10zM41 10h-1.54V5.462L38 1.852 39.378 1l1.54 3.81c.054.133.082.279.082.427V10z" fill="#EA7206"/><path d="M24 18h16v3H24v-3z" fill="#D65246"/><path d="M33 32h2v24h-2V32zm-6 24h-2v-2a4.007 4.007 0 013-3.873V32h2v19a1 1 0 01-1 1 2.002 2.002 0 00-2 2v2z" fill="#EA7206"/><path d="M34.88 56H33v-2.028c.002-2.24 1.684-4.054 3.758-4.057h1.88v-4.404c-.01-3.945 1.442-7.73 4.033-10.511L44 36.434c-2.238 2.402-3.492 5.67-3.483 9.077v5.418c0 .56-.42 1.014-.94 1.014h-2.819c-1.037.002-1.878.91-1.879 2.029V56z" fill="#EA7206"/><path d="M18 40h1v16h-1V40zm-3.12 0h-2.242v11.127A4.987 4.987 0 0011.517 51H9.276v-1.757c.009-2.984-1.32-5.846-3.691-7.95L4 42.707c1.949 1.73 3.042 4.083 3.034 6.536V52c0 .552.502 1 1.12 1h3.363c1.237.001 2.24.896 2.242 2v1H16v-1c0-.973-.398-1.913-1.12-2.642V40z" fill="#F99E0C"/><rect x="31" y="7" width="3" height="3" rx="1.5" fill="#7A432A"/></svg>