<svg width="37" height="44" fill="none" xmlns="http://www.w3.org/2000/svg"><path fill-rule="evenodd" clip-rule="evenodd" d="M9.599 19.582l-.025-.246-5.187-1.725a3.996 3.996 0 01-2.698-3.179L.981 9.997a4.005 4.005 0 01.911-3.234 4.01 4.01 0 013.05-1.41h3.21l-.1-.93h-3.11a4.94 4.94 0 00-4.879 5.722l.708 4.435a4.936 4.936 0 003.32 3.912l5.551 1.842a6.04 6.04 0 01-.043-.752z" fill="#EC982D"/><path fill-rule="evenodd" clip-rule="evenodd" d="M35.949 10.145l-.709 4.435a4.932 4.932 0 01-3.327 3.912l-5.593 1.86c.03-.253.055-.51.055-.77l.019-.234 5.23-1.737a4.017 4.017 0 002.698-3.179l.709-4.435a4.021 4.021 0 00-3.967-4.645h-3.241l.093-.93h3.147c3.043 0 5.366 2.723 4.886 5.723z" fill="#F3B62C"/><path fill-rule="evenodd" clip-rule="evenodd" d="M20.315 5.202c1.961-.05 3.978-.173 5.71-.422l-1.532 15.323c-.228 1.847-1.44 5.098-3.819 6.268a8.98 8.98 0 00-.359.188V5.202z" fill="#EECA28"/><path fill-rule="evenodd" clip-rule="evenodd" d="M17.968 0v2.882C12.032 2.877 7.163 2.231 7.163 1.44 7.163.646 11.991 0 17.968 0z" fill="#EC982D"/><path fill-rule="evenodd" clip-rule="evenodd" d="M28.808 1.439c0 .07-.035.135-.111.205v.006c-.757.698-5.288 1.232-10.73 1.232V0c5.971 0 10.841.646 10.841 1.439z" fill="#F3B62C"/><path fill-rule="evenodd" clip-rule="evenodd" d="M10.791 42.533c0-.06.018-.124.059-.182l-.059.182z" fill="#A84266"/><path fill-rule="evenodd" clip-rule="evenodd" d="M17.968 42.533V44c-3.975 0-7.177-.657-7.177-1.467l.06-.182.005-.012a8.42 8.42 0 015.976-5.53l.111-.03-.152-4.303c-.059-1.561-.77-3.087-2.618-3.998-3.246-1.596-4.803-5.57-5.12-8.142L7.164 1.439c0 .792 4.87 1.438 10.805 1.443v39.65z" fill="#FBE15B"/><path fill-rule="evenodd" clip-rule="evenodd" d="M17.968 42.533V44c3.974 0 7.176-.657 7.176-1.467l-.06-.182-.005-.012a8.418 8.418 0 00-5.977-5.53l-.11-.03.152-4.303c.059-1.561.769-3.087 2.618-3.998 3.247-1.596 4.802-5.57 5.12-8.142l1.89-18.897c0 .792-4.87 1.438-10.804 1.443v39.65z" fill="#F8D82B"/><path fill-rule="evenodd" clip-rule="evenodd" d="M20.315 5.203c2.443-.06 4.318-.209 5.761-.418l-1.531 15.317c-.229 1.848-1.44 5.1-3.82 6.27a7.98 7.98 0 00-.41.215V5.203z" fill="#F2BA27"/><path fill-rule="evenodd" clip-rule="evenodd" d="M15.619 26.587a8.519 8.519 0 00-.41-.215c-2.379-1.17-3.591-4.422-3.825-6.323L9.857 4.785c1.444.209 3.319.359 5.762.418v21.384z" fill="#FDEA97"/></svg>